VelekaWorld-Medium.ufo
<glyph name="dollar" format="2">
  <advance width="570"/>
  <unicode hex="0024"/>
  <outline>
    <contour>
      <point x="56" y="27" type="curve"/>
      <point x="56" y="198" type="line"/>
      <point x="113" y="198" type="line"/>
      <point x="132" y="84.3333" type="line"/>
      <point x="156.667" y="61"/>
      <point x="211" y="52"/>
      <point x="259" y="52" type="curve"/>
      <point x="259" y="294" type="line"/>
      <point x="171.094" y="314.935"/>
      <point x="68.6667" y="360.646"/>
      <point x="68.6667" y="481.667" type="curve" smooth="yes"/>
      <point x="68.6667" y="618.698"/>
      <point x="194.641" y="656.903"/>
      <point x="259" y="668" type="curve"/>
      <point x="259" y="742.667" type="line"/>
      <point x="309.333" y="742.667" type="line"/>
      <point x="309.333" y="670" type="line"/>
      <point x="379" y="670"/>
      <point x="449.667" y="653"/>
      <point x="483.667" y="645" type="curve"/>
      <point x="483.667" y="484" type="line"/>
      <point x="426" y="484" type="line"/>
      <point x="409.667" y="591.667" type="line"/>
      <point x="396.235" y="605.333"/>
      <point x="351.68" y="617"/>
      <point x="310" y="617" type="curve"/>
      <point x="310" y="389" type="line"/>
      <point x="398.667" y="363.667"/>
      <point x="514" y="326"/>
      <point x="514" y="193.667" type="curve" smooth="yes"/>
      <point x="514" y="82.7888"/>
      <point x="418.063" y="9.57907"/>
      <point x="309.333" y="-1" type="curve"/>
      <point x="309.333" y="-104" type="line"/>
      <point x="259" y="-104" type="line"/>
      <point x="259" y="-1.33333" type="line"/>
      <point x="211.667" y="1.33333"/>
      <point x="124" y="7"/>
    </contour>
    <contour>
      <point x="173.667" y="507" type="curve" smooth="yes"/>
      <point x="173.667" y="449"/>
      <point x="217" y="417.333"/>
      <point x="260.333" y="403" type="curve"/>
      <point x="260.333" y="613.333" type="line"/>
      <point x="211" y="603.667"/>
      <point x="173.667" y="564.667"/>
    </contour>
    <contour>
      <point x="310" y="57" type="line"/>
      <point x="365.333" y="63"/>
      <point x="411.667" y="107.333"/>
      <point x="411.667" y="170.333" type="curve" smooth="yes"/>
      <point x="411.667" y="241.667"/>
      <point x="358.667" y="266.667"/>
      <point x="310" y="282.333" type="curve"/>
    </contour>
  </outline>
</glyph>
<glyph name="percent" format="2">
  <advance width="871"/>
  <unicode hex="0025"/>
  <outline>
    <contour>
      <point x="29.6667" y="476" type="curve" smooth="yes"/>
      <point x="29.6667" y="594.667"/>
      <point x="77" y="686.333"/>
      <point x="189.667" y="686.333" type="curve" smooth="yes"/>
      <point x="302.333" y="686.333"/>
      <point x="348.667" y="594.667"/>
      <point x="348.667" y="476.667" type="curve" smooth="yes"/>
      <point x="348.667" y="358.667"/>
      <point x="301.667" y="266"/>
      <point x="189.667" y="266" type="curve" smooth="yes"/>
      <point x="77" y="266"/>
      <point x="29.6667" y="358"/>
    </contour>
    <contour>
      <point x="114" y="476" type="curve" smooth="yes"/>
      <point x="114" y="385"/>
      <point x="130.667" y="307.667"/>
      <point x="190.333" y="307.667" type="curve" smooth="yes"/>
      <point x="249" y="307.667"/>
      <point x="262" y="387"/>
      <point x="262" y="476.667" type="curve" smooth="yes"/>
      <point x="262" y="566.333"/>
      <point x="248.333" y="644.667"/>
      <point x="190.333" y="644.667" type="curve" smooth="yes"/>
      <point x="130.667" y="644.667"/>
      <point x="114" y="566.333"/>
    </contour>
    <contour>
      <point x="191.333" y="-0.666667" type="line"/>
      <point x="613" y="670.333" type="line"/>
      <point x="678.333" y="670.333" type="line"/>
      <point x="257" y="-0.666667" type="line"/>
    </contour>
    <contour>
      <point x="519.667" y="193" type="curve" smooth="yes"/>
      <point x="519.667" y="310.333"/>
      <point x="567.667" y="402.667"/>
      <point x="679.667" y="402.667" type="curve" smooth="yes"/>
      <point x="791.667" y="402.667"/>
      <point x="839" y="311"/>
      <point x="839" y="193" type="curve" smooth="yes"/>
      <point x="839" y="77"/>
      <point x="789.667" y="-16.6667"/>
      <point x="678.333" y="-16.6667" type="curve" smooth="yes"/>
      <point x="565.667" y="-16.6667"/>
      <point x="519.667" y="74.3333"/>
    </contour>
    <contour>
      <point x="604.333" y="193" type="curve" smooth="yes"/>
      <point x="604.333" y="102"/>
      <point x="620.333" y="23.6667"/>
      <point x="679.667" y="23.6667" type="curve" smooth="yes"/>
      <point x="739.333" y="23.6667"/>
      <point x="751.333" y="103.333"/>
      <point x="751.333" y="193" type="curve" smooth="yes"/>
      <point x="751.333" y="282.667"/>
      <point x="738.667" y="361.667"/>
      <point x="679.667" y="361.667" type="curve" smooth="yes"/>
      <point x="620.333" y="361.667"/>
      <point x="604.333" y="282.667"/>
    </contour>
  </outline>
</glyph>
<glyph name="ampersand" format="2">
  <advance width="711"/>
  <unicode hex="0026"/>
  <outline>
    <contour>
      <point x="38" y="184" type="curve" smooth="yes"/>
      <point x="38" y="280.333"/>
      <point x="99.6667" y="330.333"/>
      <point x="174.333" y="358.667" type="curve"/>
      <point x="121.401" y="401.407"/>
      <point x="88" y="461.147"/>
      <point x="88" y="514.667" type="curve" smooth="yes"/>
      <point x="88" y="623"/>
      <point x="176.333" y="684"/>
      <point x="287" y="684" type="curve" smooth="yes"/>
      <point x="377" y="684"/>
      <point x="470.333" y="635.667"/>
      <point x="470.333" y="531.667" type="curve" smooth="yes"/>
      <point x="470.333" y="419"/>
      <point x="374" y="381.333"/>
      <point x="322.333" y="360" type="curve"/>
      <point x="485.667" y="186" type="line"/>
      <point x="503.667" y="209"/>
      <point x="521.333" y="243.333"/>
      <point x="536.667" y="280" type="curve" smooth="yes"/>
      <point x="540.667" y="289"/>
      <point x="542.667" y="296"/>
      <point x="542.667" y="303" type="curve" smooth="yes"/>
      <point x="542.667" y="309.333"/>
      <point x="533" y="318"/>
      <point x="527.333" y="319" type="curve" smooth="yes"/>
      <point x="473.333" y="327.333" type="line"/>
      <point x="473.333" y="371" type="line"/>
      <point x="680" y="371" type="line"/>
      <point x="680" y="327.333" type="line"/>
      <point x="609" y="315.333" type="line"/>
      <point x="586.333" y="237"/>
      <point x="544.667" y="179.333"/>
      <point x="521.333" y="147.333" type="curve"/>
      <point x="606.667" y="51.6667" type="line"/>
      <point x="693" y="45.6667" type="line"/>
      <point x="693" y="0" type="line"/>
      <point x="497.667" y="0" type="line"/>
      <point x="497.667" y="24" type="line"/>
      <point x="453.667" y="73" type="line"/>
      <point x="423" y="42.3333"/>
      <point x="352.333" y="-14"/>
      <point x="248" y="-14" type="curve" smooth="yes"/>
      <point x="125.667" y="-14"/>
      <point x="38" y="65.3333"/>
    </contour>
    <contour>
      <point x="151" y="216" type="curve" smooth="yes"/>
      <point x="151" y="118.667"/>
      <point x="215" y="60"/>
      <point x="296.667" y="60" type="curve" smooth="yes"/>
      <point x="361" y="60"/>
      <point x="395.333" y="91.3333"/>
      <point x="418" y="110.667" type="curve"/>
      <point x="214" y="325.667" type="line"/>
      <point x="189.333" y="309.667"/>
      <point x="151" y="277"/>
    </contour>
    <contour>
      <point x="192" y="542.667" type="curve" smooth="yes"/>
      <point x="192" y="482"/>
      <point x="238" y="435.667"/>
      <point x="285.667" y="394" type="curve"/>
      <point x="334" y="423"/>
      <point x="368.333" y="457.333"/>
      <point x="368.333" y="526.333" type="curve" smooth="yes"/>
      <point x="368.333" y="586"/>
      <point x="336.333" y="631.333"/>
      <point x="278.667" y="631.333" type="curve" smooth="yes"/>
      <point x="226.667" y="631.333"/>
      <point x="192" y="594.667"/>
    </contour>
  </outline>
</glyph>
<glyph name="parenleft" format="2">
  <advance width="381"/>
  <unicode hex="0028"/>
  <outline>
    <contour>
      <point x="348" y="-142" type="line"/>
      <point x="158.499" y="-125.976"/>
      <point x="59" y="27.8615"/>
      <point x="59" y="288" type="curve" smooth="yes"/>
      <point x="59" y="546.643"/>
      <point x="159.499" y="701.094"/>
      <point x="348" y="717" type="curve"/>
      <point x="348" y="669.667" type="line"/>
      <point x="213.87" y="648.538"/>
      <point x="163.333" y="517.166"/>
      <point x="163.333" y="288" type="curve" smooth="yes"/>
      <point x="163.333" y="58.5567"/>
      <point x="213.967" y="-73.5541"/>
      <point x="348" y="-94.6667" type="curve"/>
    </contour>
  </outline>
</glyph>
<glyph name="parenright" format="2">
  <advance width="381"/>
  <unicode hex="0029"/>
  <outline>
    <contour>
      <point x="34" y="-142" type="curve"/>
      <point x="34" y="-94.6667" type="line"/>
      <point x="168.11" y="-73.6757"/>
      <point x="218" y="56.8829"/>
      <point x="218" y="288.667" type="curve" smooth="yes"/>
      <point x="218" y="518.395"/>
      <point x="167.601" y="649.237"/>
      <point x="34" y="670.333" type="curve"/>
      <point x="34" y="717.667" type="line"/>
      <point x="222.756" y="701.287"/>
      <point x="323" y="547.725"/>
      <point x="323" y="288.667" type="curve" smooth="yes"/>
      <point x="323" y="27.9519"/>
      <point x="223.268" y="-125.964"/>
    </contour>
  </outline>
</glyph>
<glyph name="asterisk" format="2">
  <advance width="500"/>
  <unicode hex="002A"/>
  <outline>
    <contour>
      <point x="53" y="570.333" type="line"/>
      <point x="124.333" y="594" type="line"/>
      <point x="232" y="520.333" type="line"/>
      <point x="227.333" y="506.333" type="line"/>
      <point x="97.3333" y="510.667" type="line"/>
    </contour>
    <contour>
      <point x="127.667" y="363.333" type="line"/>
      <point x="164.667" y="438.667" type="line"/>
      <point x="236" y="488.667" type="line"/>
      <point x="230.667" y="441.333" type="line"/>
      <point x="174.667" y="354.667" type="line"/>
    </contour>
    <contour>
      <point x="206" y="656" type="line"/>
      <point x="250" y="716.667" type="line"/>
      <point x="294.667" y="656" type="line"/>
      <point x="257.333" y="531" type="line"/>
      <point x="242.333" y="531" type="line"/>
    </contour>
    <contour>
      <point x="256" y="482.667" type="line"/>
      <point x="268" y="492.667" type="line"/>
      <point x="371" y="412.667" type="line"/>
      <point x="371.333" y="337.333" type="line"/>
      <point x="300" y="361.333" type="line"/>
    </contour>
    <contour>
      <point x="267.667" y="520.667" type="line"/>
      <point x="375" y="594" type="line"/>
      <point x="447" y="570.333" type="line"/>
      <point x="402.333" y="510.667" type="line"/>
      <point x="273.333" y="506.333" type="line"/>
    </contour>
  </outline>
</glyph>
<glyph name="hyphen" format="2">
  <advance width="322"/>
  <unicode hex="002D"/>
  <outline>
    <contour>
      <point x="40.3333" y="198" type="line"/>
      <point x="40.3333" y="283.333" type="line"/>
      <point x="282.333" y="283.333" type="line"/>
      <point x="282.333" y="198" type="line"/>
    </contour>
  </outline>
</glyph>
<glyph name="period" format="2">
  <advance width="292"/>
  <unicode hex="002E"/>
  <outline>
    <contour>
      <point x="61.6667" y="60.2149" type="curve" smooth="yes"/>
      <point x="61.6667" y="100.856"/>
      <point x="93.8102" y="133"/>
      <point x="134.298" y="133" type="curve" smooth="yes"/>
      <point x="175.147" y="133"/>
      <point x="206.667" y="100.814"/>
      <point x="206.667" y="60.3333" type="curve" smooth="yes"/>
      <point x="206.667" y="19.8529"/>
      <point x="175.147" y="-12"/>
      <point x="134.18" y="-12" type="curve" smooth="yes"/>
      <point x="93.6667" y="-12"/>
      <point x="61.6667" y="19.6667"/>
    </contour>
  </outline>
</glyph>
<glyph name="zero" format="2">
  <advance width="570"/>
  <unicode hex="0030"/>
  <outline>
    <contour>
      <point x="38.6667" y="335" type="curve" smooth="yes"/>
      <point x="38.6667" y="494"/>
      <point x="100.667" y="685.667"/>
      <point x="285" y="685.667" type="curve" smooth="yes"/>
      <point x="469" y="685.667"/>
      <point x="530" y="501.333"/>
      <point x="532" y="335" type="curve"/>
      <point x="531.333" y="173.667"/>
      <point x="469" y="-15.3333"/>
      <point x="285" y="-15.3333" type="curve" smooth="yes"/>
      <point x="104" y="-15.3333"/>
      <point x="38.6667" y="167"/>
    </contour>
    <contour>
      <point x="157.333" y="335" type="curve" smooth="yes"/>
      <point x="157.333" y="250.667"/>
      <point x="164" y="38.3333"/>
      <point x="285" y="38.3333" type="curve" smooth="yes"/>
      <point x="405" y="38.3333"/>
      <point x="412.667" y="246"/>
      <point x="413.333" y="335" type="curve"/>
      <point x="413.333" y="418.667"/>
      <point x="405" y="633"/>
      <point x="284.333" y="633" type="curve" smooth="yes"/>
      <point x="164.667" y="633"/>
      <point x="157.333" y="424"/>
    </contour>
  </outline>
</glyph>
<glyph name="two" format="2">
  <advance width="570"/>
  <unicode hex="0032"/>
  <outline>
    <contour>
      <point x="44.3333" y="0" type="line"/>
      <point x="44.3333" y="72.3333" type="line"/>
      <point x="267.937" y="213.291"/>
      <point x="388.333" y="356.519"/>
      <point x="388.333" y="481.333" type="curve" smooth="yes"/>
      <point x="388.333" y="569.171"/>
      <point x="333.565" y="628.667"/>
      <point x="252.333" y="628.667" type="curve" smooth="yes"/>
      <point x="225.564" y="628.667"/>
      <point x="202.97" y="621.757"/>
      <point x="178" y="607" type="curve"/>
      <point x="178" y="488" type="line"/>
      <point x="170.573" y="480.573"/>
      <point x="144.509" y="469"/>
      <point x="121.333" y="469" type="curve" smooth="yes"/>
      <point x="81.1243" y="469"/>
      <point x="56.3333" y="493.533"/>
      <point x="56.3333" y="533" type="curve" smooth="yes"/>
      <point x="56.3333" y="620.172"/>
      <point x="154.236" y="685.667"/>
      <point x="284.333" y="685.667" type="curve" smooth="yes"/>
      <point x="417.845" y="685.667"/>
      <point x="508.667" y="606.538"/>
      <point x="508.667" y="490.333" type="curve" smooth="yes"/>
      <point x="508.667" y="367.295"/>
      <point x="400.206" y="243.437"/>
      <point x="159.333" y="92" type="curve"/>
      <point x="451.333" y="92" type="line"/>
      <point x="469.667" y="178.667" type="line"/>
      <point x="523.667" y="178.667" type="line"/>
      <point x="523.667" y="0" type="line"/>
    </contour>
  </outline>
</glyph>
<glyph name="six" format="2">
  <advance width="570"/>
  <unicode hex="0036"/>
  <outline>
    <contour>
      <point x="38" y="288.333" type="curve" smooth="yes"/>
      <point x="38" y="538.605"/>
      <point x="191.144" y="687.667"/>
      <point x="448.333" y="687.667" type="curve"/>
      <point x="448.333" y="620.333" type="line"/>
      <point x="411" y="623.333" type="line"/>
      <point x="274.911" y="620.333"/>
      <point x="180.093" y="528.245"/>
      <point x="159.667" y="380" type="curve"/>
      <point x="194.507" y="409.539"/>
      <point x="250.873" y="438.667"/>
      <point x="322.667" y="438.667" type="curve" smooth="yes"/>
      <point x="445.606" y="438.667"/>
      <point x="531.333" y="353.939"/>
      <point x="531.333" y="232.333" type="curve" smooth="yes"/>
      <point x="531.333" y="86.5351"/>
      <point x="430.008" y="-16.6667"/>
      <point x="286.333" y="-16.6667" type="curve" smooth="yes"/>
      <point x="125.693" y="-16.6667"/>
      <point x="38" y="90.7491"/>
    </contour>
    <contour>
      <point x="157" y="262.667" type="line" smooth="yes"/>
      <point x="157" y="121.503"/>
      <point x="204.683" y="40.3333"/>
      <point x="288" y="40.3333" type="curve" smooth="yes"/>
      <point x="368.445" y="40.3333"/>
      <point x="417" y="106.447"/>
      <point x="417" y="214.333" type="curve" smooth="yes"/>
      <point x="417" y="312.333"/>
      <point x="367.289" y="367.667"/>
      <point x="279.333" y="367.667" type="curve" smooth="yes"/>
      <point x="230.167" y="367.667"/>
      <point x="187.617" y="349.846"/>
      <point x="157" y="327.333" type="curve"/>
    </contour>
  </outline>
</glyph>
<glyph name="nine" format="2">
  <advance width="570"/>
  <unicode hex="0039"/>
  <outline>
    <contour>
      <point x="38" y="437.667" type="curve" smooth="yes"/>
      <point x="38" y="586"/>
      <point x="140.667" y="687"/>
      <point x="281.667" y="687" type="curve" smooth="yes"/>
      <point x="452.667" y="687"/>
      <point x="531.333" y="566.333"/>
      <point x="531.333" y="381.667" type="curve" smooth="yes"/>
      <point x="531.333" y="136"/>
      <point x="378.333" y="-16.6667"/>
      <point x="135.667" y="-16.6667" type="curve" smooth="yes"/>
      <point x="121" y="-16.6667" type="line"/>
      <point x="121" y="50.6667" type="line"/>
      <point x="158.333" y="49" type="line"/>
      <point x="302.423" y="52.3333"/>
      <point x="403.333" y="162.053"/>
      <point x="410" y="290.667" type="curve"/>
      <point x="372.333" y="258"/>
      <point x="314.667" y="232"/>
      <point x="247.333" y="232" type="curve" smooth="yes"/>
      <point x="116.333" y="232"/>
      <point x="38" y="322.667"/>
    </contour>
    <contour>
      <point x="153.667" y="456.333" type="curve" smooth="yes"/>
      <point x="153.667" y="363.667"/>
      <point x="198.667" y="303"/>
      <point x="291.333" y="303" type="curve" smooth="yes"/>
      <point x="348" y="303"/>
      <point x="391" y="326.667"/>
      <point x="413.667" y="343.333" type="curve"/>
      <point x="413.667" y="408" type="line" smooth="yes"/>
      <point x="413.667" y="548.053"/>
      <point x="365.139" y="630.667"/>
      <point x="282.667" y="630.667" type="curve" smooth="yes"/>
      <point x="192.667" y="630.667"/>
      <point x="153.667" y="551.333"/>
    </contour>
  </outline>
</glyph>
<glyph name="colon" format="2">
  <advance width="292"/>
  <unicode hex="003A"/>
  <outline>
    <contour>
      <point x="61.6667" y="60.3333" type="curve" smooth="yes"/>
      <point x="61.6667" y="101.23"/>
      <point x="94.1834" y="133"/>
      <point x="134.333" y="133" type="curve" smooth="yes"/>
      <point x="175.333" y="133"/>
      <point x="207.333" y="101"/>
      <point x="207.333" y="60.3333" type="curve" smooth="yes"/>
      <point x="207.333" y="19.6667"/>
      <point x="175.333" y="-12"/>
      <point x="134.333" y="-12" type="curve" smooth="yes"/>
      <point x="93.6667" y="-12"/>
      <point x="61.6667" y="19.6667"/>
    </contour>
    <contour>
      <point x="61.6667" y="423.333" type="curve" smooth="yes"/>
      <point x="61.6667" y="464.23"/>
      <point x="94.1834" y="496"/>
      <point x="134.333" y="496" type="curve" smooth="yes"/>
      <point x="175.333" y="496"/>
      <point x="207.333" y="464"/>
      <point x="207.333" y="423.333" type="curve" smooth="yes"/>
      <point x="207.333" y="382.333"/>
      <point x="175.333" y="351"/>
      <point x="134.333" y="351" type="curve" smooth="yes"/>
      <point x="93.6667" y="351"/>
      <point x="61.6667" y="382.333"/>
    </contour>
  </outline>
</glyph>
<glyph name="less" format="2">
  <advance width="1000"/>
  <unicode hex="003C"/>
  <outline>
    <contour>
      <point x="200" y="269" type="line"/>
      <point x="200" y="331" type="line"/>
      <point x="800" y="561" type="line"/>
      <point x="800" y="499" type="line"/>
      <point x="264" y="300" type="line"/>
      <point x="800" y="101" type="line"/>
      <point x="800" y="39" type="line"/>
    </contour>
  </outline>
</glyph>
<glyph name="question" format="2">
  <advance width="497"/>
  <unicode hex="003F"/>
  <outline>
    <contour>
      <point x="48.6667" y="581.333" type="curve" smooth="yes"/>
      <point x="48.6667" y="644.196"/>
      <point x="116.645" y="687"/>
      <point x="217" y="687" type="curve" smooth="yes"/>
      <point x="344.562" y="687"/>
      <point x="430.667" y="613.349"/>
      <point x="430.667" y="504.333" type="curve" smooth="yes"/>
      <point x="430.667" y="384.498"/>
      <point x="319.2" y="325.137"/>
      <point x="231.667" y="288.333" type="curve"/>
      <point x="231.667" y="186" type="line"/>
      <point x="171.667" y="186" type="line"/>
      <point x="171.667" y="327" type="line"/>
      <point x="233.28" y="348.619"/>
      <point x="316.667" y="401.258"/>
      <point x="316.667" y="499.667" type="curve" smooth="yes"/>
      <point x="316.667" y="586.928"/>
      <point x="268.123" y="634"/>
      <point x="177.667" y="634" type="curve"/>
      <point x="135.333" y="526" type="line"/>
      <point x="132.258" y="525.231"/>
      <point x="127.075" y="524"/>
      <point x="120.667" y="524" type="curve" smooth="yes"/>
      <point x="74.4197" y="524"/>
      <point x="48.6667" y="544.477"/>
    </contour>
    <contour>
      <point x="137" y="55.6667" type="curve" smooth="yes"/>
      <point x="137" y="94.3333"/>
      <point x="165" y="123"/>
      <point x="203.333" y="123" type="curve" smooth="yes"/>
      <point x="242" y="123"/>
      <point x="271.667" y="92.6667"/>
      <point x="271.667" y="53.6667" type="curve" smooth="yes"/>
      <point x="271.667" y="16.1882"/>
      <point x="241.525" y="-12.6667"/>
      <point x="203" y="-12.6667" type="curve" smooth="yes"/>
      <point x="165.855" y="-12.6667"/>
      <point x="137" y="17.4754"/>
    </contour>
  </outline>
</glyph>
<glyph name="A" format="2">
  <advance width="677"/>
  <unicode hex="0041"/>
  <outline>
    <contour>
      <point x="5" y="0" type="line"/>
      <point x="5" y="45.6667" type="line"/>
      <point x="62.3333" y="57" type="line"/>
      <point x="292.333" y="687.667" type="line"/>
      <point x="380.333" y="687.667" type="line"/>
      <point x="609" y="73" type="line" smooth="yes"/>
      <point x="614.154" y="59.7247"/>
      <point x="617.036" y="55.8677"/>
      <point x="630.333" y="53.3333" type="curve" smooth="yes"/>
      <point x="673" y="45.6667" type="line"/>
      <point x="673" y="0" type="line"/>
      <point x="422.333" y="0" type="line"/>
      <point x="422.333" y="45.6667" type="line"/>
      <point x="480.667" y="52" type="line" smooth="yes"/>
      <point x="487.475" y="52.8652"/>
      <point x="491.333" y="57.7619"/>
      <point x="491.333" y="64.3333" type="curve"/>
      <point x="491.333" y="65.8611"/>
      <point x="490.808" y="68.0397"/>
      <point x="490.333" y="69.3333" type="curve"/>
      <point x="426.333" y="244" type="line"/>
      <point x="201" y="244" type="line"/>
      <point x="138.667" y="72.6667" type="line"/>
      <point x="138.035" y="70.9323"/>
      <point x="137.667" y="68.75"/>
      <point x="137.667" y="67" type="curve"/>
      <point x="137.667" y="58.2941"/>
      <point x="144.673" y="52.9429"/>
      <point x="152.667" y="52" type="curve" smooth="yes"/>
      <point x="210.667" y="45.6667" type="line"/>
      <point x="210.667" y="0" type="line"/>
    </contour>
    <contour>
      <point x="219.333" y="295" type="line"/>
      <point x="406" y="295" type="line"/>
      <point x="312" y="549.667" type="line"/>
    </contour>
  </outline>
</glyph>
<glyph name="bracketleft" format="2">
  <advance width="464"/>
  <unicode hex="005B"/>
  <outline>
    <contour>
      <point x="168.667" y="-132" type="line"/>
      <point x="168.667" y="708" type="line"/>
      <point x="423.333" y="708" type="line"/>
      <point x="423.333" y="658" type="line"/>
      <point x="268" y="658" type="line"/>
      <point x="268" y="-82" type="line"/>
      <point x="423.333" y="-82" type="line"/>
      <point x="423.333" y="-132" type="line"/>
    </contour>
  </outline>
</glyph>
<glyph name="bracketright" format="2">
  <advance width="477"/>
  <unicode hex="005D"/>
  <outline>
    <contour>
      <point x="41.3333" y="-82" type="line"/>
      <point x="197" y="-82" type="line"/>
      <point x="197" y="658" type="line"/>
      <point x="41.3333" y="658" type="line"/>
      <point x="41.3333" y="708" type="line"/>
      <point x="296.333" y="708" type="line"/>
      <point x="296.333" y="-132" type="line"/>
      <point x="41.3333" y="-132" type="line"/>
    </contour>
  </outline>
</glyph>
<glyph name="asciicircum" format="2">
  <advance width="331"/>
  <unicode hex="005E"/>
  <outline>
    <contour>
      <point x="0" y="551" type="line"/>
      <point x="121" y="720.667" type="line"/>
      <point x="211" y="720.667" type="line"/>
      <point x="332" y="551" type="line"/>
      <point x="264.333" y="551" type="line"/>
      <point x="166.667" y="648.667" type="line"/>
      <point x="68.3333" y="551" type="line"/>
    </contour>
  </outline>
</glyph>
<glyph name="underscore" format="2">
  <advance width="336"/>
  <unicode hex="005F"/>
  <outline>
    <contour>
      <point x="0" y="-85" type="line"/>
      <point x="336.667" y="-85" type="line"/>
      <point x="336.667" y="-154.667" type="line"/>
      <point x="0" y="-154.667" type="line"/>
    </contour>
  </outline>
</glyph>
<glyph name="b" format="2">
  <advance width="569"/>
  <unicode hex="0062"/>
  <outline>
    <contour>
      <point x="16" y="659.667" type="line"/>
      <point x="16" y="695.333" type="line"/>
      <point x="153" y="738" type="line"/>
      <point x="196.667" y="738" type="line"/>
      <point x="196.667" y="456.667" type="line"/>
      <point x="234.976" y="478.306"/>
      <point x="282.257" y="496.667"/>
      <point x="336.333" y="496.667" type="curve" smooth="yes"/>
      <point x="460" y="496.667"/>
      <point x="535.333" y="403"/>
      <point x="535.333" y="267.333" type="curve" smooth="yes"/>
      <point x="535.333" y="99.3333"/>
      <point x="427.333" y="0"/>
      <point x="247" y="0" type="curve" smooth="yes"/>
      <point x="90" y="0" type="line"/>
      <point x="90" y="659.667" type="line"/>
    </contour>
    <contour>
      <point x="196.667" y="53.6667" type="line"/>
      <point x="207.667" y="51.6667"/>
      <point x="223" y="49.6667"/>
      <point x="235.667" y="49.6667" type="curve" smooth="yes"/>
      <point x="360" y="49.6667"/>
      <point x="419" y="108.667"/>
      <point x="419" y="244" type="curve" smooth="yes"/>
      <point x="419" y="356"/>
      <point x="371" y="429.667"/>
      <point x="269" y="429.667" type="curve" smooth="yes"/>
      <point x="241" y="429.667"/>
      <point x="216.333" y="423.333"/>
      <point x="196.667" y="417" type="curve"/>
    </contour>
  </outline>
</glyph>
<glyph name="d" format="2">
  <advance width="578"/>
  <unicode hex="0064"/>
  <outline>
    <contour>
      <point x="33.3333" y="230.333" type="curve" smooth="yes"/>
      <point x="33.3333" y="392.333"/>
      <point x="134.667" y="496.667"/>
      <point x="290.333" y="496.667" type="curve" smooth="yes"/>
      <point x="322.333" y="496.667"/>
      <point x="358.333" y="491"/>
      <point x="383.333" y="484.667" type="curve"/>
      <point x="383.333" y="660.333" type="line"/>
      <point x="308" y="660.333" type="line"/>
      <point x="308" y="696" type="line"/>
      <point x="446" y="738.667" type="line"/>
      <point x="489.667" y="738.667" type="line"/>
      <point x="489.667" y="66.3333" type="line" smooth="yes"/>
      <point x="489.667" y="55"/>
      <point x="499" y="46.3333"/>
      <point x="511" y="45.3333" type="curve" smooth="yes"/>
      <point x="553.667" y="41.6667" type="line"/>
      <point x="553.667" y="0" type="line"/>
      <point x="383.333" y="0" type="line"/>
      <point x="383.333" y="56" type="line"/>
      <point x="343.333" y="23.3333"/>
      <point x="286.333" y="-11.3333"/>
      <point x="226.667" y="-11.3333" type="curve" smooth="yes"/>
      <point x="100.667" y="-11.3333"/>
      <point x="33.3333" y="98"/>
    </contour>
    <contour>
      <point x="148" y="248.667" type="curve" smooth="yes"/>
      <point x="148" y="144.333"/>
      <point x="191" y="64"/>
      <point x="288" y="64" type="curve" smooth="yes"/>
      <point x="326.667" y="64"/>
      <point x="358" y="79"/>
      <point x="383.333" y="94.3333" type="curve"/>
      <point x="383.333" y="428.667" type="line"/>
      <point x="362.667" y="437.333"/>
      <point x="331.667" y="444.667"/>
      <point x="302.333" y="444.667" type="curve" smooth="yes"/>
      <point x="197.333" y="444.667"/>
      <point x="148" y="357"/>
    </contour>
  </outline>
</glyph>
<glyph name="f" format="2">
  <advance width="333"/>
  <unicode hex="0066"/>
  <outline>
    <contour>
      <point x="26.3333" y="0" type="line"/>
      <point x="26.3333" y="41.6667" type="line"/>
      <point x="76" y="45.3333" type="line" smooth="yes"/>
      <point x="87.3333" y="46.3333"/>
      <point x="97.3333" y="55"/>
      <point x="97.3333" y="66.3333" type="curve" smooth="yes"/>
      <point x="97.3333" y="418" type="line"/>
      <point x="33" y="418" type="line"/>
      <point x="33" y="454.667" type="line"/>
      <point x="97" y="477.667" type="line"/>
      <point x="97" y="554.333"/>
      <point x="119.333" y="612"/>
      <point x="156.667" y="658" type="curve"/>
      <point x="190.667" y="702.333"/>
      <point x="242" y="736.667"/>
      <point x="310" y="736.667" type="curve" smooth="yes"/>
      <point x="352" y="736.667"/>
      <point x="400" y="717"/>
      <point x="400" y="670.667" type="curve" smooth="yes"/>
      <point x="400" y="644.071"/>
      <point x="381.981" y="623.861"/>
      <point x="348.667" y="613.333" type="curve"/>
      <point x="253.667" y="687.667" type="line"/>
      <point x="217.667" y="661.667"/>
      <point x="203.667" y="613"/>
      <point x="203.667" y="535.333" type="curve" smooth="yes"/>
      <point x="203.667" y="473.333" type="line"/>
      <point x="322.667" y="473.333" type="line"/>
      <point x="322.667" y="418" type="line"/>
      <point x="204" y="418" type="line"/>
      <point x="204" y="66.3333" type="line" smooth="yes"/>
      <point x="204" y="55"/>
      <point x="213.667" y="46"/>
      <point x="225.333" y="45.3333" type="curve" smooth="yes"/>
      <point x="285" y="41.6667" type="line"/>
      <point x="285" y="0" type="line"/>
    </contour>
  </outline>
</glyph>
<glyph name="k" format="2">
  <advance width="553"/>
  <unicode hex="006B"/>
  <outline>
    <contour>
      <point x="16" y="659.667" type="line"/>
      <point x="16" y="695.333" type="line"/>
      <point x="152" y="738" type="line"/>
      <point x="196.333" y="738" type="line"/>
      <point x="196.333" y="257.333" type="line"/>
      <point x="217" y="257.333" type="line"/>
      <point x="359.667" y="421.333" type="line"/>
      <point x="361.567" y="423.644"/>
      <point x="362.536" y="426.459"/>
      <point x="362.536" y="429.333" type="curve" smooth="yes"/>
      <point x="362.536" y="434.172"/>
      <point x="358.313" y="437.579"/>
      <point x="352" y="438.333" type="curve" smooth="yes"/>
      <point x="312" y="442.333" type="line"/>
      <point x="312" y="484" type="line"/>
      <point x="510.667" y="484" type="line"/>
      <point x="510.667" y="442.333" type="line"/>
      <point x="446" y="435" type="line"/>
      <point x="322.333" y="300.333" type="line"/>
      <point x="488.333" y="47.3333" type="line"/>
      <point x="543.333" y="41.6667" type="line"/>
      <point x="543.333" y="0" type="line"/>
      <point x="369.333" y="0" type="line"/>
      <point x="369.333" y="39.6667" type="line"/>
      <point x="249.333" y="226.667" type="line"/>
      <point x="196.333" y="226.667" type="line"/>
      <point x="196.333" y="66.3333" type="line" smooth="yes"/>
      <point x="196.333" y="54.3333"/>
      <point x="206" y="45.6667"/>
      <point x="217.667" y="44.6667" type="curve" smooth="yes"/>
      <point x="259.667" y="41.6667" type="line"/>
      <point x="259.667" y="0" type="line"/>
      <point x="22" y="0" type="line"/>
      <point x="22" y="41.6667" type="line"/>
      <point x="68.6667" y="44.6667" type="line" smooth="yes"/>
      <point x="80" y="45.6667"/>
      <point x="90" y="54.3333"/>
      <point x="90" y="66.3333" type="curve" smooth="yes"/>
      <point x="90" y="659.667" type="line"/>
    </contour>
  </outline>
</glyph>
<glyph name="r" format="2">
  <advance width="405"/>
  <unicode hex="0072"/>
  <outline>
    <contour>
      <point x="21" y="410" type="line"/>
      <point x="21" y="445.667" type="line"/>
      <point x="155.333" y="488" type="line"/>
      <point x="200" y="488" type="line"/>
      <point x="200" y="394.667" type="line"/>
      <point x="224.014" y="425.99"/>
      <point x="280.003" y="496"/>
      <point x="333" y="496" type="curve" smooth="yes"/>
      <point x="356.667" y="496"/>
      <point x="379.333" y="487.667"/>
      <point x="394.667" y="480" type="curve"/>
      <point x="394.667" y="363.333" type="line"/>
      <point x="346" y="363.333" type="line"/>
      <point x="334.667" y="377"/>
      <point x="318.667" y="394.667"/>
      <point x="288.333" y="394.667" type="curve" smooth="yes"/>
      <point x="246.884" y="394.667"/>
      <point x="216.255" y="366.457"/>
      <point x="200" y="347.333" type="curve"/>
      <point x="200" y="66" type="line" smooth="yes"/>
      <point x="200" y="54"/>
      <point x="209.651" y="44.6673"/>
      <point x="221.333" y="44.3333" type="curve" smooth="yes"/>
      <point x="286.667" y="41.3333" type="line"/>
      <point x="286.667" y="-0.333333" type="line"/>
      <point x="24.6667" y="-0.333333" type="line"/>
      <point x="24.6667" y="40.6667" type="line"/>
      <point x="72" y="44.3333" type="line" smooth="yes"/>
      <point x="83.3389" y="45.2657"/>
      <point x="93.3333" y="54"/>
      <point x="93.3333" y="66" type="curve" smooth="yes"/>
      <point x="93.3333" y="410" type="line"/>
    </contour>
  </outline>
</glyph>
<glyph name="v" format="2">
  <advance width="540"/>
  <unicode hex="0076"/>
  <outline>
    <contour>
      <point x="10" y="442.333" type="line"/>
      <point x="10" y="484" type="line"/>
      <point x="245" y="484" type="line"/>
      <point x="245" y="442.333" type="line"/>
      <point x="197.667" y="439.333" type="line"/>
      <point x="189.437" y="438.507"/>
      <point x="181.984" y="432.001"/>
      <point x="181.984" y="423.144" type="curve"/>
      <point x="181.984" y="421.295"/>
      <point x="182.306" y="419.345"/>
      <point x="183" y="417.333" type="curve" smooth="yes"/>
      <point x="290.333" y="116.333" type="line"/>
      <point x="408.667" y="417.333" type="line"/>
      <point x="409.353" y="419.272"/>
      <point x="409.667" y="421.166"/>
      <point x="409.667" y="422.977" type="curve"/>
      <point x="409.667" y="431.735"/>
      <point x="402.337" y="438.505"/>
      <point x="394.333" y="439.333" type="curve"/>
      <point x="350.333" y="442.333" type="line"/>
      <point x="350.333" y="484" type="line"/>
      <point x="531.667" y="484" type="line"/>
      <point x="531.667" y="442.333" type="line"/>
      <point x="477.333" y="436" type="line"/>
      <point x="303.333" y="0" type="line"/>
      <point x="227" y="0" type="line"/>
      <point x="66.3333" y="436.333" type="line"/>
    </contour>
  </outline>
</glyph>
<glyph name="x" format="2">
  <advance width="521"/>
  <unicode hex="0078"/>
  <outline>
    <contour>
      <point x="10" y="0" type="line"/>
      <point x="10" y="41.6667" type="line"/>
      <point x="68" y="49.6667" type="line"/>
      <point x="211" y="231.333" type="line"/>
      <point x="71" y="434" type="line"/>
      <point x="14" y="442.333" type="line"/>
      <point x="14" y="484" type="line"/>
      <point x="242.667" y="484" type="line"/>
      <point x="242.667" y="442.333" type="line"/>
      <point x="209.667" y="438" type="line" smooth="yes"/>
      <point x="203.62" y="437.257"/>
      <point x="197.927" y="432.337"/>
      <point x="197.927" y="426.291" type="curve" smooth="yes"/>
      <point x="197.927" y="424.241"/>
      <point x="198.594" y="422.067"/>
      <point x="200" y="420" type="curve" smooth="yes"/>
      <point x="276" y="313" type="line"/>
      <point x="360.667" y="420" type="line"/>
      <point x="362.717" y="422.283"/>
      <point x="363.625" y="424.886"/>
      <point x="363.625" y="427.39" type="curve" smooth="yes"/>
      <point x="363.625" y="432.564"/>
      <point x="359.702" y="437.326"/>
      <point x="354.333" y="438" type="curve" smooth="yes"/>
      <point x="315" y="442.333" type="line"/>
      <point x="315" y="484" type="line"/>
      <point x="497" y="484" type="line"/>
      <point x="497" y="442.333" type="line"/>
      <point x="442.333" y="434" type="line"/>
      <point x="308.667" y="265.333" type="line"/>
      <point x="458.667" y="49.6667" type="line"/>
      <point x="512.333" y="41.6667" type="line"/>
      <point x="512.333" y="0" type="line"/>
      <point x="284.333" y="0" type="line"/>
      <point x="284.333" y="41.6667" type="line"/>
      <point x="320" y="45.6667" type="line" smooth="yes"/>
      <point x="325.829" y="46.4024"/>
      <point x="330.721" y="51.316"/>
      <point x="330.721" y="57.0241" type="curve" smooth="yes"/>
      <point x="330.721" y="59.0572"/>
      <point x="330.085" y="61.2114"/>
      <point x="328.667" y="63.3333" type="curve" smooth="yes"/>
      <point x="245" y="184.667" type="line"/>
      <point x="150.333" y="63.3333" type="line"/>
      <point x="148.307" y="61.1911"/>
      <point x="147.381" y="58.5983"/>
      <point x="147.381" y="56.0643" type="curve" smooth="yes"/>
      <point x="147.381" y="51.0923"/>
      <point x="150.934" y="46.3289"/>
      <point x="156.667" y="45.6667" type="curve"/>
      <point x="201.667" y="41.6667" type="line"/>
      <point x="201.667" y="0" type="line"/>
    </contour>
  </outline>
</glyph>
<glyph name="z" format="2">
  <advance width="471"/>
  <unicode hex="007A"/>
  <outline>
    <contour>
      <point x="33.3333" y="0" type="line"/>
      <point x="33.3333" y="57" type="line"/>
      <point x="296" y="433.667" type="line"/>
      <point x="129.667" y="433.667" type="line" smooth="yes"/>
      <point x="119.667" y="433.667"/>
      <point x="110.667" y="421.667"/>
      <point x="110" y="412.667" type="curve"/>
      <point x="101" y="337.667" type="line"/>
      <point x="43.3333" y="337.667" type="line"/>
      <point x="43.3333" y="484" type="line"/>
      <point x="425" y="484" type="line"/>
      <point x="425" y="438" type="line"/>
      <point x="155" y="51.6667" type="line"/>
      <point x="347" y="51.6667" type="line" smooth="yes"/>
      <point x="357.333" y="51.6667"/>
      <point x="366.333" y="66.3333"/>
      <point x="368.333" y="75.6667" type="curve"/>
      <point x="379.333" y="156.667" type="line"/>
      <point x="438.333" y="156.667" type="line"/>
      <point x="438.333" y="0" type="line"/>
    </contour>
  </outline>
</glyph>
<glyph name="asciitilde" format="2">
  <advance width="833"/>
  <unicode hex="007E"/>
  <outline>
    <contour>
      <point x="85.3333" y="217" type="curve"/>
      <point x="85.3333" y="292" type="line"/>
      <point x="147.149" y="336.566"/>
      <point x="208.691" y="365"/>
      <point x="277.667" y="365" type="curve" smooth="yes"/>
      <point x="331" y="365"/>
      <point x="379.531" y="347.934"/>
      <point x="424" y="330.667" type="curve" smooth="yes"/>
      <point x="463.927" y="315.191"/>
      <point x="511.667" y="298"/>
      <point x="559" y="298" type="curve" smooth="yes"/>
      <point x="623.997" y="298"/>
      <point x="676.359" y="327.077"/>
      <point x="747" y="379" type="curve"/>
      <point x="747" y="304" type="line"/>
      <point x="684.479" y="261.009"/>
      <point x="631.965" y="232.667"/>
      <point x="556.667" y="232.667" type="curve" smooth="yes"/>
      <point x="505.333" y="232.667"/>
      <point x="459.067" y="248.951"/>
      <point x="416.333" y="266.333" type="curve" smooth="yes"/>
      <point x="372.241" y="284.273"/>
      <point x="324.667" y="299.667"/>
      <point x="271" y="299.667" type="curve" smooth="yes"/>
      <point x="209.22" y="299.667"/>
      <point x="145.277" y="262.452"/>
    </contour>
  </outline>
</glyph>
<glyph name="currency" format="2">
  <advance width="609"/>
  <unicode hex="00A4"/>
  <outline>
    <contour>
      <point x="41.3333" y="196" type="line"/>
      <point x="144.333" y="299" type="line"/>
      <point x="117.333" y="332.333"/>
      <point x="100.333" y="376"/>
      <point x="100.333" y="427" type="curve" smooth="yes"/>
      <point x="100.333" y="480.333"/>
      <point x="117" y="527.333"/>
      <point x="146.333" y="559" type="curve"/>
      <point x="41.3333" y="664" type="line"/>
      <point x="77.3333" y="700" type="line"/>
      <point x="182.333" y="595" type="line"/>
      <point x="215" y="622"/>
      <point x="261.667" y="639"/>
      <point x="312.667" y="639" type="curve" smooth="yes"/>
      <point x="363.333" y="639"/>
      <point x="407.333" y="621"/>
      <point x="439.333" y="594" type="curve"/>
      <point x="545.333" y="700" type="line"/>
      <point x="581.333" y="664" type="line"/>
      <point x="477.333" y="560" type="line"/>
      <point x="503.333" y="528.333"/>
      <point x="522.333" y="478.333"/>
      <point x="522.333" y="428" type="curve" smooth="yes"/>
      <point x="522.333" y="375.667"/>
      <point x="506.076" y="332.333"/>
      <point x="477.667" y="299" type="curve"/>
      <point x="580.667" y="196" type="line"/>
      <point x="544.667" y="160" type="line"/>
      <point x="441.667" y="263" type="line"/>
      <point x="409" y="234.667"/>
      <point x="364" y="216"/>
      <point x="312.667" y="216" type="curve" smooth="yes"/>
      <point x="258" y="216"/>
      <point x="214.667" y="233.667"/>
      <point x="180.333" y="263" type="curve"/>
      <point x="77.3333" y="160" type="line"/>
    </contour>
    <contour>
      <point x="156.667" y="427" type="curve" smooth="yes"/>
      <point x="156.667" y="338.471"/>
      <point x="224.181" y="273"/>
      <point x="312" y="273" type="curve" smooth="yes"/>
      <point x="396.804" y="273"/>
      <point x="465.333" y="343.502"/>
      <point x="465.333" y="428" type="curve" smooth="yes"/>
      <point x="465.333" y="515.045"/>
      <point x="399.263" y="582"/>
      <point x="312.667" y="582" type="curve" smooth="yes"/>
      <point x="224.036" y="582"/>
      <point x="156.667" y="515.531"/>
    </contour>
  </outline>
</glyph>
<glyph name="section" format="2">
  <advance width="500"/>
  <unicode hex="00A7"/>
  <outline>
    <contour>
      <point x="54" y="297.333" type="curve" smooth="yes"/>
      <point x="54" y="393.667"/>
      <point x="123" y="433"/>
      <point x="171.667" y="454.333" type="curve"/>
      <point x="131" y="474.333"/>
      <point x="72.6667" y="509"/>
      <point x="72.6667" y="583.667" type="curve" smooth="yes"/>
      <point x="72.6667" y="688.667"/>
      <point x="160" y="730"/>
      <point x="270" y="730" type="curve" smooth="yes"/>
      <point x="335.667" y="730"/>
      <point x="392.333" y="715.667"/>
      <point x="416.333" y="705.667" type="curve"/>
      <point x="416.333" y="573" type="line"/>
      <point x="366.667" y="573" type="line"/>
      <point x="356.333" y="654.333" type="line"/>
      <point x="337" y="666"/>
      <point x="307.333" y="682.667"/>
      <point x="262.333" y="682.667" type="curve" smooth="yes"/>
      <point x="211.033" y="682.667"/>
      <point x="166" y="653.873"/>
      <point x="166" y="599.667" type="curve" smooth="yes"/>
      <point x="166" y="570.909"/>
      <point x="187.902" y="545.819"/>
      <point x="219.333" y="529.667" type="curve" smooth="yes"/>
      <point x="281.667" y="498.844" type="line" smooth="yes"/>
      <point x="377.952" y="451.287"/>
      <point x="446.667" y="393.604"/>
      <point x="446.667" y="316.667" type="curve" smooth="yes"/>
      <point x="446.667" y="221.118"/>
      <point x="371.394" y="172.024"/>
      <point x="326.333" y="155" type="curve"/>
      <point x="367.593" y="135.945"/>
      <point x="428.667" y="98.5433"/>
      <point x="428.667" y="23.6667" type="curve" smooth="yes"/>
      <point x="428.667" y="-82.7241"/>
      <point x="335.213" y="-130.333"/>
      <point x="234.667" y="-130.333" type="curve" smooth="yes"/>
      <point x="163.667" y="-130.333"/>
      <point x="104.333" y="-110"/>
      <point x="77" y="-98" type="curve"/>
      <point x="77" y="35.6667" type="line"/>
      <point x="130.667" y="35.6667" type="line"/>
      <point x="145" y="-55.3333" type="line"/>
      <point x="168.333" y="-70.6667"/>
      <point x="207.333" y="-80.3333"/>
      <point x="238.667" y="-80.3333" type="curve" smooth="yes"/>
      <point x="292.667" y="-80.3333"/>
      <point x="338.667" y="-53.3333"/>
      <point x="338.667" y="-0.666667" type="curve" smooth="yes"/>
      <point x="338.667" y="36.2422"/>
      <point x="309.585" y="63.5791"/>
      <point x="255.333" y="92.5081" type="curve" smooth="yes"/>
      <point x="209.667" y="115.585" type="line" smooth="yes"/>
      <point x="109.411" y="166.342"/>
      <point x="54" y="214.208"/>
    </contour>
    <contour>
      <point x="133.667" y="324.667" type="curve" smooth="yes"/>
      <point x="133.667" y="289"/>
      <point x="149.085" y="265.114"/>
      <point x="171" y="244.667" type="curve" smooth="yes"/>
      <point x="201.333" y="216"/>
      <point x="241.333" y="196.667"/>
      <point x="281" y="179.667" type="curve"/>
      <point x="312.879" y="196.009"/>
      <point x="364" y="238.667"/>
      <point x="364" y="290.667" type="curve" smooth="yes"/>
      <point x="364" y="322.018"/>
      <point x="343.697" y="355.304"/>
      <point x="315" y="378.333" type="curve" smooth="yes"/>
      <point x="288.333" y="400"/>
      <point x="254.667" y="417.667"/>
      <point x="221.333" y="431" type="curve"/>
      <point x="184.895" y="418.68"/>
      <point x="133.667" y="384.148"/>
    </contour>
  </outline>
</glyph>
<glyph name="dieresis" format="2">
  <advance width="326"/>
  <unicode hex="00A8"/>
  <outline>
    <contour>
      <point x="0" y="644.667" type="curve" smooth="yes"/>
      <point x="0" y="678"/>
      <point x="26.3333" y="705"/>
      <point x="59.6667" y="705" type="curve" smooth="yes"/>
      <point x="93" y="705"/>
      <point x="118.667" y="678"/>
      <point x="118.667" y="645.333" type="curve" smooth="yes"/>
      <point x="118.667" y="612"/>
      <point x="93" y="585"/>
      <point x="59.6667" y="585" type="curve" smooth="yes"/>
      <point x="26.3333" y="585"/>
      <point x="0" y="611.333"/>
    </contour>
    <contour>
      <point x="208" y="645.333" type="curve" smooth="yes"/>
      <point x="208" y="678"/>
      <point x="235.667" y="705"/>
      <point x="268.333" y="705" type="curve" smooth="yes"/>
      <point x="301" y="705"/>
      <point x="326.667" y="678.667"/>
      <point x="326.667" y="645.333" type="curve" smooth="yes"/>
      <point x="326.667" y="612"/>
      <point x="301.667" y="585"/>
      <point x="268.333" y="585" type="curve" smooth="yes"/>
      <point x="234.333" y="585"/>
      <point x="208" y="611.333"/>
    </contour>
  </outline>
</glyph>
<glyph name="ordfeminine" format="2">
  <advance width="346"/>
  <unicode hex="00AA"/>
  <outline>
    <contour>
      <point x="25.6667" y="454.333" type="curve" smooth="yes"/>
      <point x="25.6667" y="503.837"/>
      <point x="59.2105" y="522.814"/>
      <point x="117.667" y="541" type="curve" smooth="yes"/>
      <point x="143.333" y="549"/>
      <point x="177.333" y="557.667"/>
      <point x="220.667" y="566.667" type="curve"/>
      <point x="220.667" y="591.667" type="line" smooth="yes"/>
      <point x="220.667" y="626.667"/>
      <point x="205.333" y="649.667"/>
      <point x="160.333" y="649.667" type="curve" smooth="yes"/>
      <point x="142.667" y="649.667"/>
      <point x="128" y="646.667"/>
      <point x="119" y="643.667" type="curve"/>
      <point x="119" y="590" type="line"/>
      <point x="65.3333" y="590" type="line" smooth="yes"/>
      <point x="54.3333" y="590"/>
      <point x="39.6667" y="592"/>
      <point x="39.6667" y="608.667" type="curve" smooth="yes"/>
      <point x="39.6667" y="661.333"/>
      <point x="116.333" y="679.667"/>
      <point x="178" y="679.667" type="curve" smooth="yes"/>
      <point x="248.534" y="679.667"/>
      <point x="290" y="657.978"/>
      <point x="290" y="584.333" type="curve" smooth="yes"/>
      <point x="290" y="421" type="line" smooth="yes"/>
      <point x="290" y="413.667"/>
      <point x="296.641" y="407.918"/>
      <point x="303.333" y="407.667" type="curve"/>
      <point x="334.333" y="405.667" type="line"/>
      <point x="334.333" y="381" type="line"/>
      <point x="229.667" y="381" type="line"/>
      <point x="221" y="414.333" type="line"/>
      <point x="202.066" y="401.424"/>
      <point x="159.629" y="374.667"/>
      <point x="109.667" y="374.667" type="curve" smooth="yes"/>
      <point x="61" y="374.667"/>
      <point x="25.6667" y="405"/>
    </contour>
    <contour>
      <point x="36.6667" y="303" type="line"/>
      <point x="36.6667" y="334.667" type="line"/>
      <point x="330.333" y="334.667" type="line"/>
      <point x="330.333" y="303" type="line"/>
    </contour>
    <contour>
      <point x="98.3333" y="463.333" type="curve" smooth="yes"/>
      <point x="98.3333" y="436.256"/>
      <point x="117.603" y="415.333"/>
      <point x="146.333" y="415.333" type="curve" smooth="yes"/>
      <point x="177.349" y="415.333"/>
      <point x="205.149" y="429.268"/>
      <point x="219.667" y="438" type="curve"/>
      <point x="219.667" y="540.667" type="line"/>
      <point x="174.333" y="531.333"/>
      <point x="141.913" y="522.449"/>
      <point x="118.667" y="505.333" type="curve" smooth="yes"/>
      <point x="104" y="494.492"/>
      <point x="98.3333" y="483.333"/>
    </contour>
  </outline>
</glyph>
<glyph name="degree" format="2">
  <advance width="319"/>
  <unicode hex="00B0"/>
  <outline>
    <contour>
      <point x="50" y="608.667" type="curve" smooth="yes"/>
      <point x="50" y="670.672"/>
      <point x="97.1999" y="719.333"/>
      <point x="159.333" y="719.333" type="curve" smooth="yes"/>
      <point x="221.339" y="719.333"/>
      <point x="270" y="672.133"/>
      <point x="270" y="610" type="curve" smooth="yes"/>
      <point x="270" y="547.995"/>
      <point x="222.8" y="499.333"/>
      <point x="160.667" y="499.333" type="curve" smooth="yes"/>
      <point x="98.6614" y="499.333"/>
      <point x="50" y="546.533"/>
    </contour>
    <contour>
      <point x="90" y="610" type="curve" smooth="yes"/>
      <point x="90" y="570.333"/>
      <point x="120.333" y="540"/>
      <point x="160" y="540" type="curve" smooth="yes"/>
      <point x="199.667" y="540"/>
      <point x="230" y="570.333"/>
      <point x="230" y="610" type="curve" smooth="yes"/>
      <point x="230" y="649.667"/>
      <point x="199.667" y="680"/>
      <point x="160" y="680" type="curve" smooth="yes"/>
      <point x="120.333" y="680"/>
      <point x="90" y="649.667"/>
    </contour>
  </outline>
</glyph>
<glyph name="uni00B2" format="2">
  <advance width="384"/>
  <unicode hex="00B2"/>
  <outline>
    <contour>
      <point x="30.3333" y="402.333" type="line"/>
      <point x="30.3333" y="449.667" type="line"/>
      <point x="66.1244" y="472.667" type="line" smooth="yes"/>
      <point x="140.569" y="521.473"/>
      <point x="260" y="610.589"/>
      <point x="260" y="701" type="curve" smooth="yes"/>
      <point x="260" y="755.333"/>
      <point x="223.333" y="789.667"/>
      <point x="169.333" y="789.667" type="curve" smooth="yes"/>
      <point x="151.667" y="789.667"/>
      <point x="132" y="784.333"/>
      <point x="120.333" y="777.667" type="curve"/>
      <point x="120.333" y="704.333" type="line"/>
      <point x="112" y="697.333"/>
      <point x="99.3333" y="692.333"/>
      <point x="82" y="692.333" type="curve" smooth="yes"/>
      <point x="55.6667" y="692.333"/>
      <point x="37.3333" y="708.389"/>
      <point x="37.3333" y="735" type="curve" smooth="yes"/>
      <point x="37.3333" y="805.552"/>
      <point x="127.773" y="828.333"/>
      <point x="191" y="828.333" type="curve" smooth="yes"/>
      <point x="274.177" y="828.333"/>
      <point x="342.667" y="787.155"/>
      <point x="342.667" y="709.333" type="curve" smooth="yes"/>
      <point x="342.667" y="610.252"/>
      <point x="237.865" y="537.189"/>
      <point x="143.012" y="482.667" type="curve" smooth="yes"/>
      <point x="108.333" y="463.333" type="line"/>
      <point x="304.333" y="463.333" type="line"/>
      <point x="316.667" y="514.667" type="line"/>
      <point x="354" y="514.667" type="line"/>
      <point x="354" y="402.333" type="line"/>
    </contour>
  </outline>
</glyph>
<glyph name="uni00B3" format="2">
  <advance width="386"/>
  <unicode hex="00B3"/>
  <outline>
    <contour>
      <point x="31" y="466.667" type="curve" smooth="yes"/>
      <point x="31" y="492.333"/>
      <point x="52" y="504.333"/>
      <point x="74.3333" y="504.333" type="curve" smooth="yes"/>
      <point x="83.3333" y="504.333"/>
      <point x="92.3333" y="502.667"/>
      <point x="99.6667" y="499.667" type="curve"/>
      <point x="120" y="440" type="line"/>
      <point x="136.667" y="432"/>
      <point x="155.333" y="427.667"/>
      <point x="176" y="427.667" type="curve" smooth="yes"/>
      <point x="230.168" y="427.667"/>
      <point x="276" y="466.055"/>
      <point x="276" y="519" type="curve" smooth="yes"/>
      <point x="276" y="568.333"/>
      <point x="234.333" y="594.667"/>
      <point x="176.333" y="594.667" type="curve" smooth="yes"/>
      <point x="159" y="594.667"/>
      <point x="142" y="593"/>
      <point x="133.333" y="591.667" type="curve"/>
      <point x="133.333" y="636" type="line"/>
      <point x="138.667" y="635"/>
      <point x="147.333" y="635"/>
      <point x="151.667" y="635" type="curve" smooth="yes"/>
      <point x="207.266" y="635"/>
      <point x="260.333" y="655.358"/>
      <point x="260.333" y="712.333" type="curve" smooth="yes"/>
      <point x="260.333" y="758.667"/>
      <point x="222" y="788.333"/>
      <point x="172.333" y="788.333" type="curve" smooth="yes"/>
      <point x="151.667" y="788.333"/>
      <point x="129.667" y="781.667"/>
      <point x="119.667" y="776.333" type="curve"/>
      <point x="119.667" y="709.333" type="line"/>
      <point x="111.667" y="703.667"/>
      <point x="97.3333" y="700.667"/>
      <point x="86" y="700.667" type="curve" smooth="yes"/>
      <point x="60.6667" y="700.667"/>
      <point x="42" y="714"/>
      <point x="42" y="739.667" type="curve" smooth="yes"/>
      <point x="42" y="797.755"/>
      <point x="121.588" y="826.333"/>
      <point x="194" y="826.333" type="curve" smooth="yes"/>
      <point x="267.435" y="826.333"/>
      <point x="339" y="792.829"/>
      <point x="339" y="720.667" type="curve" smooth="yes"/>
      <point x="339" y="663.663"/>
      <point x="283.681" y="627.429"/>
      <point x="225" y="617.667" type="curve"/>
      <point x="225" y="621.667" type="line"/>
      <point x="294.946" y="619.964"/>
      <point x="356.667" y="583.487"/>
      <point x="356.667" y="519.667" type="curve" smooth="yes"/>
      <point x="356.667" y="435.007"/>
      <point x="265.439" y="391.333"/>
      <point x="172.333" y="391.333" type="curve" smooth="yes"/>
      <point x="103.313" y="391.333"/>
      <point x="31" y="418.323"/>
    </contour>
  </outline>
</glyph>
<glyph name="mu" format="2">
  <advance width="558"/>
  <unicode hex="00B5"/>
  <outline>
    <contour>
      <point x="58" y="-165.333" type="curve" smooth="yes"/>
      <point x="58" y="-129.991"/>
      <point x="63.5389" y="-104.977"/>
      <point x="70.537" y="-77.2473" type="curve" smooth="yes"/>
      <point x="79.9771" y="-41.3888"/>
      <point x="90" y="0.615402"/>
      <point x="90" y="89.3333" type="curve" smooth="yes"/>
      <point x="90" y="484" type="line"/>
      <point x="194" y="484" type="line"/>
      <point x="194" y="185.667" type="line" smooth="yes"/>
      <point x="194" y="119.993"/>
      <point x="200.937" y="54.3333"/>
      <point x="260.333" y="54.3333" type="curve" smooth="yes"/>
      <point x="305.819" y="54.3333"/>
      <point x="337.541" y="86.2888"/>
      <point x="364" y="122.333" type="curve"/>
      <point x="364" y="484.667" type="line"/>
      <point x="468.667" y="484.667" type="line"/>
      <point x="468.667" y="101.333" type="line" smooth="yes"/>
      <point x="468.667" y="77.5605"/>
      <point x="474.431" y="48.3333"/>
      <point x="499" y="48.3333" type="curve" smooth="yes"/>
      <point x="525.016" y="48.3333"/>
      <point x="533.191" y="76.3704"/>
      <point x="539" y="112" type="curve"/>
      <point x="563" y="112" type="line"/>
      <point x="558.333" y="38.3333"/>
      <point x="527.333" y="-11.3333"/>
      <point x="455.667" y="-11.3333" type="curve" smooth="yes"/>
      <point x="405.333" y="-11.3333"/>
      <point x="377.667" y="28"/>
      <point x="366.333" y="80" type="curve"/>
      <point x="331.554" y="31.6693"/>
      <point x="289.833" y="-12"/>
      <point x="221.333" y="-12" type="curve" smooth="yes"/>
      <point x="187.667" y="-12"/>
      <point x="152.667" y="3.33333"/>
      <point x="137" y="30.3333" type="curve"/>
      <point x="137" y="7" type="line" smooth="yes"/>
      <point x="137" y="-29.4303"/>
      <point x="144.443" y="-61.6495"/>
      <point x="152.497" y="-90.6105" type="curve" smooth="yes"/>
      <point x="159.054" y="-115.259"/>
      <point x="164" y="-139.283"/>
      <point x="164" y="-163.333" type="curve" smooth="yes"/>
      <point x="164" y="-195.333"/>
      <point x="138.333" y="-222"/>
      <point x="109" y="-222" type="curve" smooth="yes"/>
      <point x="82" y="-222"/>
      <point x="58" y="-195.667"/>
    </contour>
  </outline>
</glyph>
<glyph name="cedilla" format="2">
  <advance width="235"/>
  <unicode hex="00B8"/>
  <outline>
    <contour>
      <point x="40.6667" y="-196.667" type="curve"/>
      <point x="40.6667" y="-154" type="line"/>
      <point x="52.6667" y="-156.667"/>
      <point x="80.3333" y="-162"/>
      <point x="102.333" y="-162" type="curve" smooth="yes"/>
      <point x="132.333" y="-162"/>
      <point x="164.667" y="-154"/>
      <point x="164.667" y="-123.333" type="curve" smooth="yes"/>
      <point x="164.667" y="-98"/>
      <point x="147" y="-87.3333"/>
      <point x="125.333" y="-87.3333" type="curve" smooth="yes"/>
      <point x="116.333" y="-87.3333"/>
      <point x="102.667" y="-89.3333"/>
      <point x="96" y="-92" type="curve"/>
      <point x="96" y="25" type="line"/>
      <point x="139.333" y="25" type="line"/>
      <point x="139.333" y="-41" type="line"/>
      <point x="145.667" y="-38.6667"/>
      <point x="150.667" y="-37.6667"/>
      <point x="159.333" y="-37.6667" type="curve" smooth="yes"/>
      <point x="205.333" y="-37.6667"/>
      <point x="235.333" y="-62"/>
      <point x="235.333" y="-110.333" type="curve" smooth="yes"/>
      <point x="235.333" y="-175.333"/>
      <point x="184.667" y="-207"/>
      <point x="117" y="-207" type="curve" smooth="yes"/>
      <point x="85.3333" y="-207"/>
      <point x="54.6667" y="-200.667"/>
    </contour>
  </outline>
</glyph>
<glyph name="guillemotright" format="2">
  <advance width="444"/>
  <unicode hex="00BB"/>
  <outline>
    <contour>
      <point x="15" y="0" type="line"/>
      <point x="139" y="241" type="line"/>
      <point x="15" y="482" type="line"/>
      <point x="71.3333" y="482" type="line"/>
      <point x="232.333" y="267" type="line"/>
      <point x="232.333" y="216" type="line"/>
      <point x="71.3333" y="0" type="line"/>
    </contour>
    <contour>
      <point x="200" y="0" type="line"/>
      <point x="325" y="241" type="line"/>
      <point x="200" y="482" type="line"/>
      <point x="257.333" y="482" type="line"/>
      <point x="418.333" y="267" type="line"/>
      <point x="418.333" y="216" type="line"/>
      <point x="257.333" y="0" type="line"/>
    </contour>
  </outline>
</glyph>
<glyph name="threequarters" format="2">
  <advance width="886"/>
  <unicode hex="00BE"/>
  <outline>
    <contour>
      <point x="36.6667" y="359.333" type="curve" smooth="yes"/>
      <point x="36.6667" y="384.667"/>
      <point x="56.3333" y="396"/>
      <point x="77.6667" y="396" type="curve" smooth="yes"/>
      <point x="86.3333" y="396"/>
      <point x="97.8824" y="393.294"/>
      <point x="101.667" y="388.667" type="curve"/>
      <point x="122" y="332.667" type="line"/>
      <point x="137.333" y="325.333"/>
      <point x="150" y="321.333"/>
      <point x="172" y="321.333" type="curve" smooth="yes"/>
      <point x="223.701" y="321.333"/>
      <point x="264.667" y="357.975"/>
      <point x="264.667" y="410.333" type="curve" smooth="yes"/>
      <point x="264.667" y="458.333"/>
      <point x="227.333" y="484"/>
      <point x="172.667" y="484" type="curve" smooth="yes"/>
      <point x="157.623" y="484"/>
      <point x="141.755" y="482.454"/>
      <point x="134.667" y="481.667" type="curve"/>
      <point x="134.667" y="521.333" type="line"/>
      <point x="139.492" y="521.333"/>
      <point x="148.778" y="521.333"/>
      <point x="153" y="521.333" type="curve" smooth="yes"/>
      <point x="205" y="521.333"/>
      <point x="249.333" y="541"/>
      <point x="249.333" y="596.667" type="curve" smooth="yes"/>
      <point x="249.333" y="641.333"/>
      <point x="216" y="670.333"/>
      <point x="168" y="670.333" type="curve" smooth="yes"/>
      <point x="149.333" y="670.333"/>
      <point x="128.667" y="664.667"/>
      <point x="120" y="659.333" type="curve"/>
      <point x="120" y="594.667" type="line"/>
      <point x="112" y="590.333"/>
      <point x="101.333" y="586.667"/>
      <point x="89.6667" y="586.667" type="curve" smooth="yes"/>
      <point x="66" y="586.667"/>
      <point x="47.3333" y="599.333"/>
      <point x="47.3333" y="623.667" type="curve" smooth="yes"/>
      <point x="47.3333" y="679.741"/>
      <point x="120.307" y="705.667"/>
      <point x="189.333" y="705.667" type="curve" smooth="yes"/>
      <point x="264.373" y="705.667"/>
      <point x="323" y="676.791"/>
      <point x="323" y="602.333" type="curve" smooth="yes"/>
      <point x="323" y="543.398"/>
      <point x="262.254" y="504.333"/>
      <point x="212.667" y="504.333" type="curve"/>
      <point x="212.667" y="508.333" type="line"/>
      <point x="266.833" y="508.333"/>
      <point x="339.667" y="478.091"/>
      <point x="339.667" y="410.333" type="curve" smooth="yes"/>
      <point x="339.667" y="328.899"/>
      <point x="256.578" y="288.333"/>
      <point x="168.667" y="288.333" type="curve" smooth="yes"/>
      <point x="102.643" y="288.333"/>
      <point x="36.6667" y="311.811"/>
    </contour>
    <contour>
      <point x="200" y="0" type="line"/>
      <point x="643.333" y="697" type="line"/>
      <point x="709.667" y="697" type="line"/>
      <point x="266.333" y="0" type="line"/>
    </contour>
    <contour>
      <point x="503.333" y="110.333" type="line"/>
      <point x="503.333" y="155.333" type="line"/>
      <point x="721" y="404.667" type="line"/>
      <point x="773.667" y="404.667" type="line"/>
      <point x="773.667" y="154" type="line"/>
      <point x="847.333" y="154" type="line"/>
      <point x="847.333" y="110.333" type="line"/>
      <point x="773.667" y="110.333" type="line"/>
      <point x="773.667" y="-21.3333" type="line"/>
      <point x="708.667" y="-21.3333" type="line"/>
      <point x="708.667" y="110.333" type="line"/>
    </contour>
    <contour>
      <point x="560.667" y="155.333" type="line"/>
      <point x="710.667" y="155.333" type="line"/>
      <point x="710.667" y="330.333" type="line"/>
    </contour>
  </outline>
</glyph>
<glyph name="Atilde" format="2">
  <advance width="677"/>
  <unicode hex="00C3"/>
  <outline>
    <contour>
      <point x="5" y="0" type="line"/>
      <point x="5" y="45.6667" type="line"/>
      <point x="62.3333" y="57" type="line"/>
      <point x="292.333" y="687.667" type="line"/>
      <point x="380.333" y="687.667" type="line"/>
      <point x="609" y="73" type="line" smooth="yes"/>
      <point x="614.154" y="59.7246"/>
      <point x="617.036" y="55.8679"/>
      <point x="630.333" y="53.3333" type="curve" smooth="yes"/>
      <point x="673" y="45.6667" type="line"/>
      <point x="673" y="0" type="line"/>
      <point x="422.333" y="0" type="line"/>
      <point x="422.333" y="45.6667" type="line"/>
      <point x="480.667" y="52" type="line" smooth="yes"/>
      <point x="487.475" y="52.8653"/>
      <point x="491.333" y="57.7617"/>
      <point x="491.333" y="64.3333" type="curve"/>
      <point x="491.333" y="65.778"/>
      <point x="490.931" y="67.9661"/>
      <point x="490.333" y="69" type="curve"/>
      <point x="426.333" y="244" type="line"/>
      <point x="201" y="244" type="line"/>
      <point x="138.667" y="72.3333" type="line"/>
      <point x="138.087" y="71.3281"/>
      <point x="137.667" y="68.6667"/>
      <point x="137.667" y="67" type="curve"/>
      <point x="137.667" y="58.2943"/>
      <point x="144.673" y="52.9427"/>
      <point x="152.667" y="52" type="curve" smooth="yes"/>
      <point x="210.667" y="45.6667" type="line"/>
      <point x="210.667" y="0" type="line"/>
    </contour>
    <contour>
      <point x="162" y="747.667" type="line"/>
      <point x="177.667" y="807.333"/>
      <point x="209.667" y="862.333"/>
      <point x="278.667" y="862.333" type="curve" smooth="yes"/>
      <point x="305.333" y="862.333"/>
      <point x="323.333" y="851.333"/>
      <point x="341.667" y="840" type="curve" smooth="yes"/>
      <point x="362" y="827"/>
      <point x="383.333" y="814.667"/>
      <point x="415.333" y="814.667" type="curve" smooth="yes"/>
      <point x="441" y="814.667"/>
      <point x="462.333" y="836.333"/>
      <point x="465.333" y="862.333" type="curve"/>
      <point x="510" y="862.333" type="line"/>
      <point x="494.333" y="802.667"/>
      <point x="462" y="747.667"/>
      <point x="392.667" y="747.667" type="curve" smooth="yes"/>
      <point x="366.333" y="747.667"/>
      <point x="347.667" y="758.667"/>
      <point x="329" y="770.667" type="curve" smooth="yes"/>
      <point x="309" y="783"/>
      <point x="286.667" y="795.667"/>
      <point x="256" y="795.667" type="curve" smooth="yes"/>
      <point x="230" y="795.667"/>
      <point x="209.667" y="773.333"/>
      <point x="206.667" y="747.667" type="curve"/>
    </contour>
    <contour>
      <point x="219.333" y="295" type="line"/>
      <point x="406" y="295" type="line"/>
      <point x="312" y="549.667" type="line"/>
    </contour>
  </outline>
</glyph>
<glyph name="Ccedilla" format="2">
  <advance width="629"/>
  <unicode hex="00C7"/>
  <outline>
    <contour>
      <point x="38.3333" y="336" type="curve" smooth="yes"/>
      <point x="38.3333" y="545.202"/>
      <point x="180.201" y="687"/>
      <point x="389" y="687" type="curve" smooth="yes"/>
      <point x="452.217" y="687"/>
      <point x="503.755" y="676.876"/>
      <point x="594.667" y="646.333" type="curve"/>
      <point x="594.667" y="485" type="line"/>
      <point x="528.667" y="485" type="line"/>
      <point x="511.333" y="583" type="line" smooth="yes"/>
      <point x="507.399" y="608.139"/>
      <point x="460.933" y="627"/>
      <point x="403.333" y="627" type="curve" smooth="yes"/>
      <point x="257.975" y="627"/>
      <point x="168.667" y="516.022"/>
      <point x="168.667" y="336" type="curve" smooth="yes"/>
      <point x="168.667" y="152.703"/>
      <point x="261.065" y="41.6667"/>
      <point x="413.333" y="41.6667" type="curve" smooth="yes"/>
      <point x="464.865" y="41.6667"/>
      <point x="500.244" y="55.4011"/>
      <point x="504.333" y="77" type="curve" smooth="yes"/>
      <point x="527" y="189" type="line"/>
      <point x="592" y="189" type="line"/>
      <point x="592" y="22.6667" type="line"/>
      <point x="543.495" y="-0.516927"/>
      <point x="460.402" y="-16.6667"/>
      <point x="388" y="-16.6667" type="curve" smooth="yes"/>
      <point x="175.179" y="-16.6667"/>
      <point x="38.3333" y="121.19"/>
    </contour>
    <contour>
      <point x="297.667" y="-230.445" type="curve"/>
      <point x="297.667" y="-187.778" type="line"/>
      <point x="316.167" y="-191.778"/>
      <point x="341.333" y="-195.778"/>
      <point x="359.333" y="-195.778" type="curve" smooth="yes"/>
      <point x="389.333" y="-195.778"/>
      <point x="421.667" y="-187.778"/>
      <point x="421.667" y="-157.111" type="curve" smooth="yes"/>
      <point x="421.667" y="-131.778"/>
      <point x="404" y="-121.111"/>
      <point x="382.333" y="-121.111" type="curve" smooth="yes"/>
      <point x="374.5" y="-121.111"/>
      <point x="362.167" y="-122.778"/>
      <point x="353" y="-125.778" type="curve"/>
      <point x="353" y="-8.778" type="line"/>
      <point x="396.333" y="-8.778" type="line"/>
      <point x="396.333" y="-74.778" type="line"/>
      <point x="402.667" y="-72.4447"/>
      <point x="407.667" y="-71.4447"/>
      <point x="416.333" y="-71.4447" type="curve" smooth="yes"/>
      <point x="462.333" y="-71.4447"/>
      <point x="492.333" y="-95.778"/>
      <point x="492.333" y="-144.111" type="curve" smooth="yes"/>
      <point x="492.333" y="-209.111"/>
      <point x="441.667" y="-240.778"/>
      <point x="374" y="-240.778" type="curve" smooth="yes"/>
      <point x="349.167" y="-240.778"/>
      <point x="318.333" y="-236.278"/>
    </contour>
  </outline>
</glyph>
<glyph name="Iacute" format="2">
  <advance width="339"/>
  <unicode hex="00CD"/>
  <outline>
    <contour>
      <point x="29.6667" y="0" type="line"/>
      <point x="29.6667" y="45.6667" type="line"/>
      <point x="90.3333" y="50" type="line" smooth="yes"/>
      <point x="102.333" y="51"/>
      <point x="111.667" y="59.6667"/>
      <point x="111.667" y="72" type="curve" smooth="yes"/>
      <point x="111.667" y="599" type="line" smooth="yes"/>
      <point x="111.667" y="611.333"/>
      <point x="102.333" y="619.333"/>
      <point x="90.3333" y="620.333" type="curve" smooth="yes"/>
      <point x="29.6667" y="624.667" type="line"/>
      <point x="29.6667" y="671" type="line"/>
      <point x="309.667" y="671" type="line"/>
      <point x="309.667" y="624.667" type="line"/>
      <point x="248.333" y="620.333" type="line" smooth="yes"/>
      <point x="237.333" y="619.333"/>
      <point x="226.667" y="610.667"/>
      <point x="226.667" y="599" type="curve" smooth="yes"/>
      <point x="226.667" y="72" type="line" smooth="yes"/>
      <point x="226.667" y="60.3333"/>
      <point x="237.333" y="51"/>
      <point x="248.333" y="50" type="curve" smooth="yes"/>
      <point x="309.667" y="45.6667" type="line"/>
      <point x="309.667" y="0" type="line"/>
    </contour>
    <contour>
      <point x="139.333" y="746.333" type="line"/>
      <point x="273" y="900" type="line" smooth="yes"/>
      <point x="288.667" y="918.333"/>
      <point x="301.667" y="928.667"/>
      <point x="329.333" y="928.667" type="curve" smooth="yes"/>
      <point x="363.439" y="928.667"/>
      <point x="380" y="908.059"/>
      <point x="380" y="881" type="curve" smooth="yes"/>
      <point x="380" y="864"/>
      <point x="368.008" y="847.654"/>
      <point x="356" y="840.333" type="curve" smooth="yes"/>
      <point x="200" y="746.333" type="line"/>
    </contour>
  </outline>
</glyph>
<glyph name="Idieresis" format="2">
  <advance width="339"/>
  <unicode hex="00CF"/>
  <outline>
    <contour>
      <point x="6.33333" y="806" type="curve" smooth="yes"/>
      <point x="6.33333" y="839.333"/>
      <point x="32.6667" y="866.333"/>
      <point x="66" y="866.333" type="curve" smooth="yes"/>
      <point x="99.3333" y="866.333"/>
      <point x="125" y="839.333"/>
      <point x="125" y="806.667" type="curve" smooth="yes"/>
      <point x="125" y="773.333"/>
      <point x="99.3333" y="746.333"/>
      <point x="66" y="746.333" type="curve" smooth="yes"/>
      <point x="32.6667" y="746.333"/>
      <point x="6.33333" y="772.667"/>
    </contour>
    <contour>
      <point x="29.6667" y="0" type="line"/>
      <point x="29.6667" y="45.6667" type="line"/>
      <point x="90.3333" y="50" type="line" smooth="yes"/>
      <point x="102.333" y="51"/>
      <point x="111.667" y="59.6667"/>
      <point x="111.667" y="72" type="curve" smooth="yes"/>
      <point x="111.667" y="599" type="line" smooth="yes"/>
      <point x="111.667" y="611.333"/>
      <point x="102.333" y="619.333"/>
      <point x="90.3333" y="620.333" type="curve" smooth="yes"/>
      <point x="29.6667" y="624.667" type="line"/>
      <point x="29.6667" y="671" type="line"/>
      <point x="309.667" y="671" type="line"/>
      <point x="309.667" y="624.667" type="line"/>
      <point x="248.333" y="620.333" type="line" smooth="yes"/>
      <point x="237.333" y="619.333"/>
      <point x="226.667" y="610.667"/>
      <point x="226.667" y="599" type="curve" smooth="yes"/>
      <point x="226.667" y="72" type="line" smooth="yes"/>
      <point x="226.667" y="60.3333"/>
      <point x="237.333" y="51"/>
      <point x="248.333" y="50" type="curve" smooth="yes"/>
      <point x="309.667" y="45.6667" type="line"/>
      <point x="309.667" y="0" type="line"/>
    </contour>
    <contour>
      <point x="214.333" y="806.667" type="curve" smooth="yes"/>
      <point x="214.333" y="839.333"/>
      <point x="242" y="866.333"/>
      <point x="274.667" y="866.333" type="curve" smooth="yes"/>
      <point x="307.333" y="866.333"/>
      <point x="333" y="840"/>
      <point x="333" y="806.667" type="curve" smooth="yes"/>
      <point x="333" y="773.333"/>
      <point x="308" y="746.333"/>
      <point x="274.667" y="746.333" type="curve" smooth="yes"/>
      <point x="240.667" y="746.333"/>
      <point x="214.333" y="772.667"/>
    </contour>
  </outline>
</glyph>
<glyph name="Oacute" format="2">
  <advance width="738"/>
  <unicode hex="00D3"/>
  <outline>
    <contour>
      <point x="38.3333" y="338" type="curve" smooth="yes"/>
      <point x="38.3333" y="529.667"/>
      <point x="171.333" y="686.333"/>
      <point x="369" y="686.333" type="curve" smooth="yes"/>
      <point x="565" y="686.333"/>
      <point x="702" y="526"/>
      <point x="702" y="335.333" type="curve" smooth="yes"/>
      <point x="702" y="145"/>
      <point x="565.667" y="-15.3333"/>
      <point x="372" y="-15.3333" type="curve" smooth="yes"/>
      <point x="178.667" y="-15.3333"/>
      <point x="38.3333" y="135.667"/>
    </contour>
    <contour>
      <point x="169" y="337" type="curve" smooth="yes"/>
      <point x="169" y="203"/>
      <point x="226.333" y="41.6667"/>
      <point x="367.333" y="41.6667" type="curve" smooth="yes"/>
      <point x="512" y="41.6667"/>
      <point x="570.333" y="204.333"/>
      <point x="570.333" y="334" type="curve" smooth="yes"/>
      <point x="570.333" y="473"/>
      <point x="512" y="625.333"/>
      <point x="373.333" y="625.333" type="curve" smooth="yes"/>
      <point x="227" y="625.333"/>
      <point x="169" y="468.333"/>
    </contour>
    <contour>
      <point x="338.667" y="746.333" type="line"/>
      <point x="472.333" y="900" type="line" smooth="yes"/>
      <point x="488" y="918.333"/>
      <point x="501" y="928.667"/>
      <point x="528.667" y="928.667" type="curve" smooth="yes"/>
      <point x="562.772" y="928.667"/>
      <point x="579.333" y="908.059"/>
      <point x="579.333" y="881" type="curve" smooth="yes"/>
      <point x="579.333" y="864"/>
      <point x="567.341" y="847.654"/>
      <point x="555.333" y="840.333" type="curve" smooth="yes"/>
      <point x="399.333" y="746.333" type="line"/>
    </contour>
  </outline>
</glyph>
<glyph name="Oslash" format="2">
  <advance width="738"/>
  <unicode hex="00D8"/>
  <outline>
    <contour>
      <point x="38.3333" y="337.333" type="curve" smooth="yes"/>
      <point x="38.3333" y="537.667"/>
      <point x="163.333" y="686.333"/>
      <point x="369" y="686.333" type="curve" smooth="yes"/>
      <point x="427" y="686.333"/>
      <point x="478" y="672.333"/>
      <point x="519.333" y="652.333" type="curve"/>
      <point x="575" y="747.333" type="line"/>
      <point x="623.667" y="719" type="line"/>
      <point x="567" y="623.667" type="line"/>
      <point x="647.667" y="562.667"/>
      <point x="702" y="463"/>
      <point x="702" y="334" type="curve" smooth="yes"/>
      <point x="702" y="137"/>
      <point x="572.333" y="-16"/>
      <point x="372" y="-16" type="curve" smooth="yes"/>
      <point x="309.667" y="-16"/>
      <point x="256.667" y="-2.66667"/>
      <point x="212.667" y="20.6667" type="curve"/>
      <point x="152.667" y="-81.6667" type="line"/>
      <point x="105" y="-53" type="line"/>
      <point x="166" y="51" type="line"/>
      <point x="90" y="108"/>
      <point x="38.3333" y="207.667"/>
    </contour>
    <contour>
      <point x="168.333" y="336.333" type="curve" smooth="yes"/>
      <point x="168.333" y="258.333"/>
      <point x="184.333" y="188"/>
      <point x="215" y="135.333" type="curve"/>
      <point x="480" y="587.333" type="line"/>
      <point x="453.333" y="611.667"/>
      <point x="418.333" y="626"/>
      <point x="372.667" y="626" type="curve" smooth="yes"/>
      <point x="224.333" y="626"/>
      <point x="168.333" y="483.667"/>
    </contour>
    <contour>
      <point x="252.667" y="86.6667" type="line"/>
      <point x="281.333" y="59.3333"/>
      <point x="318" y="41"/>
      <point x="368" y="41" type="curve" smooth="yes"/>
      <point x="514" y="41"/>
      <point x="571" y="185.667"/>
      <point x="571" y="331.333" type="curve" smooth="yes"/>
      <point x="571" y="415.333"/>
      <point x="553" y="488.667"/>
      <point x="519.667" y="541.333" type="curve"/>
    </contour>
  </outline>
</glyph>
<glyph name="Yacute" format="2">
  <advance width="638"/>
  <unicode hex="00DD"/>
  <outline>
    <contour>
      <point x="10" y="625.333" type="line"/>
      <point x="10" y="671" type="line"/>
      <point x="262.667" y="671" type="line"/>
      <point x="262.667" y="625.333" type="line"/>
      <point x="211.667" y="620.333" type="line"/>
      <point x="200.667" y="619.667"/>
      <point x="195.667" y="610.667"/>
      <point x="202" y="599" type="curve" smooth="yes"/>
      <point x="338" y="346" type="line"/>
      <point x="486.667" y="597.333" type="line" smooth="yes"/>
      <point x="493" y="608.667"/>
      <point x="485.333" y="618.667"/>
      <point x="477" y="619.333" type="curve" smooth="yes"/>
      <point x="419.333" y="625.333" type="line"/>
      <point x="419.333" y="671" type="line"/>
      <point x="628.333" y="671" type="line"/>
      <point x="628.333" y="625.333" type="line"/>
      <point x="573" y="615.667" type="line"/>
      <point x="377.333" y="286.667" type="line"/>
      <point x="377.333" y="72" type="line" smooth="yes"/>
      <point x="377.333" y="60.3333"/>
      <point x="387.333" y="51"/>
      <point x="398.667" y="50" type="curve" smooth="yes"/>
      <point x="461.667" y="45.6667" type="line"/>
      <point x="461.667" y="0" type="line"/>
      <point x="178.333" y="0" type="line"/>
      <point x="178.333" y="45.6667" type="line"/>
      <point x="240" y="50" type="line" smooth="yes"/>
      <point x="251.667" y="51"/>
      <point x="262.333" y="59.6667"/>
      <point x="262.333" y="72" type="curve" smooth="yes"/>
      <point x="262.333" y="267.333" type="line"/>
      <point x="70" y="614.333" type="line"/>
    </contour>
    <contour>
      <point x="288.667" y="746.333" type="line"/>
      <point x="422.667" y="900" type="line" smooth="yes"/>
      <point x="438.333" y="918.333"/>
      <point x="451" y="928.667"/>
      <point x="478.667" y="928.667" type="curve" smooth="yes"/>
      <point x="512.772" y="928.667"/>
      <point x="529.333" y="908.059"/>
      <point x="529.333" y="881" type="curve" smooth="yes"/>
      <point x="529.333" y="864"/>
      <point x="517.341" y="847.654"/>
      <point x="505.333" y="840.333" type="curve" smooth="yes"/>
      <point x="349.333" y="746.333" type="line"/>
    </contour>
  </outline>
</glyph>
<glyph name="germandbls" format="2">
  <advance width="643"/>
  <unicode hex="00DF"/>
  <outline>
    <contour>
      <point x="23.6667" y="0" type="line"/>
      <point x="23.6667" y="41" type="line"/>
      <point x="69" y="45.3333" type="line" smooth="yes"/>
      <point x="79.6638" y="46.3608"/>
      <point x="90" y="56"/>
      <point x="90" y="68" type="curve" smooth="yes"/>
      <point x="90" y="449" type="line" smooth="yes"/>
      <point x="90" y="590.079"/>
      <point x="162.885" y="740.333"/>
      <point x="352" y="740.333" type="curve" smooth="yes"/>
      <point x="458.333" y="740.333"/>
      <point x="536.333" y="682.333"/>
      <point x="536.333" y="567.333" type="curve" smooth="yes"/>
      <point x="536.333" y="530.424"/>
      <point x="530.667" y="497.667"/>
      <point x="521.667" y="468.667" type="curve"/>
      <point x="515.697" y="470.333"/>
      <point x="505.707" y="472"/>
      <point x="499.333" y="472" type="curve" smooth="yes"/>
      <point x="495.667" y="472" type="line" smooth="yes"/>
      <point x="446.516" y="472"/>
      <point x="405.667" y="449.667"/>
      <point x="405.667" y="397.667" type="curve" smooth="yes"/>
      <point x="405.667" y="355.683"/>
      <point x="458.319" y="323.582"/>
      <point x="496.489" y="300.61" type="curve" smooth="yes"/>
      <point x="549.952" y="268.751"/>
      <point x="612" y="230.595"/>
      <point x="612" y="153" type="curve" smooth="yes"/>
      <point x="612" y="52.2799"/>
      <point x="530.466" y="-10.6667"/>
      <point x="430.333" y="-10.6667" type="curve" smooth="yes"/>
      <point x="378.073" y="-10.6667"/>
      <point x="330.543" y="3.94881"/>
      <point x="308" y="12" type="curve"/>
      <point x="308" y="149.667" type="line"/>
      <point x="366" y="149.667" type="line"/>
      <point x="374.667" y="60.3333" type="line"/>
      <point x="382.667" y="52.3333"/>
      <point x="402.333" y="39"/>
      <point x="432" y="39" type="curve" smooth="yes"/>
      <point x="480.667" y="39"/>
      <point x="513.667" y="76.3333"/>
      <point x="513.667" y="121" type="curve" smooth="yes"/>
      <point x="513.667" y="174.997"/>
      <point x="457.104" y="207.006"/>
      <point x="413.892" y="230.675" type="curve" smooth="yes"/>
      <point x="364.521" y="257.971"/>
      <point x="301.667" y="292.785"/>
      <point x="301.667" y="361" type="curve" smooth="yes"/>
      <point x="301.667" y="438.667"/>
      <point x="355.333" y="481.667"/>
      <point x="420" y="497" type="curve"/>
      <point x="425.608" y="519.12"/>
      <point x="429" y="546.949"/>
      <point x="429" y="570.667" type="curve" smooth="yes"/>
      <point x="429" y="630.499"/>
      <point x="396.111" y="686"/>
      <point x="331.667" y="686" type="curve" smooth="yes"/>
      <point x="217.667" y="686"/>
      <point x="196.667" y="559"/>
      <point x="196.667" y="474" type="curve" smooth="yes"/>
      <point x="196.667" y="68" type="line" smooth="yes"/>
      <point x="196.667" y="55.3333"/>
      <point x="204.318" y="45.4718"/>
      <point x="214.333" y="44.6667" type="curve" smooth="yes"/>
      <point x="261.667" y="41" type="line"/>
      <point x="261.667" y="0" type="line"/>
    </contour>
  </outline>
</glyph>
<glyph name="atilde" format="2">
  <advance width="523"/>
  <unicode hex="00E3"/>
  <outline>
    <contour>
      <point x="32.6667" y="119.667" type="curve" smooth="yes"/>
      <point x="32.6667" y="226.333"/>
      <point x="164" y="269"/>
      <point x="332.333" y="306" type="curve"/>
      <point x="332.333" y="347.667" type="line" smooth="yes"/>
      <point x="332.333" y="405"/>
      <point x="309.667" y="446"/>
      <point x="239.667" y="446" type="curve" smooth="yes"/>
      <point x="212.667" y="446"/>
      <point x="190" y="440.333"/>
      <point x="178" y="434.667" type="curve"/>
      <point x="178" y="345" type="line"/>
      <point x="93.3333" y="345" type="line" smooth="yes"/>
      <point x="75" y="345"/>
      <point x="55.3333" y="350"/>
      <point x="55.3333" y="376.333" type="curve" smooth="yes"/>
      <point x="55.3333" y="457"/>
      <point x="173" y="496.667"/>
      <point x="268.333" y="496.667" type="curve" smooth="yes"/>
      <point x="377.333" y="496.667"/>
      <point x="438" y="456.667"/>
      <point x="438" y="338.667" type="curve" smooth="yes"/>
      <point x="438" y="66.3333" type="line" smooth="yes"/>
      <point x="438" y="54.3333"/>
      <point x="448" y="45.6667"/>
      <point x="459.333" y="44.6667" type="curve" smooth="yes"/>
      <point x="506" y="41.6667" type="line"/>
      <point x="506" y="0" type="line"/>
      <point x="345.333" y="0" type="line"/>
      <point x="332.333" y="56" type="line"/>
      <point x="301.667" y="32.6667"/>
      <point x="234.333" y="-12.6667"/>
      <point x="162.333" y="-12.6667" type="curve" smooth="yes"/>
      <point x="89" y="-12.6667"/>
      <point x="32.6667" y="42"/>
    </contour>
    <contour>
      <point x="74.6667" y="556.667" type="line"/>
      <point x="90.3333" y="616.333"/>
      <point x="122.333" y="671.333"/>
      <point x="191.333" y="671.333" type="curve" smooth="yes"/>
      <point x="218" y="671.333"/>
      <point x="235.667" y="660.333"/>
      <point x="254" y="649" type="curve" smooth="yes"/>
      <point x="274.333" y="636"/>
      <point x="295.333" y="623.667"/>
      <point x="327.333" y="623.667" type="curve" smooth="yes"/>
      <point x="353" y="623.667"/>
      <point x="374.333" y="645.333"/>
      <point x="377.333" y="671.333" type="curve"/>
      <point x="422" y="671.333" type="line"/>
      <point x="406.333" y="611.667"/>
      <point x="374.667" y="556.667"/>
      <point x="305.333" y="556.667" type="curve" smooth="yes"/>
      <point x="279" y="556.667"/>
      <point x="260" y="567.667"/>
      <point x="241.333" y="579.667" type="curve" smooth="yes"/>
      <point x="221.333" y="592"/>
      <point x="199.333" y="604.667"/>
      <point x="168.667" y="604.667" type="curve" smooth="yes"/>
      <point x="142.667" y="604.667"/>
      <point x="122.333" y="582.333"/>
      <point x="119.333" y="556.667" type="curve"/>
    </contour>
    <contour>
      <point x="146.667" y="134.333" type="curve" smooth="yes"/>
      <point x="146.667" y="88.6667"/>
      <point x="174.333" y="53.6667"/>
      <point x="219.667" y="53.6667" type="curve" smooth="yes"/>
      <point x="262" y="53.6667"/>
      <point x="306.667" y="75"/>
      <point x="332.333" y="92.3333" type="curve"/>
      <point x="332.333" y="262.667" type="line"/>
      <point x="232" y="240"/>
      <point x="146.667" y="211"/>
    </contour>
  </outline>
</glyph>
<glyph name="ae" format="2">
  <advance width="737"/>
  <unicode hex="00E6"/>
  <outline>
    <contour>
      <point x="34.6667" y="118.333" type="curve" smooth="yes"/>
      <point x="34.6667" y="211.077"/>
      <point x="96.698" y="243.482"/>
      <point x="188" y="270" type="curve"/>
      <point x="318" y="305.333" type="line"/>
      <point x="318" y="342" type="line" smooth="yes"/>
      <point x="318" y="409.667"/>
      <point x="294.333" y="444"/>
      <point x="229" y="444" type="curve" smooth="yes"/>
      <point x="207.667" y="444"/>
      <point x="185.333" y="438.667"/>
      <point x="175.333" y="434" type="curve"/>
      <point x="175.333" y="344" type="line"/>
      <point x="98.6667" y="344" type="line" smooth="yes"/>
      <point x="69" y="344"/>
      <point x="57" y="350.333"/>
      <point x="57" y="376" type="curve" smooth="yes"/>
      <point x="57" y="459.949"/>
      <point x="165.653" y="493.667"/>
      <point x="258" y="493.667" type="curve" smooth="yes"/>
      <point x="341.745" y="493.667"/>
      <point x="375.865" y="462.586"/>
      <point x="396.333" y="437" type="curve"/>
      <point x="415" y="459"/>
      <point x="460.333" y="494.333"/>
      <point x="532.333" y="494.333" type="curve" smooth="yes"/>
      <point x="655" y="494.333"/>
      <point x="705" y="398.667"/>
      <point x="705" y="282" type="curve" smooth="yes"/>
      <point x="705" y="271.147"/>
      <point x="704.226" y="260.465"/>
      <point x="703.333" y="252.667" type="curve"/>
      <point x="422" y="252.667" type="line"/>
      <point x="422" y="125.667" type="line"/>
      <point x="447" y="98.3333"/>
      <point x="488.333" y="60.3333"/>
      <point x="568" y="60.3333" type="curve" smooth="yes"/>
      <point x="636.647" y="60.3333"/>
      <point x="681.826" y="96.0061"/>
      <point x="705.333" y="114.333" type="curve"/>
      <point x="705.333" y="48" type="line"/>
      <point x="677.333" y="27.3333"/>
      <point x="618.667" y="-12.6667"/>
      <point x="532.667" y="-12.6667" type="curve" smooth="yes"/>
      <point x="434.151" y="-12.6667"/>
      <point x="371.525" y="33.7684"/>
      <point x="345" y="62.3333" type="curve"/>
      <point x="315.343" y="38.7602"/>
      <point x="248.616" y="-12.6667"/>
      <point x="163.333" y="-12.6667" type="curve" smooth="yes"/>
      <point x="79.3333" y="-12.6667"/>
      <point x="34.6667" y="42.6667"/>
    </contour>
    <contour>
      <point x="144" y="138" type="curve" smooth="yes"/>
      <point x="144" y="90.5107"/>
      <point x="167.931" y="55"/>
      <point x="216" y="55" type="curve" smooth="yes"/>
      <point x="259.355" y="55"/>
      <point x="290.705" y="76.1951"/>
      <point x="317.333" y="95.3333" type="curve"/>
      <point x="317.333" y="264" type="line"/>
      <point x="261.333" y="248.333"/>
      <point x="217.345" y="232.522"/>
      <point x="184" y="212" type="curve" smooth="yes"/>
      <point x="155.081" y="194.543"/>
      <point x="144" y="172"/>
    </contour>
    <contour>
      <point x="420.333" y="301.333" type="curve"/>
      <point x="592.667" y="301.333" type="line"/>
      <point x="592.667" y="328.333" type="line" smooth="yes"/>
      <point x="592.667" y="382.704"/>
      <point x="575.075" y="446.667"/>
      <point x="512" y="446.667" type="curve" smooth="yes"/>
      <point x="434" y="446.667"/>
      <point x="420.333" y="361.667"/>
    </contour>
  </outline>
</glyph>
<glyph name="eth" format="2">
  <advance width="552"/>
  <unicode hex="00F0"/>
  <outline>
    <contour>
      <point x="33.3333" y="242.333" type="curve" smooth="yes"/>
      <point x="33.3333" y="385.23"/>
      <point x="125.561" y="496"/>
      <point x="274.333" y="496" type="curve" smooth="yes"/>
      <point x="300.589" y="496"/>
      <point x="325.873" y="489.333"/>
      <point x="343.333" y="482.667" type="curve"/>
      <point x="326.138" y="509.253"/>
      <point x="292.611" y="557.012"/>
      <point x="269.667" y="585" type="curve"/>
      <point x="145" y="513" type="line"/>
      <point x="122.333" y="555" type="line"/>
      <point x="235" y="620" type="line"/>
      <point x="200.667" y="658.333" type="line"/>
      <point x="115" y="666.667" type="line"/>
      <point x="115" y="700" type="line"/>
      <point x="249.333" y="742" type="line"/>
      <point x="323" y="667.667" type="line"/>
      <point x="433.667" y="731.333" type="line"/>
      <point x="457.333" y="689.333" type="line"/>
      <point x="353.667" y="629" type="line"/>
      <point x="401.872" y="574.862"/>
      <point x="518.667" y="435.977"/>
      <point x="518.667" y="268" type="curve" smooth="yes"/>
      <point x="518.667" y="103.875"/>
      <point x="430.165" y="-11.3333"/>
      <point x="279.667" y="-11.3333" type="curve" smooth="yes"/>
      <point x="120.321" y="-11.3333"/>
      <point x="33.3333" y="97.4273"/>
    </contour>
    <contour>
      <point x="151" y="241.333" type="curve" smooth="yes"/>
      <point x="151" y="139.199"/>
      <point x="181.142" y="36.6667"/>
      <point x="279.333" y="36.6667" type="curve" smooth="yes"/>
      <point x="378.077" y="36.6667"/>
      <point x="406" y="144.549"/>
      <point x="406" y="252.667" type="curve" smooth="yes"/>
      <point x="406" y="337.333"/>
      <point x="390" y="394.333"/>
      <point x="368.667" y="429.667" type="curve"/>
      <point x="353.921" y="436.671"/>
      <point x="328.33" y="449.333"/>
      <point x="298.667" y="449.333" type="curve" smooth="yes"/>
      <point x="191.667" y="449.333"/>
      <point x="151" y="352"/>
    </contour>
  </outline>
</glyph>
<glyph name="oacute" format="2">
  <advance width="556"/>
  <unicode hex="00F3"/>
  <outline>
    <contour>
      <point x="173" y="556.667" type="line"/>
      <point x="306.667" y="710.333" type="line" smooth="yes"/>
      <point x="322.333" y="728.667"/>
      <point x="335.333" y="739"/>
      <point x="363" y="739" type="curve" smooth="yes"/>
      <point x="397.105" y="739"/>
      <point x="413.667" y="718.392"/>
      <point x="413.667" y="691.333" type="curve" smooth="yes"/>
      <point x="413.667" y="674.333"/>
      <point x="401.675" y="657.987"/>
      <point x="389.667" y="650.667" type="curve" smooth="yes"/>
      <point x="233.667" y="556.667" type="line"/>
    </contour>
    <contour>
      <point x="32.6667" y="240.667" type="curve" smooth="yes"/>
      <point x="32.6667" y="389.333"/>
      <point x="135" y="496.667"/>
      <point x="280" y="496.667" type="curve" smooth="yes"/>
      <point x="428.333" y="496.667"/>
      <point x="523.333" y="385"/>
      <point x="523.333" y="240.333" type="curve" smooth="yes"/>
      <point x="523.333" y="97.3333"/>
      <point x="424.333" y="-12.6667"/>
      <point x="275.667" y="-12.6667" type="curve" smooth="yes"/>
      <point x="131.667" y="-12.6667"/>
      <point x="32.6667" y="94.6667"/>
    </contour>
    <contour>
      <point x="152" y="242" type="curve" smooth="yes"/>
      <point x="152" y="153.333"/>
      <point x="180.667" y="37.6667"/>
      <point x="278.333" y="37.6667" type="curve" smooth="yes"/>
      <point x="375.333" y="37.6667"/>
      <point x="404.667" y="151"/>
      <point x="404.667" y="240.667" type="curve" smooth="yes"/>
      <point x="404.667" y="329"/>
      <point x="376" y="447.667"/>
      <point x="278.667" y="447.667" type="curve" smooth="yes"/>
      <point x="182" y="447.667"/>
      <point x="152" y="330.667"/>
    </contour>
  </outline>
</glyph>
<glyph name="ocircumflex" format="2">
  <advance width="556"/>
  <unicode hex="00F4"/>
  <outline>
    <contour>
      <point x="32.6667" y="240.667" type="curve" smooth="yes"/>
      <point x="32.6667" y="389.333"/>
      <point x="135" y="496.667"/>
      <point x="280" y="496.667" type="curve" smooth="yes"/>
      <point x="428.333" y="496.667"/>
      <point x="523.333" y="385"/>
      <point x="523.333" y="240.333" type="curve" smooth="yes"/>
      <point x="523.333" y="97.3333"/>
      <point x="424.333" y="-12.6667"/>
      <point x="275.667" y="-12.6667" type="curve" smooth="yes"/>
      <point x="131.667" y="-12.6667"/>
      <point x="32.6667" y="94.6667"/>
    </contour>
    <contour>
      <point x="114" y="556.667" type="line"/>
      <point x="235" y="726.333" type="line"/>
      <point x="325" y="726.333" type="line"/>
      <point x="446" y="556.667" type="line"/>
      <point x="378.333" y="556.667" type="line"/>
      <point x="280.667" y="654.333" type="line"/>
      <point x="182.333" y="556.667" type="line"/>
    </contour>
    <contour>
      <point x="152" y="242" type="curve" smooth="yes"/>
      <point x="152" y="153.333"/>
      <point x="180.667" y="37.6667"/>
      <point x="278.333" y="37.6667" type="curve" smooth="yes"/>
      <point x="375.333" y="37.6667"/>
      <point x="404.667" y="151"/>
      <point x="404.667" y="240.667" type="curve" smooth="yes"/>
      <point x="404.667" y="329"/>
      <point x="376" y="447.667"/>
      <point x="278.667" y="447.667" type="curve" smooth="yes"/>
      <point x="182" y="447.667"/>
      <point x="152" y="330.667"/>
    </contour>
  </outline>
</glyph>
<glyph name="oslash" format="2">
  <advance width="556"/>
  <unicode hex="00F8"/>
  <outline>
    <contour>
      <point x="34.6667" y="240" type="curve" smooth="yes"/>
      <point x="34.6667" y="393.122"/>
      <point x="131.502" y="496"/>
      <point x="282" y="496" type="curve" smooth="yes"/>
      <point x="320" y="496"/>
      <point x="352" y="489.667"/>
      <point x="380" y="477.667" type="curve"/>
      <point x="430" y="565.333" type="line"/>
      <point x="468.667" y="543.667" type="line"/>
      <point x="419.667" y="457.667" type="line"/>
      <point x="484.729" y="414.2"/>
      <point x="525.667" y="340.649"/>
      <point x="525.667" y="239" type="curve" smooth="yes"/>
      <point x="525.667" y="91.3213"/>
      <point x="431.969" y="-12.6667"/>
      <point x="278.333" y="-12.6667" type="curve" smooth="yes"/>
      <point x="234.667" y="-12.6667"/>
      <point x="198.333" y="-3.33333"/>
      <point x="167" y="11.3333" type="curve"/>
      <point x="114" y="-83" type="line"/>
      <point x="76" y="-59.6667" type="line"/>
      <point x="129" y="33.6667" type="line"/>
      <point x="71.6667" y="76"/>
      <point x="34.6667" y="147"/>
    </contour>
    <contour>
      <point x="153.333" y="243.333" type="curve" smooth="yes"/>
      <point x="153.333" y="196.555"/>
      <point x="160.564" y="152.883"/>
      <point x="175.667" y="116.667" type="curve"/>
      <point x="349" y="422" type="line"/>
      <point x="339.021" y="432.218"/>
      <point x="309.571" y="447"/>
      <point x="280" y="447" type="curve" smooth="yes"/>
      <point x="181.706" y="447"/>
      <point x="153.333" y="339.797"/>
    </contour>
    <contour>
      <point x="202.333" y="72.3333" type="line"/>
      <point x="220.358" y="52.4035"/>
      <point x="243.951" y="37.3333"/>
      <point x="279" y="37.3333" type="curve" smooth="yes"/>
      <point x="376.881" y="37.3333"/>
      <point x="405.333" y="144.117"/>
      <point x="405.333" y="241.333" type="curve" smooth="yes"/>
      <point x="405.333" y="293.072"/>
      <point x="395.902" y="343.833"/>
      <point x="377" y="381.333" type="curve"/>
    </contour>
  </outline>
</glyph>
<glyph name="yacute" format="2">
  <advance width="541"/>
  <unicode hex="00FD"/>
  <outline>
    <contour>
      <point x="10" y="442.333" type="line"/>
      <point x="10.0007" y="484" type="line"/>
      <point x="245.001" y="484" type="line"/>
      <point x="245.001" y="442.333" type="line"/>
      <point x="197.667" y="439.333" type="line"/>
      <point x="189.384" y="438.45"/>
      <point x="181.737" y="431.937"/>
      <point x="181.737" y="423.333" type="curve"/>
      <point x="181.737" y="421.406"/>
      <point x="181.867" y="419.401"/>
      <point x="182.667" y="417.333" type="curve" smooth="yes"/>
      <point x="294.333" y="135" type="line"/>
      <point x="409" y="417.333" type="line" smooth="yes"/>
      <point x="409.8" y="419.401"/>
      <point x="409.984" y="421.073"/>
      <point x="409.984" y="423" type="curve"/>
      <point x="409.984" y="431.604"/>
      <point x="402.617" y="438.45"/>
      <point x="394.667" y="439.333" type="curve"/>
      <point x="348.667" y="442.333" type="line"/>
      <point x="348.667" y="484" type="line"/>
      <point x="532.333" y="484" type="line"/>
      <point x="532.333" y="442.333" type="line"/>
      <point x="480" y="436" type="line"/>
      <point x="295" y="-17.3333" type="line" smooth="yes"/>
      <point x="275.333" y="-64"/>
      <point x="238.667" y="-132.333"/>
      <point x="216" y="-163.667" type="curve" smooth="yes"/>
      <point x="190" y="-199.667"/>
      <point x="157.667" y="-229.667"/>
      <point x="104.667" y="-229.667" type="curve" smooth="yes"/>
      <point x="60.2155" y="-229.667"/>
      <point x="26.6667" y="-201.736"/>
      <point x="26.6667" y="-165" type="curve" smooth="yes"/>
      <point x="26.6667" y="-139.083"/>
      <point x="39.7201" y="-118.733"/>
      <point x="67.3333" y="-100.333" type="curve"/>
      <point x="158.333" y="-150.667" type="line"/>
      <point x="195" y="-114.667"/>
      <point x="223.333" y="-49.6667"/>
      <point x="239" y="-2.33333" type="curve"/>
      <point x="66.3333" y="436.333" type="line"/>
    </contour>
    <contour>
      <point x="220.667" y="556.667" type="line"/>
      <point x="354.667" y="710.333" type="line" smooth="yes"/>
      <point x="370.333" y="728.667"/>
      <point x="383" y="739"/>
      <point x="410.667" y="739" type="curve" smooth="yes"/>
      <point x="444.772" y="739"/>
      <point x="461.333" y="718.392"/>
      <point x="461.333" y="691.333" type="curve" smooth="yes"/>
      <point x="461.333" y="674.333"/>
      <point x="449.341" y="657.987"/>
      <point x="437.333" y="650.667" type="curve" smooth="yes"/>
      <point x="281.333" y="556.667" type="line"/>
    </contour>
  </outline>
</glyph>
<glyph name="Aogonek" format="2">
  <advance width="677"/>
  <unicode hex="0104"/>
  <outline>
    <contour>
      <point x="5" y="0" type="line"/>
      <point x="5" y="45.6667" type="line"/>
      <point x="62.3333" y="57" type="line"/>
      <point x="292.333" y="687.667" type="line"/>
      <point x="380.333" y="687.667" type="line"/>
      <point x="609" y="73" type="line" smooth="yes"/>
      <point x="614.154" y="59.7246"/>
      <point x="617.036" y="55.8679"/>
      <point x="630.333" y="53.3333" type="curve" smooth="yes"/>
      <point x="673" y="45.6667" type="line"/>
      <point x="673" y="0" type="line"/>
      <point x="422.333" y="0" type="line"/>
      <point x="422.333" y="45.6667" type="line"/>
      <point x="480.667" y="52" type="line" smooth="yes"/>
      <point x="487.475" y="52.8653"/>
      <point x="491.333" y="57.7617"/>
      <point x="491.333" y="64.3333" type="curve"/>
      <point x="491.333" y="65.778"/>
      <point x="490.931" y="67.9661"/>
      <point x="490.333" y="69" type="curve"/>
      <point x="426.333" y="244" type="line"/>
      <point x="201" y="244" type="line"/>
      <point x="138.667" y="72.3333" type="line"/>
      <point x="138.087" y="71.3281"/>
      <point x="137.667" y="68.6667"/>
      <point x="137.667" y="67" type="curve"/>
      <point x="137.667" y="58.2943"/>
      <point x="144.673" y="52.9427"/>
      <point x="152.667" y="52" type="curve" smooth="yes"/>
      <point x="210.667" y="45.6667" type="line"/>
      <point x="210.667" y="0" type="line"/>
    </contour>
    <contour>
      <point x="219.333" y="295" type="line"/>
      <point x="406" y="295" type="line"/>
      <point x="312" y="549.667" type="line"/>
    </contour>
    <contour>
      <point x="456" y="-109.044" type="curve" smooth="yes"/>
      <point x="456" y="-60.3776"/>
      <point x="490.333" y="-18.3776"/>
      <point x="529.667" y="6.6224" type="curve"/>
      <point x="582" y="6.6224" type="line"/>
      <point x="550.667" y="-15.3776"/>
      <point x="525" y="-46.7109"/>
      <point x="525" y="-86.3776" type="curve" smooth="yes"/>
      <point x="525" y="-121.711"/>
      <point x="543.667" y="-139.044"/>
      <point x="575" y="-139.044" type="curve" smooth="yes"/>
      <point x="594.333" y="-139.044"/>
      <point x="612" y="-130.044"/>
      <point x="624" y="-121.377" type="curve"/>
      <point x="648.667" y="-162.711" type="line"/>
      <point x="622" y="-182.377"/>
      <point x="592" y="-191.711"/>
      <point x="556.333" y="-191.711" type="curve" smooth="yes"/>
      <point x="498.667" y="-191.711"/>
      <point x="456" y="-163.711"/>
    </contour>
  </outline>
</glyph>
<glyph name="ebreve" format="2">
  <advance width="503"/>
  <unicode hex="0115"/>
  <outline>
    <contour>
      <point x="33.3333" y="236" type="curve" smooth="yes"/>
      <point x="33.3333" y="387"/>
      <point x="124" y="496.667"/>
      <point x="274" y="496.667" type="curve" smooth="yes"/>
      <point x="409" y="496.667"/>
      <point x="470" y="404.667"/>
      <point x="470" y="283.333" type="curve" smooth="yes"/>
      <point x="470" y="256.667" type="line"/>
      <point x="144" y="256.667" type="line"/>
      <point x="144" y="139"/>
      <point x="194" y="55.6667"/>
      <point x="306" y="55.6667" type="curve" smooth="yes"/>
      <point x="381" y="55.6667"/>
      <point x="436.667" y="94.3333"/>
      <point x="469.333" y="115.667" type="curve"/>
      <point x="469.333" y="48.3333" type="line"/>
      <point x="435.333" y="27.6667"/>
      <point x="367.333" y="-12.6667"/>
      <point x="272.333" y="-12.6667" type="curve" smooth="yes"/>
      <point x="118.333" y="-12.6667"/>
      <point x="33.3333" y="91.6667"/>
    </contour>
    <contour>
      <point x="122.333" y="710.333" type="curve"/>
      <point x="165.667" y="710.333" type="line"/>
      <point x="176.125" y="659.684"/>
      <point x="217.012" y="629"/>
      <point x="274.333" y="629" type="curve" smooth="yes"/>
      <point x="331.362" y="629"/>
      <point x="371.259" y="658.988"/>
      <point x="381.667" y="710.333" type="curve"/>
      <point x="425.667" y="710.333" type="line"/>
      <point x="425.667" y="618.198"/>
      <point x="364.863" y="556.667"/>
      <point x="273.667" y="556.667" type="curve" smooth="yes"/>
      <point x="182.333" y="556.667"/>
      <point x="122.333" y="617.667"/>
    </contour>
    <contour>
      <point x="148.333" y="304.667" type="curve"/>
      <point x="355" y="304.667" type="line"/>
      <point x="355" y="326.667" type="line" smooth="yes"/>
      <point x="355" y="393.333"/>
      <point x="327.333" y="443.667"/>
      <point x="263" y="443.667" type="curve" smooth="yes"/>
      <point x="185.667" y="443.667"/>
      <point x="151.667" y="376.333"/>
    </contour>
  </outline>
</glyph>
<glyph name="edotaccent" format="2">
  <advance width="503"/>
  <unicode hex="0117"/>
  <outline>
    <contour>
      <point x="33.3333" y="236" type="curve" smooth="yes"/>
      <point x="33.3333" y="387"/>
      <point x="124" y="496.667"/>
      <point x="274" y="496.667" type="curve" smooth="yes"/>
      <point x="409" y="496.667"/>
      <point x="470" y="404.667"/>
      <point x="470" y="283.333" type="curve" smooth="yes"/>
      <point x="470" y="256.667" type="line"/>
      <point x="144" y="256.667" type="line"/>
      <point x="144" y="139"/>
      <point x="194" y="55.6667"/>
      <point x="306" y="55.6667" type="curve" smooth="yes"/>
      <point x="381" y="55.6667"/>
      <point x="436.667" y="94.3333"/>
      <point x="469.333" y="115.667" type="curve"/>
      <point x="469.333" y="48.3333" type="line"/>
      <point x="435.333" y="27.6667"/>
      <point x="367.333" y="-12.6667"/>
      <point x="272.333" y="-12.6667" type="curve" smooth="yes"/>
      <point x="118.333" y="-12.6667"/>
      <point x="33.3333" y="91.6667"/>
    </contour>
    <contour>
      <point x="148.333" y="304.667" type="curve"/>
      <point x="355" y="304.667" type="line"/>
      <point x="355" y="326.667" type="line" smooth="yes"/>
      <point x="355" y="393.333"/>
      <point x="327.333" y="443.667"/>
      <point x="263" y="443.667" type="curve" smooth="yes"/>
      <point x="185.667" y="443.667"/>
      <point x="151.667" y="376.333"/>
    </contour>
    <contour>
      <point x="214" y="618.333" type="curve" smooth="yes"/>
      <point x="214" y="652.667"/>
      <point x="239.333" y="679"/>
      <point x="274" y="679" type="curve" smooth="yes"/>
      <point x="308" y="679"/>
      <point x="334" y="653"/>
      <point x="334" y="618.333" type="curve" smooth="yes"/>
      <point x="334" y="584.667"/>
      <point x="308.333" y="558.333"/>
      <point x="274" y="558.333" type="curve" smooth="yes"/>
      <point x="239.667" y="558.333"/>
      <point x="214" y="584"/>
    </contour>
  </outline>
</glyph>
<glyph name="eogonek" format="2">
  <advance width="503"/>
  <unicode hex="0119"/>
  <outline>
    <contour>
      <point x="172.333" y="-121.711" type="curve" smooth="yes"/>
      <point x="172.333" y="-73.0443"/>
      <point x="207" y="-31.0443"/>
      <point x="246.333" y="-6.04427" type="curve"/>
      <point x="298.333" y="-6.04427" type="line"/>
      <point x="267" y="-28.0443"/>
      <point x="241.667" y="-59.3776"/>
      <point x="241.667" y="-100.274" type="curve" smooth="yes"/>
      <point x="241.667" y="-132.377"/>
      <point x="259.133" y="-151.711"/>
      <point x="288.333" y="-151.711" type="curve" smooth="yes"/>
      <point x="309.067" y="-151.711"/>
      <point x="327.467" y="-142.711"/>
      <point x="340.333" y="-134.044" type="curve"/>
      <point x="365" y="-175.377" type="line"/>
      <point x="338.333" y="-195.044"/>
      <point x="308.667" y="-204.377"/>
      <point x="273" y="-204.377" type="curve" smooth="yes"/>
      <point x="215.333" y="-204.377"/>
      <point x="172.333" y="-176.377"/>
    </contour>
    <contour>
      <point x="33.3333" y="236" type="curve" smooth="yes"/>
      <point x="33.3333" y="387"/>
      <point x="124" y="496.667"/>
      <point x="274" y="496.667" type="curve" smooth="yes"/>
      <point x="409" y="496.667"/>
      <point x="470" y="404.667"/>
      <point x="470" y="283.333" type="curve" smooth="yes"/>
      <point x="470" y="256.667" type="line"/>
      <point x="144" y="256.667" type="line"/>
      <point x="144" y="139"/>
      <point x="194" y="55.6667"/>
      <point x="306" y="55.6667" type="curve" smooth="yes"/>
      <point x="381" y="55.6667"/>
      <point x="436.667" y="94.3333"/>
      <point x="469.333" y="115.667" type="curve"/>
      <point x="469.333" y="48.3333" type="line"/>
      <point x="435.333" y="27.6667"/>
      <point x="367.333" y="-12.6667"/>
      <point x="272.333" y="-12.6667" type="curve" smooth="yes"/>
      <point x="118.333" y="-12.6667"/>
      <point x="33.3333" y="91.6667"/>
    </contour>
    <contour>
      <point x="148.333" y="304.667" type="curve"/>
      <point x="355" y="304.667" type="line"/>
      <point x="355" y="326.667" type="line" smooth="yes"/>
      <point x="355" y="393.333"/>
      <point x="327.333" y="443.667"/>
      <point x="263" y="443.667" type="curve" smooth="yes"/>
      <point x="185.667" y="443.667"/>
      <point x="151.667" y="376.333"/>
    </contour>
  </outline>
</glyph>
<glyph name="Gcommaaccent" format="2">
  <advance width="701"/>
  <unicode hex="0122"/>
  <outline>
    <contour>
      <point x="38.3333" y="336.333" type="curve" smooth="yes"/>
      <point x="38.3333" y="553.333"/>
      <point x="180.333" y="686.333"/>
      <point x="399" y="686.333" type="curve" smooth="yes"/>
      <point x="482.079" y="686.333"/>
      <point x="547.798" y="667.369"/>
      <point x="604.667" y="650.667" type="curve"/>
      <point x="604.667" y="485" type="line"/>
      <point x="538.667" y="485" type="line"/>
      <point x="521.333" y="581" type="line"/>
      <point x="519.667" y="592.667"/>
      <point x="511.333" y="602.667"/>
      <point x="500.333" y="607.333" type="curve"/>
      <point x="491" y="611.667" type="line" smooth="yes"/>
      <point x="472.667" y="620"/>
      <point x="436" y="627"/>
      <point x="409.333" y="627" type="curve" smooth="yes"/>
      <point x="250" y="627"/>
      <point x="166" y="509.667"/>
      <point x="166" y="341" type="curve" smooth="yes"/>
      <point x="166" y="165.333"/>
      <point x="252.333" y="47"/>
      <point x="418.667" y="47" type="curve" smooth="yes"/>
      <point x="440.333" y="47"/>
      <point x="480.333" y="53.6667"/>
      <point x="491.667" y="59" type="curve"/>
      <point x="491.667" y="254.667" type="line" smooth="yes"/>
      <point x="491.667" y="267.333"/>
      <point x="483" y="275"/>
      <point x="470" y="276" type="curve" smooth="yes"/>
      <point x="403" y="281" type="line"/>
      <point x="403" y="326.667" type="line"/>
      <point x="677.667" y="326.667" type="line"/>
      <point x="677.667" y="281" type="line"/>
      <point x="626.667" y="276" type="line" smooth="yes"/>
      <point x="613.333" y="275"/>
      <point x="605" y="267.333"/>
      <point x="605" y="254.667" type="curve" smooth="yes"/>
      <point x="605" y="27" type="line"/>
      <point x="565.667" y="12.3333"/>
      <point x="487" y="-15.3333"/>
      <point x="387.667" y="-15.3333" type="curve" smooth="yes"/>
      <point x="177.667" y="-15.3333"/>
      <point x="38.3333" y="128"/>
    </contour>
    <contour>
      <point x="320" y="-126" type="curve" smooth="yes"/>
      <point x="320" y="-93.6667"/>
      <point x="347.667" y="-75.3333"/>
      <point x="379.333" y="-75.3333" type="curve" smooth="yes"/>
      <point x="427" y="-75.3333"/>
      <point x="455.333" y="-110"/>
      <point x="455.333" y="-158.333" type="curve" smooth="yes"/>
      <point x="455.333" y="-231.443"/>
      <point x="394.721" y="-273.102"/>
      <point x="325.667" y="-285.333" type="curve"/>
      <point x="325.667" y="-252" type="line"/>
      <point x="369.333" y="-239"/>
      <point x="397" y="-216"/>
      <point x="397" y="-165.333" type="curve"/>
      <point x="336.667" y="-165.333" type="line"/>
      <point x="327" y="-156"/>
      <point x="320" y="-142"/>
    </contour>
  </outline>
</glyph>
<glyph name="gcommaaccent" format="2">
  <advance width="534"/>
  <unicode hex="0123"/>
  <outline>
    <contour>
      <point x="175.333" y="653.333" type="curve" smooth="yes"/>
      <point x="175.333" y="741.909"/>
      <point x="235.993" y="804.427"/>
      <point x="302.667" y="846.667" type="curve"/>
      <point x="332" y="829.333" type="line"/>
      <point x="300.531" y="801.901"/>
      <point x="245.333" y="757.978"/>
      <point x="245.333" y="672" type="curve" smooth="yes"/>
      <point x="245.333" y="666.333" type="line"/>
      <point x="306.667" y="666.333" type="line"/>
      <point x="315.333" y="655.5"/>
      <point x="323.333" y="637.667"/>
      <point x="323.333" y="621.333" type="curve" smooth="yes"/>
      <point x="323.333" y="584"/>
      <point x="298" y="556.667"/>
      <point x="256" y="556.667" type="curve" smooth="yes"/>
      <point x="208" y="556.667"/>
      <point x="175.333" y="597.333"/>
    </contour>
    <contour>
      <point x="31.3333" y="-86" type="curve" smooth="yes"/>
      <point x="31.3333" y="-10.6667"/>
      <point x="83.3333" y="26.3333"/>
      <point x="136.667" y="33" type="curve"/>
      <point x="124.333" y="49"/>
      <point x="117.667" y="65"/>
      <point x="117.667" y="84.6667" type="curve" smooth="yes"/>
      <point x="117.667" y="118.667"/>
      <point x="144.333" y="151"/>
      <point x="176.333" y="171" type="curve"/>
      <point x="120" y="184.333"/>
      <point x="53.3333" y="231.667"/>
      <point x="53.3333" y="322.333" type="curve" smooth="yes"/>
      <point x="53.3333" y="437.667"/>
      <point x="141" y="494"/>
      <point x="253.667" y="494" type="curve" smooth="yes"/>
      <point x="302.333" y="494"/>
      <point x="355" y="480.667"/>
      <point x="385.333" y="463.667" type="curve"/>
      <point x="518.667" y="463.667" type="line"/>
      <point x="518.667" y="411.333" type="line"/>
      <point x="422.667" y="411.333" type="line"/>
      <point x="434" y="393.333"/>
      <point x="447.333" y="365.667"/>
      <point x="447.333" y="326" type="curve" smooth="yes"/>
      <point x="447.333" y="213"/>
      <point x="349.667" y="161"/>
      <point x="255.333" y="161" type="curve" smooth="yes"/>
      <point x="247.667" y="161"/>
      <point x="236.333" y="161.667"/>
      <point x="229" y="162.667" type="curve"/>
      <point x="214.333" y="154"/>
      <point x="203.333" y="139"/>
      <point x="203.333" y="123.333" type="curve" smooth="yes"/>
      <point x="203.333" y="115.333"/>
      <point x="205" y="107.667"/>
      <point x="209.333" y="99.3333" type="curve"/>
      <point x="353.667" y="88.6667"/>
      <point x="491.333" y="64"/>
      <point x="491.333" y="-43.3333" type="curve" smooth="yes"/>
      <point x="491.333" y="-162"/>
      <point x="354.333" y="-232.333"/>
      <point x="228" y="-232.333" type="curve" smooth="yes"/>
      <point x="126.333" y="-232.333"/>
      <point x="31.3333" y="-187"/>
    </contour>
    <contour>
      <point x="136.667" y="-67.3333" type="curve" smooth="yes"/>
      <point x="136.667" y="-135"/>
      <point x="195" y="-182.667"/>
      <point x="260.667" y="-182.667" type="curve" smooth="yes"/>
      <point x="331.667" y="-182.667"/>
      <point x="393" y="-138.667"/>
      <point x="393" y="-69" type="curve" smooth="yes"/>
      <point x="393" y="11"/>
      <point x="250.667" y="21"/>
      <point x="197.667" y="21.6667" type="curve"/>
      <point x="165.667" y="5"/>
      <point x="136.667" y="-19.3333"/>
    </contour>
    <contour>
      <point x="163.333" y="329.667" type="curve" smooth="yes"/>
      <point x="163.333" y="266.667"/>
      <point x="192" y="209"/>
      <point x="253" y="209" type="curve" smooth="yes"/>
      <point x="313.667" y="209"/>
      <point x="340.667" y="268.333"/>
      <point x="340.667" y="331.333" type="curve" smooth="yes"/>
      <point x="340.667" y="391.667"/>
      <point x="312.333" y="451"/>
      <point x="254.333" y="451" type="curve" smooth="yes"/>
      <point x="189.667" y="451"/>
      <point x="163.333" y="394.667"/>
    </contour>
  </outline>
</glyph>
<glyph name="hbar" format="2">
  <advance width="591"/>
  <unicode hex="0127"/>
  <outline>
    <contour>
      <point x="0" y="528.333" type="line"/>
      <point x="0" y="583" type="line"/>
      <point x="89.3333" y="583" type="line"/>
      <point x="89.3333" y="660.333" type="line"/>
      <point x="15.6667" y="660.333" type="line"/>
      <point x="15.6667" y="696" type="line"/>
      <point x="152" y="738.667" type="line"/>
      <point x="196" y="738.667" type="line"/>
      <point x="196" y="583" type="line"/>
      <point x="307.333" y="583" type="line"/>
      <point x="307.333" y="528.333" type="line"/>
      <point x="196" y="528.333" type="line"/>
      <point x="196" y="434.667" type="line"/>
      <point x="224.273" y="452.373"/>
      <point x="296.564" y="496.667"/>
      <point x="364.333" y="496.667" type="curve" smooth="yes"/>
      <point x="463" y="496.667"/>
      <point x="500.667" y="424"/>
      <point x="500.667" y="343.667" type="curve" smooth="yes"/>
      <point x="500.667" y="67.6667" type="line" smooth="yes"/>
      <point x="500.667" y="55.6667"/>
      <point x="511.321" y="46.823"/>
      <point x="522.667" y="46" type="curve" smooth="yes"/>
      <point x="566.667" y="43" type="line"/>
      <point x="566.667" y="1.33333" type="line"/>
      <point x="334" y="1.33333" type="line"/>
      <point x="334" y="43" type="line"/>
      <point x="372" y="46" type="line" smooth="yes"/>
      <point x="383.343" y="46.8706"/>
      <point x="394" y="55.6667"/>
      <point x="394" y="67.6667" type="curve" smooth="yes"/>
      <point x="394" y="318.333" type="line" smooth="yes"/>
      <point x="394" y="373.333"/>
      <point x="370" y="417.333"/>
      <point x="300" y="417.333" type="curve" smooth="yes"/>
      <point x="258" y="417.333"/>
      <point x="215.333" y="404.333"/>
      <point x="196" y="393.667" type="curve"/>
      <point x="196" y="67.6667" type="line" smooth="yes"/>
      <point x="196" y="55.6667"/>
      <point x="205.323" y="46.8457"/>
      <point x="216.667" y="46" type="curve" smooth="yes"/>
      <point x="257" y="43" type="line"/>
      <point x="257" y="1.33333" type="line"/>
      <point x="22.3333" y="1.33333" type="line"/>
      <point x="22.3333" y="43" type="line"/>
      <point x="68" y="46" type="line" smooth="yes"/>
      <point x="79.3463" y="46.7925"/>
      <point x="89.3333" y="55.6667"/>
      <point x="89.3333" y="67.6667" type="curve" smooth="yes"/>
      <point x="89.3333" y="528.333" type="line"/>
    </contour>
  </outline>
</glyph>
<glyph name="itilde" format="2">
  <advance width="313"/>
  <unicode hex="0129"/>
  <outline>
    <contour>
      <point x="-18.6667" y="556.667" type="line"/>
      <point x="-3" y="616.333"/>
      <point x="29" y="671.333"/>
      <point x="98" y="671.333" type="curve" smooth="yes"/>
      <point x="124.667" y="671.333"/>
      <point x="142.667" y="660.333"/>
      <point x="161" y="649" type="curve" smooth="yes"/>
      <point x="181.333" y="636"/>
      <point x="202.667" y="623.667"/>
      <point x="234.667" y="623.667" type="curve" smooth="yes"/>
      <point x="260.333" y="623.667"/>
      <point x="281.667" y="645.333"/>
      <point x="284.667" y="671.333" type="curve"/>
      <point x="329.333" y="671.333" type="line"/>
      <point x="313.667" y="611.667"/>
      <point x="281.333" y="556.667"/>
      <point x="212" y="556.667" type="curve" smooth="yes"/>
      <point x="185.667" y="556.667"/>
      <point x="167" y="567.667"/>
      <point x="148.333" y="579.667" type="curve" smooth="yes"/>
      <point x="128.333" y="592"/>
      <point x="106" y="604.667"/>
      <point x="75.3333" y="604.667" type="curve" smooth="yes"/>
      <point x="49.3333" y="604.667"/>
      <point x="29" y="582.333"/>
      <point x="26" y="556.667" type="curve"/>
    </contour>
    <contour>
      <point x="33.3333" y="0" type="line"/>
      <point x="33.3333" y="41.6667" type="line"/>
      <point x="81.3333" y="44.6667" type="line" smooth="yes"/>
      <point x="92.6667" y="45.6667"/>
      <point x="102.667" y="54.3333"/>
      <point x="102.667" y="66.3333" type="curve" smooth="yes"/>
      <point x="102.667" y="410.333" type="line"/>
      <point x="35.3333" y="410.333" type="line"/>
      <point x="35.3333" y="446" type="line"/>
      <point x="165.333" y="488" type="line"/>
      <point x="209" y="488" type="line"/>
      <point x="209" y="66.3333" type="line" smooth="yes"/>
      <point x="209" y="54.3333"/>
      <point x="219.333" y="45.6667"/>
      <point x="230.667" y="44.6667" type="curve"/>
      <point x="280.667" y="41.6667" type="line"/>
      <point x="280.667" y="0" type="line"/>
    </contour>
  </outline>
</glyph>
<glyph name="Ibreve" format="2">
  <advance width="339"/>
  <unicode hex="012C"/>
  <outline>
    <contour>
      <point x="17.6667" y="900" type="curve"/>
      <point x="61" y="900" type="line"/>
      <point x="71.4577" y="849.351"/>
      <point x="112.345" y="818.667"/>
      <point x="169.667" y="818.667" type="curve" smooth="yes"/>
      <point x="226.695" y="818.667"/>
      <point x="266.593" y="848.655"/>
      <point x="277" y="900" type="curve"/>
      <point x="321.667" y="900" type="line"/>
      <point x="321.667" y="807.865"/>
      <point x="260.197" y="746.333"/>
      <point x="169" y="746.333" type="curve" smooth="yes"/>
      <point x="77.6667" y="746.333"/>
      <point x="17.6667" y="807.333"/>
    </contour>
    <contour>
      <point x="29.6667" y="0" type="line"/>
      <point x="29.6667" y="45.6667" type="line"/>
      <point x="90.3333" y="50" type="line" smooth="yes"/>
      <point x="102.333" y="51"/>
      <point x="111.667" y="59.6667"/>
      <point x="111.667" y="72" type="curve" smooth="yes"/>
      <point x="111.667" y="599" type="line" smooth="yes"/>
      <point x="111.667" y="611.333"/>
      <point x="102.333" y="619.333"/>
      <point x="90.3333" y="620.333" type="curve" smooth="yes"/>
      <point x="29.6667" y="624.667" type="line"/>
      <point x="29.6667" y="671" type="line"/>
      <point x="309.667" y="671" type="line"/>
      <point x="309.667" y="624.667" type="line"/>
      <point x="248.333" y="620.333" type="line" smooth="yes"/>
      <point x="237.333" y="619.333"/>
      <point x="226.667" y="610.667"/>
      <point x="226.667" y="599" type="curve" smooth="yes"/>
      <point x="226.667" y="72" type="line" smooth="yes"/>
      <point x="226.667" y="60.3333"/>
      <point x="237.333" y="51"/>
      <point x="248.333" y="50" type="curve" smooth="yes"/>
      <point x="309.667" y="45.6667" type="line"/>
      <point x="309.667" y="0" type="line"/>
    </contour>
  </outline>
</glyph>
<glyph name="Iogonek" format="2">
  <advance width="339"/>
  <unicode hex="012E"/>
  <outline>
    <contour>
      <point x="29.6667" y="0" type="line"/>
      <point x="29.6667" y="45.6667" type="line"/>
      <point x="90.3333" y="50" type="line" smooth="yes"/>
      <point x="102.333" y="51"/>
      <point x="111.667" y="59.6667"/>
      <point x="111.667" y="72" type="curve" smooth="yes"/>
      <point x="111.667" y="599" type="line" smooth="yes"/>
      <point x="111.667" y="611.333"/>
      <point x="102.333" y="619.333"/>
      <point x="90.3333" y="620.333" type="curve" smooth="yes"/>
      <point x="29.6667" y="624.667" type="line"/>
      <point x="29.6667" y="671" type="line"/>
      <point x="309.667" y="671" type="line"/>
      <point x="309.667" y="624.667" type="line"/>
      <point x="248.333" y="620.333" type="line" smooth="yes"/>
      <point x="237.333" y="619.333"/>
      <point x="226.667" y="610.667"/>
      <point x="226.667" y="599" type="curve" smooth="yes"/>
      <point x="226.667" y="72" type="line" smooth="yes"/>
      <point x="226.667" y="60.3333"/>
      <point x="237.333" y="51"/>
      <point x="248.333" y="50" type="curve" smooth="yes"/>
      <point x="309.667" y="45.6667" type="line"/>
      <point x="309.667" y="0" type="line"/>
    </contour>
    <contour>
      <point x="69.6667" y="-109.044" type="curve" smooth="yes"/>
      <point x="69.6667" y="-60.3776"/>
      <point x="104.333" y="-18.3776"/>
      <point x="143.667" y="6.6224" type="curve"/>
      <point x="195.667" y="6.6224" type="line"/>
      <point x="164.333" y="-15.3776"/>
      <point x="139" y="-46.7109"/>
      <point x="139" y="-86.3776" type="curve" smooth="yes"/>
      <point x="139" y="-121.711"/>
      <point x="157.667" y="-139.044"/>
      <point x="189" y="-139.044" type="curve" smooth="yes"/>
      <point x="208.333" y="-139.044"/>
      <point x="225.667" y="-130.044"/>
      <point x="237.667" y="-121.377" type="curve"/>
      <point x="262.333" y="-162.711" type="line"/>
      <point x="235.667" y="-182.377"/>
      <point x="206" y="-191.711"/>
      <point x="170.333" y="-191.711" type="curve" smooth="yes"/>
      <point x="112.667" y="-191.711"/>
      <point x="69.6667" y="-163.711"/>
    </contour>
  </outline>
</glyph>
<glyph name="kcommaaccent" format="2">
  <advance width="553"/>
  <unicode hex="0137"/>
  <outline>
    <contour>
      <point x="16" y="659.667" type="line"/>
      <point x="16" y="695.333" type="line"/>
      <point x="152" y="738" type="line"/>
      <point x="196.333" y="738" type="line"/>
      <point x="196.333" y="257.333" type="line"/>
      <point x="217" y="257.333" type="line"/>
      <point x="359.667" y="421.333" type="line"/>
      <point x="361.567" y="423.644"/>
      <point x="362.536" y="426.459"/>
      <point x="362.536" y="429.333" type="curve" smooth="yes"/>
      <point x="362.536" y="434.172"/>
      <point x="358.313" y="437.579"/>
      <point x="352" y="438.333" type="curve" smooth="yes"/>
      <point x="312" y="442.333" type="line"/>
      <point x="312" y="484" type="line"/>
      <point x="510.667" y="484" type="line"/>
      <point x="510.667" y="442.333" type="line"/>
      <point x="446" y="435" type="line"/>
      <point x="322.333" y="300.333" type="line"/>
      <point x="488.333" y="47.3333" type="line"/>
      <point x="543.333" y="41.6667" type="line"/>
      <point x="543.333" y="0" type="line"/>
      <point x="369.333" y="0" type="line"/>
      <point x="369.333" y="39.6667" type="line"/>
      <point x="249.333" y="226.667" type="line"/>
      <point x="196.333" y="226.667" type="line"/>
      <point x="196.333" y="66.3333" type="line" smooth="yes"/>
      <point x="196.333" y="54.3333"/>
      <point x="206" y="45.6667"/>
      <point x="217.667" y="44.6667" type="curve" smooth="yes"/>
      <point x="259.667" y="41.6667" type="line"/>
      <point x="259.667" y="0" type="line"/>
      <point x="22" y="0" type="line"/>
      <point x="22" y="41.6667" type="line"/>
      <point x="68.6667" y="44.6667" type="line" smooth="yes"/>
      <point x="80" y="45.6667"/>
      <point x="90" y="54.3333"/>
      <point x="90" y="66.3333" type="curve" smooth="yes"/>
      <point x="90" y="659.667" type="line"/>
    </contour>
    <contour>
      <point x="219" y="-104.667" type="curve" smooth="yes"/>
      <point x="219" y="-72.3333"/>
      <point x="246.667" y="-54"/>
      <point x="278.333" y="-54" type="curve" smooth="yes"/>
      <point x="326" y="-54"/>
      <point x="354.333" y="-88.6667"/>
      <point x="354.333" y="-137" type="curve" smooth="yes"/>
      <point x="354.333" y="-210.11"/>
      <point x="293.721" y="-251.769"/>
      <point x="224.667" y="-264" type="curve"/>
      <point x="224.667" y="-230.667" type="line"/>
      <point x="268.333" y="-217.667"/>
      <point x="296" y="-194.667"/>
      <point x="296" y="-144" type="curve"/>
      <point x="235.667" y="-144" type="line"/>
      <point x="226" y="-134.667"/>
      <point x="219" y="-120.667"/>
    </contour>
  </outline>
</glyph>
<glyph name="kgreenlandic" format="2">
  <advance width="566"/>
  <unicode hex="0138"/>
  <outline>
    <contour>
      <point x="16" y="405.667" type="line"/>
      <point x="16" y="441.333" type="line"/>
      <point x="152" y="484" type="line"/>
      <point x="196.333" y="484" type="line"/>
      <point x="196.333" y="67" type="line" smooth="yes"/>
      <point x="196.333" y="55"/>
      <point x="205.989" y="45.5124"/>
      <point x="217.667" y="44.6667" type="curve" smooth="yes"/>
      <point x="259.667" y="41.6667" type="line"/>
      <point x="259.667" y="0" type="line"/>
      <point x="22" y="0" type="line"/>
      <point x="22" y="41.6667" type="line"/>
      <point x="68.6667" y="44.6667" type="line" smooth="yes"/>
      <point x="80.0133" y="45.4498"/>
      <point x="90" y="55"/>
      <point x="90" y="67" type="curve" smooth="yes"/>
      <point x="90" y="405.667" type="line"/>
    </contour>
    <contour>
      <point x="180.333" y="226.667" type="line"/>
      <point x="180.333" y="257.333" type="line"/>
      <point x="217" y="257.333" type="line"/>
      <point x="359.667" y="421.333" type="line"/>
      <point x="361.729" y="423.575"/>
      <point x="362.842" y="426.119"/>
      <point x="362.842" y="428.667" type="curve" smooth="yes"/>
      <point x="362.842" y="433.629"/>
      <point x="358.538" y="437.557"/>
      <point x="352" y="438.333" type="curve" smooth="yes"/>
      <point x="312" y="442.333" type="line"/>
      <point x="312" y="484" type="line"/>
      <point x="510.667" y="484" type="line"/>
      <point x="510.667" y="442.333" type="line"/>
      <point x="446" y="435" type="line"/>
      <point x="322.333" y="300.333" type="line"/>
      <point x="488.333" y="47.3333" type="line"/>
      <point x="543.333" y="41.6667" type="line"/>
      <point x="543.333" y="0" type="line"/>
      <point x="369.333" y="0" type="line"/>
      <point x="369.333" y="39.6667" type="line"/>
      <point x="249.333" y="226.667" type="line"/>
    </contour>
  </outline>
</glyph>
<glyph name="Lacute" format="2">
  <advance width="538"/>
  <unicode hex="0139"/>
  <outline>
    <contour>
      <point x="27" y="0" type="line"/>
      <point x="27" y="45.6667" type="line"/>
      <point x="84" y="50" type="line" smooth="yes"/>
      <point x="96" y="51"/>
      <point x="105.333" y="59.6667"/>
      <point x="105.333" y="72" type="curve" smooth="yes"/>
      <point x="105.333" y="599" type="line" smooth="yes"/>
      <point x="105.333" y="611.333"/>
      <point x="96" y="620"/>
      <point x="84" y="621" type="curve" smooth="yes"/>
      <point x="27" y="625.333" type="line"/>
      <point x="27" y="671" type="line"/>
      <point x="296.333" y="671" type="line"/>
      <point x="296.333" y="625.333" type="line"/>
      <point x="242.333" y="621" type="line" smooth="yes"/>
      <point x="230.333" y="620"/>
      <point x="220.333" y="611.333"/>
      <point x="220.333" y="599" type="curve" smooth="yes"/>
      <point x="220.333" y="53" type="line"/>
      <point x="418.333" y="53" type="line" smooth="yes"/>
      <point x="429.667" y="53"/>
      <point x="440" y="63.3333"/>
      <point x="441" y="72" type="curve" smooth="yes"/>
      <point x="456" y="190.333" type="line"/>
      <point x="521.333" y="190.333" type="line"/>
      <point x="521.333" y="0" type="line"/>
    </contour>
    <contour>
      <point x="120.333" y="746.333" type="line"/>
      <point x="254" y="900" type="line" smooth="yes"/>
      <point x="269.667" y="918.333"/>
      <point x="282.667" y="928.667"/>
      <point x="310.333" y="928.667" type="curve" smooth="yes"/>
      <point x="344.439" y="928.667"/>
      <point x="361" y="908.059"/>
      <point x="361" y="881" type="curve" smooth="yes"/>
      <point x="361" y="864"/>
      <point x="349.008" y="847.654"/>
      <point x="337" y="840.333" type="curve" smooth="yes"/>
      <point x="181" y="746.333" type="line"/>
    </contour>
  </outline>
</glyph>
<glyph name="lcommaaccent" format="2">
  <advance width="308"/>
  <unicode hex="013C"/>
  <outline>
    <contour>
      <point x="27" y="659.667" type="line"/>
      <point x="27" y="695.333" type="line"/>
      <point x="163.333" y="738" type="line"/>
      <point x="207.667" y="738" type="line"/>
      <point x="207.667" y="66.3333" type="line" smooth="yes"/>
      <point x="207.667" y="56"/>
      <point x="218.667" y="45"/>
      <point x="229" y="44.6667" type="curve" smooth="yes"/>
      <point x="281.667" y="41.6667" type="line"/>
      <point x="281.667" y="0" type="line"/>
      <point x="27.6667" y="0" type="line"/>
      <point x="27.6667" y="41.6667" type="line"/>
      <point x="79.3333" y="44.6667" type="line" smooth="yes"/>
      <point x="89.6667" y="45"/>
      <point x="101.333" y="56"/>
      <point x="101.333" y="66.3333" type="curve" smooth="yes"/>
      <point x="101.333" y="659.667" type="line"/>
    </contour>
    <contour>
      <point x="87" y="-110.667" type="curve" smooth="yes"/>
      <point x="87" y="-78.3333"/>
      <point x="114.667" y="-60"/>
      <point x="146.333" y="-60" type="curve" smooth="yes"/>
      <point x="194" y="-60"/>
      <point x="222.333" y="-94.6667"/>
      <point x="222.333" y="-143" type="curve" smooth="yes"/>
      <point x="222.333" y="-216.11"/>
      <point x="161.721" y="-257.769"/>
      <point x="92.6667" y="-270" type="curve"/>
      <point x="92.6667" y="-236.667" type="line"/>
      <point x="136.333" y="-223.667"/>
      <point x="164" y="-200.667"/>
      <point x="164" y="-150" type="curve"/>
      <point x="103.667" y="-150" type="line"/>
      <point x="94" y="-140.667"/>
      <point x="87" y="-126.667"/>
    </contour>
  </outline>
</glyph>
<glyph name="Lcaron" format="2">
  <advance width="538"/>
  <unicode hex="013D"/>
  <outline>
    <contour>
      <point x="27" y="0" type="line"/>
      <point x="27" y="45.6667" type="line"/>
      <point x="84" y="50" type="line" smooth="yes"/>
      <point x="96" y="51"/>
      <point x="105.333" y="59.6667"/>
      <point x="105.333" y="72" type="curve" smooth="yes"/>
      <point x="105.333" y="599" type="line" smooth="yes"/>
      <point x="105.333" y="611.333"/>
      <point x="96" y="620"/>
      <point x="84" y="621" type="curve" smooth="yes"/>
      <point x="27" y="625.333" type="line"/>
      <point x="27" y="671" type="line"/>
      <point x="296.333" y="671" type="line"/>
      <point x="296.333" y="625.333" type="line"/>
      <point x="242.333" y="621" type="line" smooth="yes"/>
      <point x="230.333" y="620"/>
      <point x="220.333" y="611.333"/>
      <point x="220.333" y="599" type="curve" smooth="yes"/>
      <point x="220.333" y="53" type="line"/>
      <point x="418.333" y="53" type="line" smooth="yes"/>
      <point x="429.667" y="53"/>
      <point x="440" y="63.3333"/>
      <point x="441" y="72" type="curve" smooth="yes"/>
      <point x="456" y="190.333" type="line"/>
      <point x="521.333" y="190.333" type="line"/>
      <point x="521.333" y="0" type="line"/>
    </contour>
    <contour>
      <point x="348" y="414.333" type="line"/>
      <point x="402.551" y="455.485"/>
      <point x="432.795" y="498.533"/>
      <point x="434.333" y="567.667" type="curve"/>
      <point x="434.333" y="576.333" type="line"/>
      <point x="372.667" y="576.333" type="line"/>
      <point x="365.667" y="585"/>
      <point x="356" y="599.667"/>
      <point x="356" y="621.333" type="curve" smooth="yes"/>
      <point x="356" y="659.333"/>
      <point x="378.745" y="686.333"/>
      <point x="419.667" y="686.333" type="curve" smooth="yes"/>
      <point x="472.731" y="686.333"/>
      <point x="505" y="645.761"/>
      <point x="505" y="589.667" type="curve" smooth="yes"/>
      <point x="505" y="480.676"/>
      <point x="421.814" y="422.699"/>
      <point x="377.667" y="396.333" type="curve"/>
    </contour>
  </outline>
</glyph>
<glyph name="lcaron" format="2">
  <advance width="428"/>
  <unicode hex="013E"/>
  <outline>
    <contour>
      <point x="27" y="659.667" type="line"/>
      <point x="27" y="695.333" type="line"/>
      <point x="163.333" y="738" type="line"/>
      <point x="207.667" y="738" type="line"/>
      <point x="207.667" y="66.3333" type="line" smooth="yes"/>
      <point x="207.667" y="56"/>
      <point x="218.667" y="45"/>
      <point x="229" y="44.6667" type="curve" smooth="yes"/>
      <point x="281.667" y="41.6667" type="line"/>
      <point x="281.667" y="0" type="line"/>
      <point x="27.6667" y="0" type="line"/>
      <point x="27.6667" y="41.6667" type="line"/>
      <point x="79.3333" y="44.6667" type="line" smooth="yes"/>
      <point x="89.6667" y="45"/>
      <point x="101.333" y="56"/>
      <point x="101.333" y="66.3333" type="curve" smooth="yes"/>
      <point x="101.333" y="659.667" type="line"/>
    </contour>
    <contour>
      <point x="244" y="466" type="line"/>
      <point x="298.551" y="507.152"/>
      <point x="328.795" y="550.2"/>
      <point x="330.333" y="619.333" type="curve"/>
      <point x="330.333" y="628" type="line"/>
      <point x="268.667" y="628" type="line"/>
      <point x="261.667" y="636.667"/>
      <point x="252" y="651.333"/>
      <point x="252" y="673" type="curve" smooth="yes"/>
      <point x="252" y="711"/>
      <point x="274.745" y="738"/>
      <point x="315.667" y="738" type="curve" smooth="yes"/>
      <point x="368.731" y="738"/>
      <point x="401" y="697.427"/>
      <point x="401" y="641.333" type="curve" smooth="yes"/>
      <point x="401" y="532.343"/>
      <point x="317.814" y="474.366"/>
      <point x="273.667" y="448" type="curve"/>
    </contour>
  </outline>
</glyph>
<glyph name="Ldot" format="2">
  <advance width="538"/>
  <unicode hex="013F"/>
  <outline>
    <contour>
      <point x="27" y="0" type="line"/>
      <point x="27" y="45.6667" type="line"/>
      <point x="84" y="50" type="line" smooth="yes"/>
      <point x="96" y="51"/>
      <point x="105.333" y="59.6667"/>
      <point x="105.333" y="72" type="curve" smooth="yes"/>
      <point x="105.333" y="599" type="line" smooth="yes"/>
      <point x="105.333" y="611.333"/>
      <point x="96" y="620"/>
      <point x="84" y="621" type="curve" smooth="yes"/>
      <point x="27" y="625.333" type="line"/>
      <point x="27" y="671" type="line"/>
      <point x="296.333" y="671" type="line"/>
      <point x="296.333" y="625.333" type="line"/>
      <point x="242.333" y="621" type="line" smooth="yes"/>
      <point x="230.333" y="620"/>
      <point x="220.333" y="611.333"/>
      <point x="220.333" y="599" type="curve" smooth="yes"/>
      <point x="220.333" y="53" type="line"/>
      <point x="418.333" y="53" type="line" smooth="yes"/>
      <point x="429.667" y="53"/>
      <point x="440" y="63.3333"/>
      <point x="441" y="72" type="curve" smooth="yes"/>
      <point x="456" y="190.333" type="line"/>
      <point x="521.333" y="190.333" type="line"/>
      <point x="521.333" y="0" type="line"/>
    </contour>
    <contour>
      <point x="302" y="343.333" type="curve" smooth="yes"/>
      <point x="302" y="377"/>
      <point x="327" y="402"/>
      <point x="360.667" y="402" type="curve" smooth="yes"/>
      <point x="394.333" y="402"/>
      <point x="420" y="377"/>
      <point x="420" y="343.333" type="curve" smooth="yes"/>
      <point x="420" y="309.667"/>
      <point x="394.333" y="284"/>
      <point x="360.667" y="284" type="curve" smooth="yes"/>
      <point x="327" y="284"/>
      <point x="302" y="309.667"/>
    </contour>
  </outline>
</glyph>
<glyph name="Ncommaaccent" format="2">
  <advance width="729"/>
  <unicode hex="0145"/>
  <outline>
    <contour>
      <point x="26" y="625.333" type="line"/>
      <point x="26" y="671" type="line"/>
      <point x="240.333" y="671" type="line"/>
      <point x="240.333" y="645.333" type="line"/>
      <point x="558.333" y="159.667" type="line"/>
      <point x="558.333" y="599" type="line" smooth="yes"/>
      <point x="558.333" y="610.667"/>
      <point x="548" y="620"/>
      <point x="536.667" y="621" type="curve" smooth="yes"/>
      <point x="479.667" y="625.333" type="line"/>
      <point x="479.667" y="671" type="line"/>
      <point x="699.667" y="671" type="line"/>
      <point x="699.667" y="625.333" type="line"/>
      <point x="644.333" y="621" type="line" smooth="yes"/>
      <point x="632.667" y="620"/>
      <point x="623" y="611.333"/>
      <point x="623" y="599" type="curve" smooth="yes"/>
      <point x="623" y="0" type="line"/>
      <point x="530.333" y="0" type="line"/>
      <point x="170" y="549.667" type="line"/>
      <point x="170" y="72" type="line" smooth="yes"/>
      <point x="170" y="59.6667"/>
      <point x="179.667" y="51"/>
      <point x="191.333" y="50" type="curve" smooth="yes"/>
      <point x="248" y="45.6667" type="line"/>
      <point x="248" y="0" type="line"/>
      <point x="27" y="0" type="line"/>
      <point x="27" y="45.6667" type="line"/>
      <point x="83.3333" y="50" type="line" smooth="yes"/>
      <point x="95.3333" y="51"/>
      <point x="105.333" y="59.6667"/>
      <point x="105.333" y="72" type="curve" smooth="yes"/>
      <point x="105.333" y="599" type="line" smooth="yes"/>
      <point x="105.333" y="611.333"/>
      <point x="95.3333" y="620"/>
      <point x="83.3333" y="621" type="curve" smooth="yes"/>
    </contour>
    <contour>
      <point x="297.333" y="-110.667" type="curve" smooth="yes"/>
      <point x="297.333" y="-78.3333"/>
      <point x="325" y="-60"/>
      <point x="356.667" y="-60" type="curve" smooth="yes"/>
      <point x="404.333" y="-60"/>
      <point x="432.667" y="-94.6667"/>
      <point x="432.667" y="-143" type="curve" smooth="yes"/>
      <point x="432.667" y="-216.11"/>
      <point x="372.054" y="-257.769"/>
      <point x="303" y="-270" type="curve"/>
      <point x="303" y="-236.667" type="line"/>
      <point x="346.667" y="-223.667"/>
      <point x="374.333" y="-200.667"/>
      <point x="374.333" y="-150" type="curve"/>
      <point x="314" y="-150" type="line"/>
      <point x="304.333" y="-140.667"/>
      <point x="297.333" y="-126.667"/>
    </contour>
  </outline>
</glyph>
<glyph name="ncommaaccent" format="2">
  <advance width="586"/>
  <unicode hex="0146"/>
  <outline>
    <contour>
      <point x="21" y="406" type="line"/>
      <point x="21" y="441.667" type="line"/>
      <point x="152.333" y="484" type="line"/>
      <point x="197" y="484" type="line"/>
      <point x="197" y="434.333" type="line"/>
      <point x="260.895" y="476.355"/>
      <point x="314.553" y="496"/>
      <point x="365.333" y="496" type="curve" smooth="yes"/>
      <point x="452.974" y="496"/>
      <point x="500" y="439.811"/>
      <point x="500" y="335.333" type="curve" smooth="yes"/>
      <point x="500" y="66.3333" type="line" smooth="yes"/>
      <point x="500" y="54.3333"/>
      <point x="510.333" y="45.6667"/>
      <point x="521.667" y="44.6667" type="curve" smooth="yes"/>
      <point x="561.333" y="41.6667" type="line"/>
      <point x="561.333" y="0" type="line"/>
      <point x="332" y="0" type="line"/>
      <point x="332" y="41.6667" type="line"/>
      <point x="372.333" y="44.6667" type="line" smooth="yes"/>
      <point x="383.667" y="45.6667"/>
      <point x="393.667" y="54.3333"/>
      <point x="393.667" y="66.3333" type="curve" smooth="yes"/>
      <point x="393.667" y="318.667" type="line" smooth="yes"/>
      <point x="393.667" y="383.566"/>
      <point x="363.11" y="416.667"/>
      <point x="302.333" y="416.667" type="curve" smooth="yes"/>
      <point x="259.437" y="416.667"/>
      <point x="221.011" y="405.806"/>
      <point x="197" y="393" type="curve"/>
      <point x="197" y="66.3333" type="line" smooth="yes"/>
      <point x="197" y="54.3333"/>
      <point x="207.333" y="45.6667"/>
      <point x="218.667" y="44.6667" type="curve" smooth="yes"/>
      <point x="256.667" y="41.6667" type="line"/>
      <point x="256.667" y="0" type="line"/>
      <point x="24.6667" y="0" type="line"/>
      <point x="24.6667" y="41.6667" type="line"/>
      <point x="69.3333" y="44.6667" type="line" smooth="yes"/>
      <point x="80.6667" y="45.6667"/>
      <point x="90.6667" y="54.3333"/>
      <point x="90.6667" y="66.3333" type="curve" smooth="yes"/>
      <point x="90.6667" y="406" type="line"/>
    </contour>
    <contour>
      <point x="225.333" y="-110" type="curve" smooth="yes"/>
      <point x="225.333" y="-77.6667"/>
      <point x="253" y="-59.3333"/>
      <point x="284.667" y="-59.3333" type="curve" smooth="yes"/>
      <point x="332.333" y="-59.3333"/>
      <point x="360.667" y="-94"/>
      <point x="360.667" y="-142.333" type="curve" smooth="yes"/>
      <point x="360.667" y="-215.443"/>
      <point x="300.054" y="-257.102"/>
      <point x="231" y="-269.333" type="curve"/>
      <point x="231" y="-236" type="line"/>
      <point x="274.667" y="-223"/>
      <point x="302.333" y="-200"/>
      <point x="302.333" y="-149.333" type="curve"/>
      <point x="242" y="-149.333" type="line"/>
      <point x="232.333" y="-140"/>
      <point x="225.333" y="-126"/>
    </contour>
  </outline>
</glyph>
<glyph name="napostrophe" format="2">
  <advance width="740"/>
  <unicode hex="0149"/>
  <outline>
    <contour>
      <point x="39" y="432.333" type="line"/>
      <point x="93.5508" y="473.485"/>
      <point x="123.795" y="516.533"/>
      <point x="125.333" y="585.667" type="curve"/>
      <point x="125.333" y="594.333" type="line"/>
      <point x="63.6667" y="594.333" type="line"/>
      <point x="56.6667" y="603"/>
      <point x="47" y="617.667"/>
      <point x="47" y="639.333" type="curve" smooth="yes"/>
      <point x="47" y="677.333"/>
      <point x="69.7448" y="704.333"/>
      <point x="110.667" y="704.333" type="curve" smooth="yes"/>
      <point x="163.731" y="704.333"/>
      <point x="196" y="663.761"/>
      <point x="196" y="607.667" type="curve" smooth="yes"/>
      <point x="196" y="498.676"/>
      <point x="112.814" y="440.699"/>
      <point x="68.6667" y="414.333" type="curve"/>
    </contour>
    <contour>
      <point x="175" y="406" type="line"/>
      <point x="175" y="441.667" type="line"/>
      <point x="306.333" y="484" type="line"/>
      <point x="351" y="484" type="line"/>
      <point x="351" y="434.333" type="line"/>
      <point x="414.895" y="476.355"/>
      <point x="468.553" y="496"/>
      <point x="519.333" y="496" type="curve" smooth="yes"/>
      <point x="606.974" y="496"/>
      <point x="654" y="439.811"/>
      <point x="654" y="335.333" type="curve" smooth="yes"/>
      <point x="654" y="66.3333" type="line" smooth="yes"/>
      <point x="654" y="54.3333"/>
      <point x="664.333" y="45.6667"/>
      <point x="675.667" y="44.6667" type="curve" smooth="yes"/>
      <point x="715.333" y="41.6667" type="line"/>
      <point x="715.333" y="0" type="line"/>
      <point x="486" y="0" type="line"/>
      <point x="486" y="41.6667" type="line"/>
      <point x="526.333" y="44.6667" type="line" smooth="yes"/>
      <point x="537.667" y="45.6667"/>
      <point x="547.667" y="54.3333"/>
      <point x="547.667" y="66.3333" type="curve" smooth="yes"/>
      <point x="547.667" y="318.667" type="line" smooth="yes"/>
      <point x="547.667" y="383.566"/>
      <point x="517.11" y="416.667"/>
      <point x="456.333" y="416.667" type="curve" smooth="yes"/>
      <point x="413.437" y="416.667"/>
      <point x="375.011" y="405.806"/>
      <point x="351" y="393" type="curve"/>
      <point x="351" y="66.3333" type="line" smooth="yes"/>
      <point x="351" y="54.3333"/>
      <point x="361.333" y="45.6667"/>
      <point x="372.667" y="44.6667" type="curve" smooth="yes"/>
      <point x="410.667" y="41.6667" type="line"/>
      <point x="410.667" y="0" type="line"/>
      <point x="178.667" y="0" type="line"/>
      <point x="178.667" y="41.6667" type="line"/>
      <point x="223.333" y="44.6667" type="line" smooth="yes"/>
      <point x="234.667" y="45.6667"/>
      <point x="244.667" y="54.3333"/>
      <point x="244.667" y="66.3333" type="curve" smooth="yes"/>
      <point x="244.667" y="406" type="line"/>
    </contour>
  </outline>
</glyph>
<glyph name="Eng" format="2">
  <advance width="737"/>
  <unicode hex="014A"/>
  <outline>
    <contour>
      <point x="32.3333" y="0" type="line"/>
      <point x="32.3333" y="45.6667" type="line"/>
      <point x="84.6667" y="50" type="line" smooth="yes"/>
      <point x="96.3333" y="51"/>
      <point x="106" y="61.3333"/>
      <point x="106" y="73.6667" type="curve" smooth="yes"/>
      <point x="106" y="603.333" type="line" smooth="yes"/>
      <point x="106" y="612"/>
      <point x="97.3333" y="619.667"/>
      <point x="87.6667" y="620.333" type="curve" smooth="yes"/>
      <point x="29" y="625.333" type="line"/>
      <point x="29" y="671" type="line"/>
      <point x="221.333" y="671" type="line"/>
      <point x="221.333" y="596.333" type="line"/>
      <point x="284.56" y="655.39"/>
      <point x="362.205" y="687"/>
      <point x="434.667" y="687" type="curve" smooth="yes"/>
      <point x="564.844" y="687"/>
      <point x="648" y="603.053"/>
      <point x="648" y="471" type="curve" smooth="yes"/>
      <point x="648" y="-26.3333" type="line" smooth="yes"/>
      <point x="648" y="-145.285"/>
      <point x="569.857" y="-230.333"/>
      <point x="453.667" y="-230.333" type="curve" smooth="yes"/>
      <point x="383.005" y="-230.333"/>
      <point x="330" y="-204.687"/>
      <point x="330" y="-146" type="curve" smooth="yes"/>
      <point x="330" y="-112.104"/>
      <point x="354.667" y="-82.3333"/>
      <point x="386.333" y="-77" type="curve"/>
      <point x="459" y="-170.667" type="line"/>
      <point x="517.667" y="-170.667"/>
      <point x="533" y="-122"/>
      <point x="533" y="-61.6667" type="curve" smooth="yes"/>
      <point x="533" y="456" type="line" smooth="yes"/>
      <point x="533" y="539.72"/>
      <point x="474.599" y="601.667"/>
      <point x="394" y="601.667" type="curve" smooth="yes"/>
      <point x="337.756" y="601.667"/>
      <point x="269.245" y="576.395"/>
      <point x="221" y="535.667" type="curve"/>
      <point x="221" y="73.6667" type="line" smooth="yes"/>
      <point x="221" y="61.3333"/>
      <point x="231" y="53.3333"/>
      <point x="242.667" y="52" type="curve" smooth="yes"/>
      <point x="302.333" y="45.6667" type="line"/>
      <point x="302.333" y="0" type="line"/>
    </contour>
  </outline>
</glyph>
<glyph name="scedilla" format="2">
  <advance width="413"/>
  <unicode hex="015F"/>
  <outline>
    <contour>
      <point x="32.6667" y="12.3333" type="curve"/>
      <point x="32.6667" y="151.667" type="line"/>
      <point x="87.6667" y="151.667" type="line"/>
      <point x="99.6667" y="64.3333" type="line"/>
      <point x="118.667" y="51"/>
      <point x="157" y="35.6667"/>
      <point x="190" y="35.6667" type="curve" smooth="yes"/>
      <point x="239.667" y="35.6667"/>
      <point x="278.667" y="64"/>
      <point x="278.667" y="109.667" type="curve" smooth="yes"/>
      <point x="278.667" y="153"/>
      <point x="245.372" y="174.376"/>
      <point x="195.667" y="197.667" type="curve" smooth="yes"/>
      <point x="129" y="229.333" type="line" smooth="yes"/>
      <point x="74.1419" y="255.01"/>
      <point x="39.3333" y="290.133"/>
      <point x="39.3333" y="346.667" type="curve" smooth="yes"/>
      <point x="39.3333" y="445.262"/>
      <point x="118.333" y="495.333"/>
      <point x="226.333" y="495.333" type="curve" smooth="yes"/>
      <point x="276.667" y="495.333"/>
      <point x="334" y="483.667"/>
      <point x="365.333" y="471.667" type="curve"/>
      <point x="365.333" y="347" type="line"/>
      <point x="310" y="347" type="line"/>
      <point x="301" y="420.333" type="line"/>
      <point x="286" y="433.333"/>
      <point x="254.667" y="446"/>
      <point x="224.333" y="446" type="curve" smooth="yes"/>
      <point x="188" y="446"/>
      <point x="144.667" y="428"/>
      <point x="144.667" y="379.667" type="curve" smooth="yes"/>
      <point x="144.667" y="340"/>
      <point x="171.576" y="319.389"/>
      <point x="217" y="297.333" type="curve" smooth="yes"/>
      <point x="277.667" y="268.667" type="line" smooth="yes"/>
      <point x="345.019" y="236.257"/>
      <point x="380" y="210.068"/>
      <point x="380" y="145.333" type="curve" smooth="yes"/>
      <point x="380" y="39.3887"/>
      <point x="299.333" y="-13.3333"/>
      <point x="184.667" y="-13.3333" type="curve" smooth="yes"/>
      <point x="116" y="-13.3333"/>
      <point x="58" y="3"/>
    </contour>
    <contour>
      <point x="114.333" y="-226.889" type="curve"/>
      <point x="114.333" y="-184.222" type="line"/>
      <point x="126.333" y="-186.889"/>
      <point x="154" y="-192.222"/>
      <point x="176" y="-192.222" type="curve" smooth="yes"/>
      <point x="206" y="-192.222"/>
      <point x="238.333" y="-184.222"/>
      <point x="238.333" y="-153.555" type="curve" smooth="yes"/>
      <point x="238.333" y="-128.222"/>
      <point x="220.667" y="-117.555"/>
      <point x="199" y="-117.555" type="curve" smooth="yes"/>
      <point x="190" y="-117.555"/>
      <point x="176.333" y="-119.555"/>
      <point x="169.667" y="-122.222" type="curve"/>
      <point x="169.667" y="-5.222" type="line"/>
      <point x="213" y="-5.222" type="line"/>
      <point x="213" y="-71.222" type="line"/>
      <point x="219.333" y="-68.8887"/>
      <point x="224.333" y="-67.8887"/>
      <point x="233" y="-67.8887" type="curve" smooth="yes"/>
      <point x="279" y="-67.8887"/>
      <point x="309" y="-92.222"/>
      <point x="309" y="-140.555" type="curve" smooth="yes"/>
      <point x="309" y="-205.555"/>
      <point x="258.333" y="-237.222"/>
      <point x="190.667" y="-237.222" type="curve" smooth="yes"/>
      <point x="159" y="-237.222"/>
      <point x="128.333" y="-230.889"/>
    </contour>
  </outline>
</glyph>
<glyph name="uni0163" format="2">
  <advance width="351"/>
  <unicode hex="0163"/>
  <outline>
    <contour>
      <point x="125.333" y="-225.778" type="curve"/>
      <point x="125.333" y="-183.111" type="line"/>
      <point x="143.833" y="-187.111"/>
      <point x="169" y="-191.111"/>
      <point x="187" y="-191.111" type="curve" smooth="yes"/>
      <point x="217" y="-191.111"/>
      <point x="249.333" y="-183.111"/>
      <point x="249.333" y="-152.445" type="curve" smooth="yes"/>
      <point x="249.333" y="-127.111"/>
      <point x="231.667" y="-116.445"/>
      <point x="210" y="-116.445" type="curve" smooth="yes"/>
      <point x="201" y="-116.445"/>
      <point x="187.333" y="-118.445"/>
      <point x="180.667" y="-121.111" type="curve"/>
      <point x="180.667" y="-4.11134" type="line"/>
      <point x="224" y="-4.11134" type="line"/>
      <point x="224" y="-70.1113" type="line"/>
      <point x="230.333" y="-67.778"/>
      <point x="235.333" y="-66.778"/>
      <point x="244" y="-66.778" type="curve" smooth="yes"/>
      <point x="290" y="-66.778"/>
      <point x="320" y="-91.1113"/>
      <point x="320" y="-139.445" type="curve" smooth="yes"/>
      <point x="320" y="-204.445"/>
      <point x="269.333" y="-236.111"/>
      <point x="201.667" y="-236.111" type="curve" smooth="yes"/>
      <point x="176.833" y="-236.111"/>
      <point x="146" y="-231.611"/>
    </contour>
    <contour>
      <point x="26" y="429.333" type="line"/>
      <point x="26" y="464.667" type="line"/>
      <point x="97" y="501.333" type="line"/>
      <point x="145" y="607.333" type="line"/>
      <point x="197.333" y="607.333" type="line"/>
      <point x="197.333" y="484" type="line"/>
      <point x="337.667" y="484" type="line"/>
      <point x="337.667" y="429.333" type="line"/>
      <point x="197.333" y="429.333" type="line"/>
      <point x="197.333" y="152.667" type="line" smooth="yes"/>
      <point x="197.333" y="88"/>
      <point x="218.333" y="51"/>
      <point x="278" y="51" type="curve" smooth="yes"/>
      <point x="307.283" y="51"/>
      <point x="333.105" y="57.7578"/>
      <point x="345" y="64.6667" type="curve"/>
      <point x="345" y="21.3333" type="line"/>
      <point x="321" y="10"/>
      <point x="265.333" y="-12"/>
      <point x="202.333" y="-12" type="curve" smooth="yes"/>
      <point x="121.333" y="-12"/>
      <point x="90.6667" y="23.6667"/>
      <point x="90.6667" y="103.667" type="curve" smooth="yes"/>
      <point x="90.6667" y="429.333" type="line"/>
    </contour>
  </outline>
</glyph>
<glyph name="Uogonek" format="2">
  <advance width="717"/>
  <unicode hex="0172"/>
  <outline>
    <contour>
      <point x="28" y="625.333" type="line"/>
      <point x="81.3333" y="621" type="line" smooth="yes"/>
      <point x="93.3333" y="620"/>
      <point x="103" y="611.333"/>
      <point x="103" y="599" type="curve" smooth="yes"/>
      <point x="103" y="233.333" type="line" smooth="yes"/>
      <point x="103" y="68"/>
      <point x="185.333" y="-15.3333"/>
      <point x="350.667" y="-15.3333" type="curve" smooth="yes"/>
      <point x="523.667" y="-15.3333"/>
      <point x="613.333" y="57"/>
      <point x="613.333" y="233.333" type="curve" smooth="yes"/>
      <point x="613.333" y="599" type="line" smooth="yes"/>
      <point x="613.333" y="611.333"/>
      <point x="623" y="620"/>
      <point x="634.667" y="621" type="curve" smooth="yes"/>
      <point x="691" y="625.333" type="line"/>
      <point x="691" y="671" type="line"/>
      <point x="469.667" y="671" type="line"/>
      <point x="469.667" y="625.333" type="line"/>
      <point x="526.667" y="621" type="line" smooth="yes"/>
      <point x="538.667" y="620"/>
      <point x="548.667" y="611.333"/>
      <point x="548.667" y="599" type="curve" smooth="yes"/>
      <point x="548.667" y="248" type="line" smooth="yes"/>
      <point x="548.667" y="128.667"/>
      <point x="504.333" y="57"/>
      <point x="385.333" y="57" type="curve" smooth="yes"/>
      <point x="263.333" y="57"/>
      <point x="218.667" y="121.667"/>
      <point x="218.667" y="248" type="curve" smooth="yes"/>
      <point x="218.667" y="599" type="line" smooth="yes"/>
      <point x="218.667" y="611.333"/>
      <point x="228.333" y="620"/>
      <point x="240" y="621" type="curve" smooth="yes"/>
      <point x="296" y="625.333" type="line"/>
      <point x="296" y="671" type="line"/>
      <point x="28" y="671" type="line"/>
    </contour>
    <contour>
      <point x="251" y="-124.377" type="curve" smooth="yes"/>
      <point x="251" y="-75.7109"/>
      <point x="285" y="-33.7109"/>
      <point x="324.333" y="-8.71093" type="curve"/>
      <point x="377" y="-8.71093" type="line"/>
      <point x="345.667" y="-30.7109"/>
      <point x="319.667" y="-62.0443"/>
      <point x="319.667" y="-101.711" type="curve" smooth="yes"/>
      <point x="319.667" y="-137.044"/>
      <point x="338.333" y="-154.377"/>
      <point x="369.667" y="-154.377" type="curve" smooth="yes"/>
      <point x="389" y="-154.377"/>
      <point x="407" y="-145.377"/>
      <point x="419" y="-136.711" type="curve"/>
      <point x="443.667" y="-178.044" type="line"/>
      <point x="417" y="-197.711"/>
      <point x="386.667" y="-207.044"/>
      <point x="351" y="-207.044" type="curve" smooth="yes"/>
      <point x="293.333" y="-207.044"/>
      <point x="251" y="-179.044"/>
    </contour>
  </outline>
</glyph>
<glyph name="uogonek" format="2">
  <advance width="585"/>
  <unicode hex="0173"/>
  <outline>
    <contour>
      <point x="21.6667" y="404.667" type="line"/>
      <point x="21.6667" y="441" type="line"/>
      <point x="152.667" y="484" type="line"/>
      <point x="196.667" y="484" type="line"/>
      <point x="196.667" y="176" type="line" smooth="yes"/>
      <point x="196.667" y="112.333"/>
      <point x="216.333" y="63.6667"/>
      <point x="292" y="63.6667" type="curve" smooth="yes"/>
      <point x="335.333" y="63.6667"/>
      <point x="370.667" y="78"/>
      <point x="391.333" y="88" type="curve"/>
      <point x="391.333" y="404.667" type="line"/>
      <point x="323.667" y="404.667" type="line"/>
      <point x="323.667" y="441" type="line"/>
      <point x="453.667" y="484" type="line"/>
      <point x="498" y="484" type="line"/>
      <point x="498" y="67" type="line" smooth="yes"/>
      <point x="498" y="55"/>
      <point x="509" y="46.3333"/>
      <point x="520.333" y="45.3333" type="curve" smooth="yes"/>
      <point x="564.333" y="41.6667" type="line"/>
      <point x="564.333" y="0" type="line"/>
      <point x="391.333" y="0" type="line"/>
      <point x="391.333" y="55.6667" type="line"/>
      <point x="366" y="36.3333"/>
      <point x="299.667" y="-12"/>
      <point x="231.333" y="-12" type="curve" smooth="yes"/>
      <point x="128" y="-12"/>
      <point x="90" y="49.6667"/>
      <point x="90" y="150.333" type="curve" smooth="yes"/>
      <point x="90" y="404.667" type="line"/>
    </contour>
    <contour>
      <point x="344.667" y="-121.044" type="curve" smooth="yes"/>
      <point x="344.667" y="-72.3776"/>
      <point x="379" y="-30.3776"/>
      <point x="418.333" y="-5.3776" type="curve"/>
      <point x="470.667" y="-5.3776" type="line"/>
      <point x="439.333" y="-27.3776"/>
      <point x="413.667" y="-58.7109"/>
      <point x="413.667" y="-98.3776" type="curve" smooth="yes"/>
      <point x="413.667" y="-133.711"/>
      <point x="432.333" y="-151.044"/>
      <point x="463.667" y="-151.044" type="curve" smooth="yes"/>
      <point x="483" y="-151.044"/>
      <point x="500.667" y="-142.044"/>
      <point x="512.667" y="-133.377" type="curve"/>
      <point x="537.333" y="-174.711" type="line"/>
      <point x="510.667" y="-194.377"/>
      <point x="480.667" y="-203.711"/>
      <point x="445" y="-203.711" type="curve" smooth="yes"/>
      <point x="387.333" y="-203.711"/>
      <point x="344.667" y="-175.711"/>
    </contour>
  </outline>
</glyph>
<glyph name="Zdotaccent" format="2">
  <advance width="577"/>
  <unicode hex="017B"/>
  <outline>
    <contour>
      <point x="38.3333" y="0" type="line"/>
      <point x="38.3333" y="49" type="line"/>
      <point x="400.667" y="617.333" type="line"/>
      <point x="153.667" y="617.333" type="line" smooth="yes"/>
      <point x="144.333" y="617.333"/>
      <point x="139.333" y="610"/>
      <point x="137.667" y="602" type="curve"/>
      <point x="121.667" y="503.667" type="line"/>
      <point x="58" y="503.667" type="line"/>
      <point x="58" y="671" type="line"/>
      <point x="533.667" y="671" type="line"/>
      <point x="533.667" y="620.667" type="line"/>
      <point x="171" y="54.6667" type="line"/>
      <point x="440.667" y="54.6667" type="line" smooth="yes"/>
      <point x="450" y="54.6667"/>
      <point x="455" y="62.6667"/>
      <point x="457" y="70.3333" type="curve"/>
      <point x="475" y="189" type="line"/>
      <point x="538.667" y="189" type="line"/>
      <point x="538.667" y="0" type="line"/>
    </contour>
    <contour>
      <point x="235.667" y="808" type="curve" smooth="yes"/>
      <point x="235.667" y="842.333"/>
      <point x="261" y="868.667"/>
      <point x="295.667" y="868.667" type="curve" smooth="yes"/>
      <point x="329.667" y="868.667"/>
      <point x="355.667" y="842.667"/>
      <point x="355.667" y="808" type="curve" smooth="yes"/>
      <point x="355.667" y="774.333"/>
      <point x="330" y="748"/>
      <point x="295.667" y="748" type="curve" smooth="yes"/>
      <point x="261.333" y="748"/>
      <point x="235.667" y="773.667"/>
    </contour>
  </outline>
</glyph>
<glyph name="zdotaccent" format="2">
  <advance width="471"/>
  <unicode hex="017C"/>
  <outline>
    <contour>
      <point x="33.3333" y="0" type="line"/>
      <point x="33.3333" y="57" type="line"/>
      <point x="296" y="433.667" type="line"/>
      <point x="129.667" y="433.667" type="line" smooth="yes"/>
      <point x="119.667" y="433.667"/>
      <point x="110.667" y="421.667"/>
      <point x="110" y="412.667" type="curve"/>
      <point x="101" y="337.667" type="line"/>
      <point x="43.3333" y="337.667" type="line"/>
      <point x="43.3333" y="484" type="line"/>
      <point x="425" y="484" type="line"/>
      <point x="425" y="438" type="line"/>
      <point x="155" y="51.6667" type="line"/>
      <point x="347" y="51.6667" type="line" smooth="yes"/>
      <point x="357.333" y="51.6667"/>
      <point x="366.333" y="66.3333"/>
      <point x="368.333" y="75.6667" type="curve"/>
      <point x="379.333" y="156.667" type="line"/>
      <point x="438.333" y="156.667" type="line"/>
      <point x="438.333" y="0" type="line"/>
    </contour>
    <contour>
      <point x="174" y="618.333" type="curve" smooth="yes"/>
      <point x="174" y="652.667"/>
      <point x="199.333" y="679"/>
      <point x="234" y="679" type="curve" smooth="yes"/>
      <point x="268" y="679"/>
      <point x="294" y="653"/>
      <point x="294" y="618.333" type="curve" smooth="yes"/>
      <point x="294" y="584.667"/>
      <point x="268.333" y="558.333"/>
      <point x="234" y="558.333" type="curve" smooth="yes"/>
      <point x="199.667" y="558.333"/>
      <point x="174" y="584"/>
    </contour>
  </outline>
</glyph>
<glyph name="longs" format="2">
  <advance width="333"/>
  <unicode hex="017F"/>
  <outline>
    <contour>
      <point x="26.6667" y="-0.666667" type="line"/>
      <point x="26.6667" y="41" type="line"/>
      <point x="76.3333" y="44" type="line" smooth="yes"/>
      <point x="87.3333" y="44.6667"/>
      <point x="97.3333" y="53.3333"/>
      <point x="97.3333" y="65" type="curve" smooth="yes"/>
      <point x="97.3333" y="477.667" type="line" smooth="yes"/>
      <point x="97.3333" y="554.333"/>
      <point x="119.667" y="612"/>
      <point x="157" y="658" type="curve" smooth="yes"/>
      <point x="191.333" y="702"/>
      <point x="242.333" y="736.667"/>
      <point x="310.333" y="736.667" type="curve" smooth="yes"/>
      <point x="362.948" y="736.667"/>
      <point x="400.333" y="709.141"/>
      <point x="400.333" y="670.667" type="curve" smooth="yes"/>
      <point x="400.333" y="644.071"/>
      <point x="382.314" y="623.861"/>
      <point x="349" y="613.333" type="curve"/>
      <point x="254" y="687.667" type="line"/>
      <point x="218" y="661.667"/>
      <point x="204.333" y="613.667"/>
      <point x="204.333" y="536.667" type="curve" smooth="yes"/>
      <point x="204.333" y="66.3333" type="line" smooth="yes"/>
      <point x="204.333" y="54.3333"/>
      <point x="213.333" y="44"/>
      <point x="225.667" y="44" type="curve"/>
      <point x="285.333" y="41" type="line"/>
      <point x="285.333" y="-0.666667" type="line"/>
    </contour>
    <contour>
      <point x="26.6667" y="429.333" type="line"/>
      <point x="26.6667" y="484" type="line"/>
      <point x="157.333" y="484" type="line"/>
      <point x="157.333" y="429.333" type="line"/>
    </contour>
  </outline>
</glyph>
<glyph name="uni0183" format="2">
  <advance width="569"/>
  <unicode hex="0183"/>
  <outline>
    <contour>
      <point x="90" y="0" type="line"/>
      <point x="90" y="738" type="line"/>
      <point x="484.333" y="738" type="line"/>
      <point x="484.333" y="579.333" type="line"/>
      <point x="423.667" y="579.333" type="line"/>
      <point x="410.667" y="667.667" type="line" smooth="yes"/>
      <point x="408.804" y="678.972"/>
      <point x="403" y="687.667"/>
      <point x="392" y="687.667" type="curve" smooth="yes"/>
      <point x="215" y="687.667" type="line" smooth="yes"/>
      <point x="203.667" y="687.667"/>
      <point x="196.035" y="678"/>
      <point x="196" y="668.667" type="curve"/>
      <point x="196" y="456" type="line"/>
      <point x="226.333" y="470.667"/>
      <point x="274.333" y="496"/>
      <point x="336.333" y="496" type="curve" smooth="yes"/>
      <point x="460.002" y="496"/>
      <point x="535.333" y="402.827"/>
      <point x="535.333" y="267.333" type="curve" smooth="yes"/>
      <point x="535.333" y="99.065"/>
      <point x="427.66" y="0"/>
      <point x="247" y="0" type="curve" smooth="yes"/>
    </contour>
    <contour>
      <point x="196" y="50.6667" type="line"/>
      <point x="208.465" y="49.6667"/>
      <point x="222.836" y="49.6667"/>
      <point x="235.667" y="49.6667" type="curve" smooth="yes"/>
      <point x="360" y="49.6667"/>
      <point x="419" y="108.667"/>
      <point x="419" y="244" type="curve" smooth="yes"/>
      <point x="419" y="355.333"/>
      <point x="371" y="429"/>
      <point x="269" y="429" type="curve" smooth="yes"/>
      <point x="241" y="429"/>
      <point x="216.333" y="422.667"/>
      <point x="196" y="416.333" type="curve"/>
    </contour>
  </outline>
</glyph>
<glyph name="uni0184" format="2">
  <advance width="616"/>
  <unicode hex="0184"/>
  <outline>
    <contour>
      <point x="22.3333" y="0" type="line"/>
      <point x="22.3333" y="45.6667" type="line"/>
      <point x="83.3333" y="50" type="line" smooth="yes"/>
      <point x="95.3426" y="50.8585"/>
      <point x="104.667" y="59.6667"/>
      <point x="104.667" y="71.3333" type="curve" smooth="yes"/>
      <point x="104.667" y="408.667" type="line"/>
      <point x="24.3333" y="496" type="line"/>
      <point x="220.333" y="688" type="line"/>
      <point x="220.333" y="366.333" type="line"/>
      <point x="241" y="369"/>
      <point x="263.667" y="370.667"/>
      <point x="286.333" y="370.667" type="curve" smooth="yes"/>
      <point x="441.265" y="370.667"/>
      <point x="577.333" y="335.393"/>
      <point x="577.333" y="193.667" type="curve" smooth="yes"/>
      <point x="577.333" y="40.3333"/>
      <point x="455.333" y="0"/>
      <point x="268.667" y="0" type="curve" smooth="yes"/>
    </contour>
    <contour>
      <point x="220.333" y="50.6667" type="line"/>
      <point x="226.076" y="50.1038"/>
      <point x="249.004" y="49"/>
      <point x="263.667" y="49" type="curve" smooth="yes"/>
      <point x="379.667" y="49"/>
      <point x="454.667" y="79.3333"/>
      <point x="454.667" y="189.333" type="curve" smooth="yes"/>
      <point x="454.667" y="301.667"/>
      <point x="379" y="320.333"/>
      <point x="276.667" y="320.333" type="curve" smooth="yes"/>
      <point x="258.667" y="320.333"/>
      <point x="237.333" y="318.333"/>
      <point x="220.333" y="315.667" type="curve"/>
    </contour>
  </outline>
</glyph>
<glyph name="uni0185" format="2">
  <advance width="569"/>
  <unicode hex="0185"/>
  <outline>
    <contour>
      <point x="11" y="565.333" type="line"/>
      <point x="196" y="757.333" type="line"/>
      <point x="196" y="456" type="line"/>
      <point x="224" y="469.667"/>
      <point x="273.333" y="496"/>
      <point x="336.333" y="496" type="curve" smooth="yes"/>
      <point x="460.002" y="496"/>
      <point x="535.333" y="402.827"/>
      <point x="535.333" y="267.333" type="curve" smooth="yes"/>
      <point x="535.333" y="98.6161"/>
      <point x="427.801" y="0"/>
      <point x="247" y="0" type="curve" smooth="yes"/>
      <point x="90" y="0" type="line"/>
      <point x="90" y="503.667" type="line"/>
    </contour>
    <contour>
      <point x="196" y="50.6667" type="line"/>
      <point x="208.799" y="49.6667"/>
      <point x="222.836" y="49.6667"/>
      <point x="235.667" y="49.6667" type="curve" smooth="yes"/>
      <point x="360" y="49.6667"/>
      <point x="419" y="108.667"/>
      <point x="419" y="244" type="curve" smooth="yes"/>
      <point x="419" y="355.333"/>
      <point x="371" y="429"/>
      <point x="269" y="429" type="curve" smooth="yes"/>
      <point x="241" y="429"/>
      <point x="214.667" y="422.333"/>
      <point x="196" y="416.333" type="curve"/>
    </contour>
  </outline>
</glyph>
<glyph name="uni0188" format="2">
  <advance width="488"/>
  <unicode hex="0188"/>
  <outline>
    <contour>
      <point x="33.3333" y="236" type="curve" smooth="yes"/>
      <point x="33.3333" y="390.413"/>
      <point x="132.812" y="496"/>
      <point x="280" y="496" type="curve" smooth="yes"/>
      <point x="303.753" y="496"/>
      <point x="326.181" y="492.667"/>
      <point x="344.667" y="487.667" type="curve"/>
      <point x="360.667" y="545.667"/>
      <point x="405.333" y="588.667"/>
      <point x="476.333" y="588.667" type="curve" smooth="yes"/>
      <point x="521.456" y="588.667"/>
      <point x="567" y="570.214"/>
      <point x="567" y="532.333" type="curve" smooth="yes"/>
      <point x="567" y="497.667"/>
      <point x="537" y="487"/>
      <point x="524.333" y="483" type="curve"/>
      <point x="463" y="548.667" type="line"/>
      <point x="426.667" y="540.667"/>
      <point x="418.333" y="505"/>
      <point x="418.333" y="451.333" type="curve"/>
      <point x="434.333" y="435.667"/>
      <point x="441" y="417"/>
      <point x="441" y="391.333" type="curve" smooth="yes"/>
      <point x="441" y="352.333"/>
      <point x="413.333" y="327.667"/>
      <point x="378" y="327.667" type="curve" smooth="yes"/>
      <point x="351.667" y="327.667"/>
      <point x="335.667" y="336"/>
      <point x="322.333" y="345.333" type="curve"/>
      <point x="322.333" y="441.333" type="line"/>
      <point x="315" y="446"/>
      <point x="301" y="450.333"/>
      <point x="288" y="450.333" type="curve" smooth="yes"/>
      <point x="199.748" y="450.333"/>
      <point x="150.333" y="363.804"/>
      <point x="150.333" y="253.667" type="curve" smooth="yes"/>
      <point x="150.333" y="139.538"/>
      <point x="205.391" y="57.3333"/>
      <point x="311.667" y="57.3333" type="curve" smooth="yes"/>
      <point x="368.667" y="57.3333"/>
      <point x="416" y="85.6667"/>
      <point x="445" y="105" type="curve"/>
      <point x="445" y="41.3333" type="line"/>
      <point x="402.333" y="16"/>
      <point x="347.667" y="-12.6667"/>
      <point x="266.667" y="-12.6667" type="curve" smooth="yes"/>
      <point x="117.366" y="-12.6667"/>
      <point x="33.3333" y="95.0889"/>
    </contour>
  </outline>
</glyph>
<glyph name="uni018B" format="2">
  <advance width="617"/>
  <unicode hex="018B"/>
  <outline>
    <contour>
      <point x="35.6667" y="184" type="curve" smooth="yes"/>
      <point x="35.6667" y="325.217"/>
      <point x="174.731" y="372"/>
      <point x="326.333" y="372" type="curve" smooth="yes"/>
      <point x="351.333" y="372"/>
      <point x="374.333" y="369.667"/>
      <point x="391.667" y="367" type="curve"/>
      <point x="391.667" y="601.667" type="line" smooth="yes"/>
      <point x="391.667" y="611.349"/>
      <point x="384.286" y="621.333"/>
      <point x="373.333" y="621.333" type="curve" smooth="yes"/>
      <point x="210.667" y="621.333" type="line" smooth="yes"/>
      <point x="199.667" y="621.333"/>
      <point x="193.798" y="612.649"/>
      <point x="192" y="601.333" type="curve" smooth="yes"/>
      <point x="179.667" y="513" type="line"/>
      <point x="119" y="513" type="line"/>
      <point x="119" y="671.667" type="line"/>
      <point x="584.333" y="671.667" type="line"/>
      <point x="584.333" y="626" type="line"/>
      <point x="529.333" y="621.667" type="line" smooth="yes"/>
      <point x="517.329" y="620.717"/>
      <point x="508" y="612"/>
      <point x="508" y="600.333" type="curve" smooth="yes"/>
      <point x="508" y="72" type="line" smooth="yes"/>
      <point x="508" y="60.3333"/>
      <point x="517.324" y="51.5252"/>
      <point x="529.333" y="50.6667" type="curve" smooth="yes"/>
      <point x="590.333" y="46.3333" type="line"/>
      <point x="590.333" y="0.666667" type="line"/>
      <point x="343.333" y="0.666667" type="line" smooth="yes"/>
      <point x="171.333" y="0.666667"/>
      <point x="35.6667" y="27.3333"/>
    </contour>
    <contour>
      <point x="156.667" y="181.667" type="curve" smooth="yes"/>
      <point x="156.667" y="74"/>
      <point x="233" y="49.3333"/>
      <point x="348.333" y="49.3333" type="curve" smooth="yes"/>
      <point x="361.513" y="49.3333"/>
      <point x="379.726" y="49.9237"/>
      <point x="391.667" y="50.6667" type="curve"/>
      <point x="391.667" y="315.333" type="line"/>
      <point x="374" y="318.333"/>
      <point x="355.333" y="320.333"/>
      <point x="334.667" y="320.333" type="curve" smooth="yes"/>
      <point x="231.667" y="320.333"/>
      <point x="156.667" y="295.333"/>
    </contour>
  </outline>
</glyph>
<glyph name="uni0198" format="2">
  <advance width="653"/>
  <unicode hex="0198"/>
  <outline>
    <contour>
      <point x="30.3333" y="0" type="line"/>
      <point x="30.3333" y="45.6667" type="line"/>
      <point x="83.3333" y="50" type="line" smooth="yes"/>
      <point x="95.3381" y="50.9375"/>
      <point x="104.667" y="59.6667"/>
      <point x="104.667" y="72" type="curve" smooth="yes"/>
      <point x="104.667" y="599" type="line" smooth="yes"/>
      <point x="104.667" y="611.333"/>
      <point x="95.3381" y="620.063"/>
      <point x="83.3333" y="621" type="curve" smooth="yes"/>
      <point x="30.3333" y="625.333" type="line"/>
      <point x="30.3333" y="671" type="line"/>
      <point x="296.667" y="671" type="line"/>
      <point x="296.667" y="625.333" type="line"/>
      <point x="241" y="621" type="line" smooth="yes"/>
      <point x="229.326" y="620.105"/>
      <point x="219.667" y="611.333"/>
      <point x="219.667" y="599" type="curve" smooth="yes"/>
      <point x="219.667" y="340.333" type="line"/>
      <point x="253" y="340.333" type="line"/>
      <point x="455.667" y="587" type="line" smooth="yes"/>
      <point x="510.787" y="654.035"/>
      <point x="560.995" y="684"/>
      <point x="618" y="684" type="curve" smooth="yes"/>
      <point x="672.044" y="684"/>
      <point x="711.667" y="653.541"/>
      <point x="711.667" y="611.667" type="curve" smooth="yes"/>
      <point x="711.667" y="584.362"/>
      <point x="693.076" y="562.511"/>
      <point x="660.333" y="551.333" type="curve"/>
      <point x="569" y="622.333" type="line"/>
      <point x="557.31" y="616.155"/>
      <point x="540.372" y="599.956"/>
      <point x="523" y="578.667" type="curve" smooth="yes"/>
      <point x="361" y="381.333" type="line"/>
      <point x="579.667" y="51" type="line"/>
      <point x="651.667" y="45.6667" type="line"/>
      <point x="651.667" y="0" type="line"/>
      <point x="462.333" y="0" type="line"/>
      <point x="462.333" y="33" type="line"/>
      <point x="284.667" y="296.333" type="line"/>
      <point x="219.667" y="296.333" type="line"/>
      <point x="219.667" y="72" type="line" smooth="yes"/>
      <point x="219.667" y="59.6667"/>
      <point x="228.993" y="50.8953"/>
      <point x="241" y="50" type="curve" smooth="yes"/>
      <point x="296.667" y="45.6667" type="line"/>
      <point x="296.667" y="0" type="line"/>
    </contour>
  </outline>
</glyph>
<glyph name="uni019B" format="2">
  <advance width="662"/>
  <unicode hex="019B"/>
  <outline>
    <contour>
      <point x="10.6667" y="-1.33333" type="line"/>
      <point x="248.667" y="457" type="line"/>
      <point x="229" y="506" type="line"/>
      <point x="98.6667" y="391" type="line"/>
      <point x="98.6667" y="467" type="line"/>
      <point x="204.333" y="560" type="line"/>
      <point x="189.369" y="597.169"/>
      <point x="177.521" y="618.667"/>
      <point x="150.667" y="618.667" type="curve" smooth="yes"/>
      <point x="141.857" y="618.667"/>
      <point x="133.357" y="616.531"/>
      <point x="130" y="610" type="curve" smooth="yes"/>
      <point x="85.3333" y="524" type="line"/>
      <point x="49.3074" y="524"/>
      <point x="13.3333" y="557.124"/>
      <point x="13.3333" y="589.667" type="curve" smooth="yes"/>
      <point x="13.3333" y="663.667"/>
      <point x="53" y="688.333"/>
      <point x="136.667" y="688.333" type="curve" smooth="yes"/>
      <point x="198.853" y="688.333"/>
      <point x="233.918" y="656.349"/>
      <point x="261" y="610.333" type="curve"/>
      <point x="352.333" y="691" type="line"/>
      <point x="352.333" y="616.333" type="line"/>
      <point x="285.333" y="557.667" type="line"/>
      <point x="453.333" y="142.667" type="line" smooth="yes"/>
      <point x="477.878" y="82.3258"/>
      <point x="496.205" y="57.3333"/>
      <point x="515" y="57.3333" type="curve" smooth="yes"/>
      <point x="523.259" y="57.3333"/>
      <point x="530.119" y="59.5503"/>
      <point x="537.667" y="65" type="curve"/>
      <point x="581.333" y="151" type="line"/>
      <point x="626.113" y="151"/>
      <point x="660.333" y="117.155"/>
      <point x="660.333" y="71.3333" type="curve" smooth="yes"/>
      <point x="660.333" y="15.1319"/>
      <point x="621.241" y="-13.3333"/>
      <point x="543.333" y="-13.3333" type="curve" smooth="yes"/>
      <point x="473.519" y="-13.3333"/>
      <point x="429.154" y="22.8371"/>
      <point x="392.333" y="109.667" type="curve"/>
      <point x="298.333" y="341.667" type="line"/>
      <point x="121" y="-1.33333" type="line"/>
    </contour>
  </outline>
</glyph>
<glyph name="uni019C" format="2">
  <advance width="1083"/>
  <unicode hex="019C"/>
  <outline>
    <contour>
      <point x="26.6667" y="626" type="line"/>
      <point x="26.6667" y="671.667" type="line"/>
      <point x="294.667" y="671.667" type="line"/>
      <point x="294.667" y="626" type="line"/>
      <point x="243.333" y="621.667" type="line" smooth="yes"/>
      <point x="231.33" y="620.705"/>
      <point x="222" y="612"/>
      <point x="222" y="599.667" type="curve" smooth="yes"/>
      <point x="222" y="219.333" type="line" smooth="yes"/>
      <point x="222" y="131.613"/>
      <point x="282.067" y="70.6667"/>
      <point x="368.667" y="70.6667" type="curve" smooth="yes"/>
      <point x="404.169" y="70.6667"/>
      <point x="445.971" y="85.2675"/>
      <point x="496" y="114.667" type="curve"/>
      <point x="488.305" y="139.755"/>
      <point x="484.333" y="167.778"/>
      <point x="484.333" y="198.667" type="curve" smooth="yes"/>
      <point x="484.333" y="599" type="line" smooth="yes"/>
      <point x="484.333" y="610.667"/>
      <point x="474.346" y="620.193"/>
      <point x="463" y="621" type="curve" smooth="yes"/>
      <point x="404" y="625.333" type="line"/>
      <point x="404" y="671" type="line"/>
      <point x="672" y="671" type="line"/>
      <point x="672" y="625.333" type="line"/>
      <point x="620.667" y="621" type="line" smooth="yes"/>
      <point x="608.663" y="620.039"/>
      <point x="599.333" y="611.333"/>
      <point x="599.333" y="599" type="curve" smooth="yes"/>
      <point x="599.333" y="218.667" type="line" smooth="yes"/>
      <point x="599.333" y="123.047"/>
      <point x="641.633" y="70"/>
      <point x="718.333" y="70" type="curve" smooth="yes"/>
      <point x="769.615" y="70"/>
      <point x="805.242" y="87.4175"/>
      <point x="860.333" y="139.333" type="curve"/>
      <point x="860.333" y="599" type="line" smooth="yes"/>
      <point x="860.333" y="610.667"/>
      <point x="850.346" y="620.193"/>
      <point x="839" y="621" type="curve" smooth="yes"/>
      <point x="780" y="625.333" type="line"/>
      <point x="780" y="671" type="line"/>
      <point x="1048" y="671" type="line"/>
      <point x="1048" y="625.333" type="line"/>
      <point x="996.667" y="621" type="line" smooth="yes"/>
      <point x="984.663" y="620.039"/>
      <point x="975.333" y="611.333"/>
      <point x="975.333" y="599" type="curve" smooth="yes"/>
      <point x="975.333" y="68" type="line" smooth="yes"/>
      <point x="975.333" y="58"/>
      <point x="982.331" y="51.6325"/>
      <point x="992.667" y="50.6667" type="curve" smooth="yes"/>
      <point x="1053.33" y="45.6667" type="line"/>
      <point x="1053.33" y="0" type="line"/>
      <point x="860.333" y="0" type="line"/>
      <point x="860.333" y="72.6667" type="line"/>
      <point x="790.549" y="4.54919"/>
      <point x="749.603" y="-15.3333"/>
      <point x="678.667" y="-15.3333" type="curve" smooth="yes"/>
      <point x="610.383" y="-15.3333"/>
      <point x="556.459" y="11.2655"/>
      <point x="521.667" y="61.6667" type="curve"/>
      <point x="445.573" y="5.18414"/>
      <point x="394.267" y="-15.3333"/>
      <point x="329.667" y="-15.3333" type="curve" smooth="yes"/>
      <point x="197.189" y="-15.3333"/>
      <point x="107" y="71.6477"/>
      <point x="107" y="199.333" type="curve" smooth="yes"/>
      <point x="107" y="599.667" type="line" smooth="yes"/>
      <point x="107" y="612"/>
      <point x="97.6767" y="620.817"/>
      <point x="85.6667" y="621.667" type="curve" smooth="yes"/>
    </contour>
  </outline>
</glyph>
<glyph name="uni019D" format="2">
  <advance width="738"/>
  <unicode hex="019D"/>
  <outline>
    <contour>
      <point x="-91" y="-158.333" type="curve" smooth="yes"/>
      <point x="-91" y="-126.493"/>
      <point x="-72.9768" y="-102.038"/>
      <point x="-39.3333" y="-89" type="curve"/>
      <point x="48.6667" y="-177.667" type="line"/>
      <point x="88.0296" y="-177.667"/>
      <point x="114.667" y="-124.803"/>
      <point x="114.667" y="-46.3333" type="curve" smooth="yes"/>
      <point x="114.667" y="599" type="line" smooth="yes"/>
      <point x="114.667" y="611.333"/>
      <point x="104.675" y="620.124"/>
      <point x="92.6667" y="621" type="curve" smooth="yes"/>
      <point x="35.3333" y="625.333" type="line"/>
      <point x="35.3333" y="671" type="line"/>
      <point x="249.667" y="671" type="line"/>
      <point x="249.667" y="645.333" type="line"/>
      <point x="567.667" y="159.667" type="line"/>
      <point x="567.667" y="599" type="line" smooth="yes"/>
      <point x="567.667" y="610.667"/>
      <point x="557.344" y="620.151"/>
      <point x="546" y="621" type="curve" smooth="yes"/>
      <point x="489" y="625.333" type="line"/>
      <point x="489" y="671" type="line"/>
      <point x="709" y="671" type="line"/>
      <point x="709" y="625.333" type="line"/>
      <point x="653.667" y="621" type="line" smooth="yes"/>
      <point x="641.993" y="620.095"/>
      <point x="632.333" y="611.333"/>
      <point x="632.333" y="599" type="curve" smooth="yes"/>
      <point x="632.333" y="0" type="line"/>
      <point x="539.667" y="0" type="line"/>
      <point x="179.333" y="549.667" type="line"/>
      <point x="180.333" y="-27.6667" type="line"/>
      <point x="180.333" y="-161.074"/>
      <point x="118.671" y="-230.333"/>
      <point x="-0.333333" y="-230.333" type="curve" smooth="yes"/>
      <point x="-52.5415" y="-230.333"/>
      <point x="-91" y="-199.743"/>
    </contour>
  </outline>
</glyph>
<glyph name="uni01A2" format="2">
  <advance width="952"/>
  <unicode hex="01A2"/>
  <outline>
    <contour>
      <point x="38" y="335.333" type="curve" smooth="yes"/>
      <point x="38" y="537.146"/>
      <point x="161.357" y="685.667"/>
      <point x="370" y="685.667" type="curve" smooth="yes"/>
      <point x="450.333" y="685.667"/>
      <point x="507.742" y="678.909"/>
      <point x="557.667" y="664.667" type="curve" smooth="yes"/>
      <point x="593.667" y="654.333"/>
      <point x="626" y="646"/>
      <point x="671" y="646" type="curve" smooth="yes"/>
      <point x="723.339" y="646"/>
      <point x="753.173" y="659.244"/>
      <point x="790.667" y="686.333" type="curve"/>
      <point x="846.667" y="686.333" type="line"/>
      <point x="846.667" y="-147" type="line" smooth="yes"/>
      <point x="846.667" y="-158.667"/>
      <point x="855.657" y="-168.141"/>
      <point x="868" y="-169" type="curve" smooth="yes"/>
      <point x="934.333" y="-172.667" type="line"/>
      <point x="934.333" y="-218.667" type="line"/>
      <point x="642" y="-218.667" type="line"/>
      <point x="642" y="-172.667" type="line"/>
      <point x="710.333" y="-169" type="line" smooth="yes"/>
      <point x="722.009" y="-168.133"/>
      <point x="731.667" y="-159.333"/>
      <point x="731.667" y="-147" type="curve" smooth="yes"/>
      <point x="731.667" y="564.333" type="line"/>
      <point x="716.063" y="560.933"/>
      <point x="692.896" y="559.237"/>
      <point x="668" y="559.237" type="curve" smooth="yes"/>
      <point x="649.245" y="559.237"/>
      <point x="629.95" y="560.277"/>
      <point x="615.333" y="562.333" type="curve"/>
      <point x="615.333" y="162" type="line" smooth="yes"/>
      <point x="615.333" y="47.2569"/>
      <point x="502.013" y="-16.6667"/>
      <point x="379.667" y="-16.6667" type="curve" smooth="yes"/>
      <point x="165.646" y="-16.6667"/>
      <point x="38" y="134.413"/>
    </contour>
    <contour>
      <point x="168" y="335.667" type="curve" smooth="yes"/>
      <point x="168" y="170.759"/>
      <point x="236.625" y="42.3333"/>
      <point x="377.667" y="42.3333" type="curve" smooth="yes"/>
      <point x="454.501" y="42.3333"/>
      <point x="501" y="84.8695"/>
      <point x="501" y="180" type="curve" smooth="yes"/>
      <point x="501" y="592" type="line"/>
      <point x="457" y="614.667"/>
      <point x="431.667" y="625.333"/>
      <point x="372.333" y="625.333" type="curve" smooth="yes"/>
      <point x="227.02" y="625.333"/>
      <point x="168" y="488.333"/>
    </contour>
  </outline>
</glyph>
<glyph name="uni01A3" format="2">
  <advance width="779"/>
  <unicode hex="01A3"/>
  <outline>
    <contour>
      <point x="34" y="239.333" type="curve" smooth="yes"/>
      <point x="34" y="391.213"/>
      <point x="128.133" y="496"/>
      <point x="281.333" y="496" type="curve" smooth="yes"/>
      <point x="331.043" y="496"/>
      <point x="379.421" y="489.127"/>
      <point x="434.667" y="474" type="curve" smooth="yes"/>
      <point x="469.203" y="464.512"/>
      <point x="500.305" y="459.667"/>
      <point x="527.333" y="459.667" type="curve" smooth="yes"/>
      <point x="569" y="459.667"/>
      <point x="598.667" y="466.781"/>
      <point x="644.667" y="488" type="curve"/>
      <point x="687.667" y="488" type="line"/>
      <point x="687.667" y="-151" type="line" smooth="yes"/>
      <point x="687.667" y="-163"/>
      <point x="697.319" y="-172.909"/>
      <point x="708.667" y="-173.333" type="curve" smooth="yes"/>
      <point x="760.667" y="-176.333" type="line"/>
      <point x="760.667" y="-218" type="line"/>
      <point x="511.667" y="-218" type="line"/>
      <point x="511.667" y="-176.333" type="line"/>
      <point x="561" y="-173.333" type="line" smooth="yes"/>
      <point x="572.347" y="-172.883"/>
      <point x="582" y="-163.667"/>
      <point x="582" y="-151.667" type="curve" smooth="yes"/>
      <point x="582" y="393.333" type="line"/>
      <point x="570.442" y="390.923"/>
      <point x="552.833" y="389.333"/>
      <point x="532.333" y="389.333" type="curve" smooth="yes"/>
      <point x="511.833" y="389.333"/>
      <point x="494.225" y="390.923"/>
      <point x="482.667" y="393.333" type="curve"/>
      <point x="482.667" y="116" type="line" smooth="yes"/>
      <point x="482.667" y="29.1805"/>
      <point x="377.626" y="-12.6667"/>
      <point x="277" y="-12.6667" type="curve" smooth="yes"/>
      <point x="125.292" y="-12.6667"/>
      <point x="34" y="89.7615"/>
    </contour>
    <contour>
      <point x="152.667" y="242.667" type="curve" smooth="yes"/>
      <point x="152.667" y="139.956"/>
      <point x="186.125" y="36"/>
      <point x="279" y="36" type="curve" smooth="yes"/>
      <point x="343" y="36"/>
      <point x="378.667" y="71"/>
      <point x="378.667" y="137.667" type="curve" smooth="yes"/>
      <point x="378.667" y="419.333" type="line"/>
      <point x="338.21" y="440.735"/>
      <point x="317.583" y="446.333"/>
      <point x="279.333" y="446.333" type="curve" smooth="yes"/>
      <point x="184.878" y="446.333"/>
      <point x="152.667" y="346.705"/>
    </contour>
  </outline>
</glyph>
<glyph name="uni01A4" format="2">
  <advance width="663"/>
  <unicode hex="01A4"/>
  <outline>
    <contour>
      <point x="-17.6667" y="554.333" type="curve" smooth="yes"/>
      <point x="-17.6667" y="634"/>
      <point x="52.3333" y="671"/>
      <point x="138" y="671" type="curve" smooth="yes"/>
      <point x="351.333" y="671" type="line" smooth="yes"/>
      <point x="542.237" y="671"/>
      <point x="626" y="609.253"/>
      <point x="626" y="468.667" type="curve" smooth="yes"/>
      <point x="626" y="332.103"/>
      <point x="527.295" y="249.333"/>
      <point x="364.667" y="249.333" type="curve" smooth="yes"/>
      <point x="343.434" y="249.333"/>
      <point x="305.631" y="251.439"/>
      <point x="295.333" y="252.667" type="curve"/>
      <point x="295.333" y="72" type="line" smooth="yes"/>
      <point x="295.333" y="60.3333"/>
      <point x="305.32" y="50.7786"/>
      <point x="316.667" y="50" type="curve" smooth="yes"/>
      <point x="381.667" y="45.6667" type="line"/>
      <point x="381.667" y="0" type="line"/>
      <point x="104" y="0" type="line"/>
      <point x="104" y="45.6667" type="line"/>
      <point x="157.333" y="50" type="line" smooth="yes"/>
      <point x="168.341" y="50.8981"/>
      <point x="180.333" y="61"/>
      <point x="180.333" y="72" type="curve" smooth="yes"/>
      <point x="180.333" y="601.667" type="line" smooth="yes"/>
      <point x="180.333" y="613.333"/>
      <point x="173.333" y="620.333"/>
      <point x="161.333" y="620.333" type="curve" smooth="yes"/>
      <point x="121.667" y="620.333" type="line" smooth="yes"/>
      <point x="89" y="620.333"/>
      <point x="67" y="615"/>
      <point x="56" y="597" type="curve"/>
      <point x="106.333" y="517.667" type="line"/>
      <point x="92.6667" y="496.333"/>
      <point x="71.6667" y="482"/>
      <point x="42.3333" y="482" type="curve" smooth="yes"/>
      <point x="11.3333" y="482"/>
      <point x="-17.6667" y="509.667"/>
    </contour>
    <contour>
      <point x="295.333" y="306.667" type="line"/>
      <point x="311.819" y="304.189"/>
      <point x="326.467" y="303"/>
      <point x="341.667" y="303" type="curve"/>
      <point x="450.775" y="303.333"/>
      <point x="507" y="359.075"/>
      <point x="507" y="466.333" type="curve" smooth="yes"/>
      <point x="507" y="565.482"/>
      <point x="452.476" y="618"/>
      <point x="348" y="618" type="curve" smooth="yes"/>
      <point x="295.333" y="618" type="line"/>
    </contour>
  </outline>
</glyph>
<glyph name="uni01AB" format="2">
  <advance width="351"/>
  <unicode hex="01AB"/>
  <outline>
    <contour>
      <point x="26" y="429.333" type="line"/>
      <point x="26" y="464.667" type="line"/>
      <point x="97" y="501.333" type="line"/>
      <point x="145" y="607.333" type="line"/>
      <point x="197.333" y="607.333" type="line"/>
      <point x="197.333" y="484" type="line"/>
      <point x="337.667" y="484" type="line"/>
      <point x="337.667" y="429.333" type="line"/>
      <point x="197.333" y="429.333" type="line"/>
      <point x="197.333" y="152.667" type="line" smooth="yes"/>
      <point x="197.333" y="88"/>
      <point x="218.333" y="51"/>
      <point x="278" y="51" type="curve" smooth="yes"/>
      <point x="307.604" y="51"/>
      <point x="334.159" y="58.2745"/>
      <point x="346.333" y="65.3333" type="curve"/>
      <point x="346.333" y="-111" type="line" smooth="yes"/>
      <point x="346.333" y="-194.667"/>
      <point x="287" y="-229"/>
      <point x="211" y="-229" type="curve" smooth="yes"/>
      <point x="159.159" y="-229"/>
      <point x="101" y="-204.171"/>
      <point x="101" y="-161.667" type="curve" smooth="yes"/>
      <point x="101" y="-130.985"/>
      <point x="115.579" y="-110.631"/>
      <point x="148.667" y="-95.3333" type="curve"/>
      <point x="234.667" y="-172.333" type="line"/>
      <point x="273" y="-172.333"/>
      <point x="291.333" y="-156.667"/>
      <point x="291.333" y="-115.667" type="curve" smooth="yes"/>
      <point x="291.333" y="2.33333" type="line"/>
      <point x="269.667" y="-7.66667"/>
      <point x="232" y="-12"/>
      <point x="202.333" y="-12" type="curve" smooth="yes"/>
      <point x="121.333" y="-12"/>
      <point x="90.6667" y="23.6667"/>
      <point x="90.6667" y="103.667" type="curve" smooth="yes"/>
      <point x="90.6667" y="429.333" type="line"/>
    </contour>
  </outline>
</glyph>
<glyph name="uni01AC" format="2">
  <advance width="602"/>
  <unicode hex="01AC"/>
  <outline>
    <contour>
      <point x="6.33333" y="534.667" type="curve" smooth="yes"/>
      <point x="6.33333" y="626.57"/>
      <point x="66.6744" y="671"/>
      <point x="145.333" y="671" type="curve" smooth="yes"/>
      <point x="586.333" y="671" type="line"/>
      <point x="586.333" y="503.333" type="line"/>
      <point x="523" y="503.333" type="line"/>
      <point x="507.667" y="603" type="line"/>
      <point x="506.667" y="612.333"/>
      <point x="500.667" y="618.333"/>
      <point x="491.333" y="618.333" type="curve" smooth="yes"/>
      <point x="358.667" y="618.333" type="line"/>
      <point x="358.667" y="72" type="line" smooth="yes"/>
      <point x="358.667" y="59.6667"/>
      <point x="368.333" y="51"/>
      <point x="380.333" y="50" type="curve" smooth="yes"/>
      <point x="442.333" y="45.6667" type="line"/>
      <point x="442.333" y="0" type="line"/>
      <point x="160" y="0" type="line"/>
      <point x="160" y="45.6667" type="line"/>
      <point x="222.333" y="50" type="line" smooth="yes"/>
      <point x="234" y="51"/>
      <point x="243.667" y="59.6667"/>
      <point x="243.667" y="72" type="curve" smooth="yes"/>
      <point x="243.667" y="618.333" type="line"/>
      <point x="135.333" y="618.333" type="line"/>
      <point x="99" y="616.333"/>
      <point x="82.3333" y="592.333"/>
      <point x="78.3333" y="553.667" type="curve"/>
      <point x="145.667" y="495.667" type="line"/>
      <point x="136.231" y="468.01"/>
      <point x="110.342" y="444.667"/>
      <point x="80.6667" y="444.667" type="curve" smooth="yes"/>
      <point x="33.3333" y="444.667"/>
      <point x="6.33333" y="485.333"/>
    </contour>
  </outline>
</glyph>
